<mxfile host="Electron" agent="Mozilla/5.0 (X11; Linux x86_64) AppleWebKit/537.36 (KHTML, like Gecko) draw.io/24.7.8 Chrome/128.0.6613.36 Electron/32.0.1 Safari/537.36" version="24.7.8">
  <diagram name="Page-1" id="n3rasMsi5nzUUyehiRiK">
    <mxGraphModel dx="3302" dy="1802" grid="0" gridSize="10" guides="1" tooltips="1" connect="1" arrows="1" fold="1" page="0" pageScale="1" pageWidth="850" pageHeight="1100" background="#ffffff" math="0" shadow="0">
      <root>
        <mxCell id="0" />
        <mxCell id="1" parent="0" />
        <mxCell id="et1fOOYHSfHHCLRn4kue-17" value="" style="rounded=1;whiteSpace=wrap;html=1;fontFamily=Architects Daughter;fontSource=https%3A%2F%2Ffonts.googleapis.com%2Fcss%3Ffamily%3DArchitects%2BDaughter;sketch=1;curveFitting=1;jiggle=2;fillStyle=solid;fillColor=default;gradientColor=none;" parent="1" vertex="1">
          <mxGeometry x="-326" y="-138" width="1633" height="1311" as="geometry" />
        </mxCell>
        <mxCell id="et1fOOYHSfHHCLRn4kue-16" value="" style="rounded=1;whiteSpace=wrap;html=1;fontFamily=Architects Daughter;fontSource=https%3A%2F%2Ffonts.googleapis.com%2Fcss%3Ffamily%3DArchitects%2BDaughter;fillColor=none;strokeColor=default;sketch=1;curveFitting=1;jiggle=2;fontColor=#ffffff;" parent="1" vertex="1">
          <mxGeometry x="-140" y="50" width="1279" height="1010" as="geometry" />
        </mxCell>
        <mxCell id="et1fOOYHSfHHCLRn4kue-1" value="" style="shape=image;verticalLabelPosition=bottom;labelBackgroundColor=default;verticalAlign=top;aspect=fixed;imageAspect=0;image=https://static-00.iconduck.com/assets.00/kubernetes-icon-256x249-bq5ypumy.png;" parent="1" vertex="1">
          <mxGeometry x="-269" y="-99" width="256" height="249" as="geometry" />
        </mxCell>
        <mxCell id="et1fOOYHSfHHCLRn4kue-8" value="" style="shape=image;verticalLabelPosition=bottom;labelBackgroundColor=default;verticalAlign=top;aspect=fixed;imageAspect=0;image=data:image/png,iVBORw0KGgoAAAANSUhEUgAAAQAAAAD5CAYAAADImOsDAAAABmJLR0QA/wD/AP+gvaeTAAAgAElEQVR4nOydZ3gUVRfH/3e2l+xmUwmhh9A7oYamAoKIIiAigl30VSygIIgNe/dVX7soYgELFlQsdOm99xYIIQnp2Wzfnft+mCQkZGZbtk2yv+fxg9yZOzfJ3DP3nnvO/xBEaRRQSpMBXAtgEIAeAFIAJAMoB2ABkAXgMIC1AP4hhOSHZ6RRokQJGJTSqyilyymlLuo9DkrpMkrpVeEef5QoUXyEUkoopWMppVt8mPRC7KGU3koplYT754oSJYobKKVM5cTfFYCJfzkHKw2BNNw/Z5QoUWpAKZVXTs5jQZj4l3OGUvowpVQV7p87SpRGDaVUUzkZs0Mw8S8nn1L6LKVUH+7fQxT/IeEeQBTfoZQaAMwA8DCAeN/uhbHcQk8XlDpNNjtcAKBUEEmSntFrVUxLQqD1cTiFAN4F8D9CSImP90YJM1EDICIod5Q3C8B/AMR4e5+LpRc3HLId+Xp1RdK+0/YOLOX/u0sYODPSFcemDdcW9msv78oQEufD8IwAPgDwdvQIUTxEDYAIoJS2BDAbwJ0AvN572xz09Gf/VOQuXmnq63SxMl+eqZAS211Xx+y4dYS2uUyClj7cagHwOYDXCSFnfXlmlNATNQARDKU0DcBDAO4FoPD2PqudHl+4sqJg0T/G/iyLeh3fMQTstf3Uux6boNdqlKSjD7c6ACwF8DIh5Eh9xhAleEQNQARCKe0G4DEAUwDvJ7DRzB546+dy62/bzBlUYJlfH4b3VO1+ckqsPEZJuvhwGwtgBYDnCSHbAz2mKPUjagAiCErpIACPAxgDH/42RjN74LklZc41ey09gza4GgzsqDwwf4re2iRW0sfHWzcBeJYQsioY44riO1EDEAHUmPjX+nAbm1fq2vXM4hLNzhP2TkEamlu6tZIfe3JKbGFairQ/fFipgDMErwL4nRBCgzO6KN4QNQBhglLKgPvSPwmgrw+3Ok7lOrc/+WVxyvEcZ5vgjM43OjSTn3tmauyFdqnSDAC+RAruB/AmgG8IIa7gjC6KO6IGIMRQSmUAbgYwF4AvTjXbqVznzsc/L252Js/pi1c+ZDRPkJ5/cor+dEa6og98OK0AcArAawC+IIQ4gjO6KHxEDUCIoJTKAUwG98VP9/4+mHadtO16enFp+/xSV3LQBhhA4nVM4eyJ+kPDe6h6EgKdD7eeBfA2gE8IIZYgDS9KDaIGIMhQSrUA7gJ3jp/q9X1A8ao9lgMvf1fWrczEGoI2wCCi1zDGOTfq91/dW9WJAL78DBcBfAjgv4SQ0iANLwqiBiBoUErjATxY+Z/XEXUsReHqvZZDLywp7VVhoV5H+0UyGgUxPTA2ZteNgzXtGYb4soopB2cIXieEFAVpeI2aqAEIMJTSJAD3A3gEgNeJMi4W53/cUHH6nV+NfWyOhplpJ5MS+7Th2h3TR8U08zG60ARgIThDcD5Iw2uURA1AgKCUtgIwE8A98ClcFyc/+8eY/+U/xn4u1icPumiRSgg79QrtzunXaBMUMuLLSYYdwHcAXiCEHA/S8BoVUQNQTyilncGd4d8MH47ArHZ6bOHKisJAhOuKleow44l6tUZBOvtwa1V04TOEkN1BGl6jIGoA/IRS2gNcZp6/4bp9aDQEpho/owspgD/ArQi2BWloDZqoAfARf8N1iyrY3U8vLpVvPWL1JY6+0VHDEGTAt/dzE4BXCSG/BWloDZKoAfASSulwAAsADPThNjav1LXrqUUl2t2n7L4E/TR6urSSH396SmyBH2HGuwG8AuDHaJixZ6IGwA01wnWfBpDhw62OU7nO7fO/LEk5keOIiHBdsdIyWZL9xE2xZzLSFf3gQ0o0gAMA3gDwLSHEGZzRiZ+oAeChRrjuPAAdfLjVdijLsX3uopK0C0XOpsEZXeOkWbzkwlO3xJ7MSFdkAFD7cOtpcJJlHxNCrMEZnXiJGoAaUEoVAG4DF67b3Pv7ULHrpG3301+Wtc8vc4oiXFesxMUwRXNu1B8c3kPVgxDv4ywA5AH4L4D3CCHmIA1PdEQNAABKaQw4ua3HwZXM8gqW0uLVe60HXl5a3r3M7IoN2gCj1EGjIBUPjI3ZfeMQbQeGIMmHWwsBvA/gnaiIaSM3AJTSBHDqug/Bh1h1lqLg922mw6/+UN7Haqe+LEejBBi1gjHNGKvddeNgbTrDeG+8wYmYfgHgFUJIbpCGF/E0SgNQqa47E1ycvtcT2MUi+8cNFWf+u9zY126nyqANMIrPVIUZ3zNKmyqXkFY+3GoD8CW4WILsoAwugmlUBoBS2hpcjP50AF5PYJudnvxsZUWjCtcVK1XRhXMm6mNUCuKLA7dKxPRFQsixIA0v4mgUBoBS2hVcOq6v4bpH31tuLPnu34r+wRDZjBI8CAEd20+9c9YNOnWMmvEnzHgBIWRnkIYXMTTol5pS2hPcUd5E+Ciy+dbP5dblW82+il5GiUDqIWK6CsDThJAtwRhXJNAgDYCfIps0r9S1c8HXZartx6Lhug2Rbq3lR5+5Jba8VbK0D6JhxgAakAGglBJwE/4JAP19uJXNK3XtenJRiXZPNFy3UdCxufTkgmlx+Wkp0n7wTcR0LzjJsgYjYip6A1AjXPdZAL18uNV+Kte544kvipuezHW2DsrgokQ0LZIk2fMnx57JSFf0hQ9OYQCHwImYij7MWLQGoIbI5nwA7Xy41bTzhG3Xs1+VpeeWOH05N47SQEnQMQXzb4o9PrirsichPoUZZ4GLLhStiKnoDAClVAPgbnCls5p5fx8Xrvvk4tIOBaUuXyLHojQSDDGk+PEbYw8M76nqTgBfIjvzAXwErjJyWZCGFxREYwBqhOvOBdDE2/tYiqLVey0HX1pa3qPc7PIldjxKI0WrJKb7r/VLxLQIwP8AvEsIKQ7S8AJKxBsASmkigAcAPAwfrLKLpRd+3GA6+e5yY0Y0XDeKPyikxHbn1do9d4yMaSFh4Et2ZwW4EumvEkIuBGl4ASFiDQCltAWAR8Et972ewA4Xzf5po+nMO78a+9kc1Jf88ShReJFKGMetIzTb7xkVkyKXwBd9BxuA7wE8Rwg5GaTh1YuIMwCU0jbgvvb3wgcBCJudnvhsZcXFxiyyGSW41BAx1WgUxJeCrFVhxi8TQo4EaXh+ETEGgFLaDZxjzyeRzQorPfDmsjLrb9vMGdFw3SihYmBH5YFnp8Y643WMLyXZq8KMnyOE7AjS0Hwi7BOGUpoJzrHnk8hmNFw3SiRQTxHTZwghq4M0NK8ImwGglPYFJ954hQ+3sXnFrm3PfF0Ws/NENFw3SuTQM01+4ulbYstbJEp7AmB8uHUNgMfDlXgUcgNQeY7/JriUXG+f7zyT59jy5OLSpkezHWnBG12UKPWjXaose8E0Q067VGkGvA8zpgA+ADA71AFFITUAlfn4fwDwNubedvicY9NTi0taZ+VHw3UDSVwMg5G9VDh8zoH9Z+zhHk6Do3mSNGfBLYas7m1kveF9mPFBAGMIIeeCOLRahMwAUEo7AVgNL4J4KKWmHcft25/9prRjfonL66CfKO5hCJDZWYnxmWpkdlJCUrlQPZrtwNL1Jvy10wKHKyqlH0iSYiWFT0zWHx/USdmdEGi8uCUHwJWhqn0YEgNAKU0FsAWelXbN6w5Yd7ywpLRriZH1uqR2FPfIJARX91bh1uFapKUIr0qLjSx+3GjCt2tNMFrYEI6w4aPXMCVP3xK7f1hXZR94jms5AyAzFFqFQTcAlFIpgLUABrm7Lq/YuePOt4ta5Je6orLaAUKjJLiuvxq3XqVFUqz3oRFmG8XyrWZ8uaoCF0sbRNZrxNDEIMn/fFbCuWTP4iRrAQwnhATVEofCAMwD8JKbS1zf/2va+OoPZUODPZbGQhODBFOv1OL6AWqoFf7/ie1Oij+2W7B4VQXOFYg66zWiIAT0icn6DeMHagbB/YnBTELIf4M6lmB2TiltAuA4gBiBS5yvfF+284cNJl8EPKIIkBovwZQrtBg/UA25LHB/WpYCmw5Z8elfRhw66whYv42dqVdqt8y8QdcXwoFvpQDSCSGFwRpDsA3Aa+DEOHn55E/jxo9XGN1uDaJ4Ji1FituGx2BUhqrasRcs9p224+MVRmw7ZgvugxoJj4zTbZh2lXawm0ueJ4Q8HaznB80AUEqVAM4DiOdrP5Dl2HD7mwXufvAoHmiXKsPUK7UY3UcFJsQRHftO27FoZQU2HLKCRg8O6sWSuYmb2qXKMgWa8wC0IIQEZekVTANwDbgz/zq4WJwfMjs33mqnqmA9vyHTI02O24drMaizEiTMwdwnchz4eo0Jf+40wxU9OPALjYJUrH2tiVnCECGhmqsIIWuC8exgLhhHCTW8u7z8XHTy+06PNDk+nBGPhY8kYHCX8E9+AEhPlWHBtFj8/FQybh6mCajvobFgslHt539XnHBzyehgPTuYK4B9ALpd/u8ulub0n5nbJJqy6x2EAIM7K3HX1Vp0aSUP93A8UhVL8PWaCpis0b2Bt0gYOLe+3bSQYXgD5XYQQvoG47lBKXNFKdUB4K3G8tcu6wmWRWowntuQYAgwqLMS914Tgw7NZeEejtfExTCYPjoGkwZr8P0GE5asM6HcHN0beMLFQrr+oOXYFd1UfAagB6VUHYyy5sGqc9cfAkcbS9ZWeC3k2RiRSghG9Vbhzqu1aJkk3jKEsVrOEEy9UhsNKvKSb9eYk67oxrszlgHoC2BdoJ8ZrDdsIN8/sizNO5LtaBukZ4oahYzghoFc1F6yoeHsjtQKgslDNRg/UI3lW81YvLoCOUVRQ8DHntO2DiylxQwhfGHwmRCRAeA92z9f6DoNHxR9GwNyKcG1/VSYPjoGifqGM/EvRy4jmDhYg/GDNFiz14KPVhhxJi8aXVgTSkEKytiTybESvv0+70e1vgTcAFBKJeCWK3XYfNQWDSOrRCYhGNu/4U/8y2EIMLynClf2UGHTISs+XmHEkezoa1HFtqNWy3X9eZMGB1JKmUDnBgRjBdAdAqG/q3ZbGn1BjsY68S+HIcDgLkoM7qLEtmM2fPC7EQezoroEq/bYDAIGIBacjsahQD4vGAZAKKLJtP+MPT0IzxMFVRP/nlExPmXmNQb6tVegX3tFNMwYwM7jtvbg5MT5FLEzIQIDwLtXKalgj7tY+KKg2iCITnzv6d5Gjg9mxDfqMGObkyqMZvZgjJrh07zMBPBJIJ8XshXA3lM2UdVMqy/Rie8/3dvI8fa9cTh23oHP/6nA6r2WRmUIDp61Fw3oyKsiJrS69puAGoBK5R9e1Z9Vey3aQD4rUolO/MDRvpkMr95pwKncGCxeVYEVO81gG0FM0ep9NqWAAUijlKYEUikooKHAlNLJAJbwNLHD5uSWGy3Ul4qroqJq4t89KgbJ0YkfFHIKXVi0yohftzTsxCNDDCle9VKKAfzzcwIh5KdAPSvQWwDeJYrNTk8ZLbRBOgCjEz90pCZIMH9yLO4cGYNv1lZg2SYz7I6GtzcoMdI4hwtZMgla8TRnAohYA8DrADx+wZkLoEEZAJmEYNxANe4YqY1O/BCTEifBYxP0mHalFgv/NuLXrRY4G5ia8Zk8x/l2qbJWPE0B9QMEzABUFvyok/0HAOv2WxrMDGEIcGUPFWaMjUHzRPHG6jcEkg0SPDE5FndeHcMZgga0Ndhw0Ip2qbxJYL0CmRgUSD2A/hAwKKv3WTzJgYuCfu0V+HpOIl690xCd/BFEEwO3NfjlmWSMz1QHXRYtFKzea2kq0CQDkBGo5wTyLeZdmrAUF7MvuloE8Dkhp1trOWZcp0PvtpGfj9+YaRrHGYLbR8Rg0Uojftki3lOD4znO1hQoIYCBp3kggH8D8ZxA2kpeA3Ch2HUqgM8IKS0SpXj73jh8MSshOvlFRGo8ZwiWzk1CjzRx/t0oBblY6jop0BwwP0BADACllAHQj69t62GrKAO8J2Sq8f38RAzp4m1ZN/FSWsHi34NWrD9ghd3ZcJxpaSlS3H21kCJ95LPzhN0k0JRZOefqTaC2AF0B6PkaVu61JQToGSGDYYD7r9VBJmnY+nalFSy+WFmBZRtNsNi5iZ+WIsV798f7fbJhtVMo5ZHze+udLodaQWC2ic+wrdptMYzpwysQYgDQHsCR+j4jUFsAoVxly77TNtEd//VsI0estgF4ktyw66Qdk18pwNdrKqonPwCcynXinncKcaHYN9GOA1l23PpGAQY9lotRT+bjl80BV6/yC7mUoG97vryayGfbMVs7AEIr6IBsAwL1lvMOpsxEjzmcVHSbsKHdGvayf91+K+57rxAFZfyTPKfQhTveLMTuk553b04XxWd/GXHX24U4dNYBSoGCMheeX1KKmR8XR4QwaEa6OA2AzUFVFVYqpBYc+QZg72lbaYD6DymDOjdsA/DWT2UeveOF5S5Mf7cQc78owbajtlqrBAAoqWDxyxYzbnq5AB/+YeQ9f//3oBUPflgU9uV3RrrovkHVHM6yC5UFC4gBqLcPgFLaFOANWcTqvVZv6qFHFIl6iajFOD1BKXCx1LuzMUqBlbstWLnbAkKA5FgJDFoGJRUsLpa5vDpi23fajqe/KsEbd4ev2ntaUxn0GgZlJvGdCa7Zb1X07cC7gkmnlDYhhOTVp/9ArACELBHdeMgqOgHQhn7cRwjQqaXvMuOUAnklLhzJdiCvxLvJX8XafVbkl4RPCJQh4v27rt1nSXPTXO+iuoEwALwOQJuDni4zsXxBDBFNLxEvF71lWBh8HM4wf3x7i9QPUFjOJjpc9JxAc723AUFbAZzKdV4IQN8hR6wOI1/wxccRF8OgSys5+rVXoH0zGXRq31+Ztk1lSI0PbzqImP0AZ/Od2QJN9TYA9drsUkpV4ERA67BuvzVyDoO9JEHXsPf/VbROlkKrYlBh4f8sx+sY3DBAgzH9VGhxWc4DS7mCoCt2WPDLFrNgHzW5Y0T4tWDSUsTrB9hw0Mq2bSqYGKQkhFj97bu+K4B+AHhN65p9FtFVAOot4q+ELxACqHiCdRgCTL1Si9+fTcZ/ro2pM/mrrmnfTIaZN+jw69NJGNPXfY3XpnESjOwd/jqwhAA92ojz77t6rzVFoEkBoHd9+q6vARBKACo8k+dsWc++Q04vkTqK/OHy/Hm5jOC/98Vj5g06ryv8xmoZPDfNgMdv1IMReJOu6asGEyFrQbHmBRw970ijQIlAc722AUExAHklrpMIYuXhYNG9tThfEF8pNrIoqbi0FGYY4I2745DZyT//x6QhGsy6gTcSHB0jqLCpWFcAlIIUlgUnMchvA0ApJRBIANp21Co6YXeNkiCNf5/V4Pj3QO0t47QrtX5P/ipuHqbB8J51l/pNw+z8q0nHFjIovFzdRBo7jtuFYqsHVs5Fv6jPCqATAN7ojpW7rfH16DcsdGklj5ilajChFPh+w6Uks+RYCe67JjAZc7Nu0NWZYI4Iyi6USQi6+BEDEQms2mMREtRNANDO337rYwCElh62vafEVwGosSz/V+yw4Nj5S7X4JgxSe73n90SyQYIRvWqvAs7kR1YB0B5p4jzm3Xo0OIlBATcARjN7zOakovstdxfp/tAXDp9z4LUfa9dnGdNXHdBnjM6obQB2n4gsOQix+gFsDqoy2WjA/QABNwD7z9iL69FnWGAIRLs09JZtR2144P2iWuf28ToGTQyB3aN3alH797jugBVWe+RsA7q1lgmeWEQ6R87ZCwSaQmsAKKXJAHhjlFfvswb2kxIC2qTIoFWJ9K3wQHaBE/O/LMH97xeh3Fw7CKZ1cuCNnk7NIEF3yaiUmVh8vbYi4M/xF62KQbpInb1r9liFVtbtKKWJ/vTp71svmAC04aDVXfJCRNKttThfCHdQCnz4uxETXyzAXzstvNdIg+Sgl1zW76d/VmD/mcjZCoh1G7DmgLWNQBMBMMCfPv01ALwJQHYXzSo2sqI7AWiIDsCfN5vx2d9GtwUzguWhv7xfp4viwQ+LsT1Cyn6L1d9TUOpKcrEQygsQUuVyS0BXAKcuOHP87C+sdG2ABmDdfv6vfk1OXHAGvOpusZFFsbFuvH2FhcUDHxTh4xVGsGF2CfQUaUQgAGTlOwOaGeizAaCUKgD05GvbeCgC9J98xKBleGPexY5M6vlor9zMIrswsMd07pb6LAt88qcR8z4vCasRSIqVhD070V82HbYJCSv0qZybPuHPCqAvuCSEOqzeY0n1o7+w0rWVHKQBBgB5m9X465bAinf+ts1zf6v2WrDtaHi3A2LNC1i52+IuMaiXr/35YwB4lxoUKD6Z62ztR39hRaz7QU94G4P/6xZzwDT7sguc+Pegd5mpeWFUCALE+3c/mm1PoxRlAs0+bwP8MQC8zoaLpa6TlIovAahbA9z/A8DgLkqoFZ7/HCUVLN7+Weh98h6WAs9/W+q1VFjbpuHddvVoI7pYNQAAS8EUlbsCphTskwGoTDrg1SHbdtTq2esUYUglpE7gSkNBKSd1ovKE+HmzGX8KHBV6y4e/l2OXFzLiAKcy1LlleA1vmyZS6DXijP3YecIhFFgxyNfEIF/NcHsAvAEHq/bYRKf/176ZNGxVbFbssODPnWbY7BTpqTIM6qxEv/aKgEapPTxOj/xSFpsOW916+ykFnv6qBC6W4lofQ4MpBT76w4jP//E+2GdMBGgEVAmErD/gt5hO2Fi1xxw7KoNX1i0BQFsAQiuEOvhqAISWGPadJ8RXAahrq/B8hf7aZcFTiy/pO+w6acfS9SY0T5TiqSmxAVOw1SgJ3rkvDmYbRUnl0ZzVQZFX7MSGQzas3mupPrJjWeCZr0qx7agNsyfqvdL+yyl0YcG3pdh1wnuHnkZJIkIiDOD8AGI0ANuO2dMBOME/fzMRagNgNLPHbQ7axce+wk44HEFOF8V7v5bztmUXOPHIR0X45elkxOsCtxRQKwjUikvHXmkpUmR2VuLhcTp8vMKIr9dUVK8QVuywYN1+K67po8boDFWdHHqjhcXBLAd+2WLGuv1Wt4FGl8MQYPZEfcQsvcV6EmC2sRqzjR5RK0hHnuZMAIu87SsgBuDQOYdQ9ZKIJhwOwF82m916wM02ioNn7RjaNfjS3So5wSPjdOjWWo75i0qqKwObbRQ/bjThx40mSBhwCUMEcDqB/FLhsfdMk2NkLxXSU2VI0ktQYWWRU+RCTqETDhcwsKMCHSJIIahjc8642RyiC1/B4XP2gox0hZAB8BqvDQClNAEA7zJ/zV5z+FUffSQ5VuJ3Jtxfuyz4ZIURF4pcGNFLiccmePdVyy124YM/jB6v88Z7H0iu7K7Ec9NiMW9RSR1fgYsFcorcH9m1SJRi3k16niKcErRvFjkT/nLkUs4JvOdU5OQpeMu6AzaZgIR9B0ppHCHEq6xcX9ZiAyGg8/fvIbvozv/9Df9966dyzF9UgrMXnXC4KFbssGDyKwXY5yHZJSvfiYc/KvJKljolLvRRaiN6qXglvTwxpIsS385NFG0FXrHGA6zZYwlIYpAvBoB3aeFw4WxBqSvJh34igs5+5P9//k8FvuFJbb1Y6sLd/y3ES0tLkVN46WvJUuBglh2v/1iGqa8V4FSud2G3SfrwhKn+Z0yMT1GRHZvL8OpdBl6JcbEgVgOQX+pKdrFUKPfG622ALz4A3k6zuKolopMA7+zj+f++M3Z88Du/8w7gvOjLNpmxbJMZcTEMVAqCwjLWr/1luHakLZOkaNtUhhM5Do/XSiUEL91hgFxKkFPkwtFsBwxaBl1aygImMRYKulWGggc6KSoUnM13nW2TIuULvw+sAahMMuAtQLDhoFV0pVYYAnRs4Zvl33zY5vVLUmxkAc9bfUHOF7qQlhKcSDmrneL37Was3G3F6TwHmsZL8fD1uuqaCN3byL0yAMN7KtEiUYrft5vx3Del1eXB1QqCURkq3DEyBk3DsJXxldjKZLCzFyNLu9AbNh+xOtuk8B6p9qGUygkhHp0b3m4BegPgdUuv3mNp6mUfEUOrZKnPjrZWyaELXV2xI7AJOlWs2mPBdQvy8fJ3Zdh5woZiI4uDWXY8/FFRtaOvTRPvfs6x/dQorWDx2g9l1ZMf4E4Qftpkxk0vXcSmQ+I4YxfrNmDlHmsTgSYVBDJ2L8dbA8CfAERRdjzHIeSMiFg6+RGGenUvVcg82kvXmwL+RVq1x4LHPy9BUXndBZvZRvHJCm7J4o04SqyWQe90OZasM8EkkAFutlE89VVp9dFiJCNWQZjDZ+1tKYXQvtSrbYC3BoA3Aaiw3HWcpQGpMBxSfN3/A1z1nGduiYVU4v3KgWG4cmP/uTYGC6bF4t3/xOP5Ww148Dod+ndQQCbQl9VO8einxbzCGv6ydL3JbfuKnWacvehEh+YyDPRQJOSmIRpQCvy8xX2fZSZ+cZBIQ6wrAJaCKTay9UoM8nZdy5sAtPO43f0bEKH4cwIAcEUxr+uvwk+b3C/RZRKC8Zlq3HV1jGBE3+0jtCg3s1i8ugJL1pnqKOeeyXPizrcL8eJtBr/HWxNPAhwsCyz824jnphnw9vQ4/LrVjO3H7DiV60BROQsJA8TrJBjRS4k7R8Rg2SYT72qiJmoFCWhEY7BolSyFTs3UEU0VA7tP2Y0jevLuzgNjACil6QB49xord1tElwAkkxCkp/o/oaZeqXVrAJrGSfDW9DivnqFTM5gxVocbBmgw69NinLxQ2/mWXeDE7W8WYEAnJfq2k8OglYBSCqudwuqg6NNO4fW2ZGAnBfaddu8TWrHDgiu7qzCsmxITMjWYkKnhve5CsQsfr/Ds5RzYSSm4yokkCOGiQjeKxGdRk392W/QCBiCZUppGCDnl7n5vVgBClsSx7bj4EoDSU6WQeyGXJUTLJOGvRVqKFB8/lACD1revXmqCBF/MSsBDHxbViUpjKbDpkJXXocYwwMu3G7wK4BnTR42P/3Cvx0cpsOCbUsSo4wQTki4Uu/DIR0W1iosKMbxH8MOZA0X3NuI0AFuP2NrBfXhPejIAACAASURBVGKQWwPgzZvKawBMNnrcaqeiqwHgjwPwclQ8JwgGLYO37433efJXoVYQvHF3nE9adSzLRSa6vFi5psRJ0MeLaL1yM4t73y3Eo58W45ctZmw/ZsPeU3b8udOC574pxcQXLnoV0KSUEwzuIiIDIFJpeLON1VjqUTHImxUArwPwcJZdlAlA/jgAa2J3UhTz7H0fuUFXb6HJWC2D+ZNjcf/7RV7fk1/qwt5TNvTmjwuvxZg+aq+0+CgF1u23Yt1+/7+IrZPDp7XgD51byiGVEJ+yGyOFI9n2i73aKjrwNHmUCnf7uaKUGgDwdYy1+wSrlEQ09VWiOZDlgOOyl6RtUxmu6ROYxVC/Dgr06+Dbr3avh719FaFMf02NF5fSslJO0C5VXGOuYv1+m9BXrTOllLeCdxWe1qsDha5Zf8jayvPQIgu1gqB1PQN6lvOo6F7XXxVQhZtxA3wzJrnF3gls6tWh+yKXepH0FGmI9Thw1T6LUDIeAdDP3b2eDADvHsLFIjuv2CUUhRSxdGhev8KQR7IdWLGzrgEY1jWw2dCZPnrP1QrvfqgLXhqKQLD/jB2lXjgKIwmxBgTlFbuasCwuCDS79QP4ZQDcVCeJaDr5GP9fk9N5Tjz6SXEd1VulnCA1IbAx7xolQRMv4+jlMoIxfb0zQH/vCp1uq91J8d5y4eSpSKSbSFcAAHCuwHlWoMmtARBcD1NKZQAy+NrcVCeJaPwJqCk2svh2XQW+WWuCnSezr2Yl3ECSqGeQLVQMGtwR4LCuSkwfHeNVzMHZi0585yEasPbzJWiTIkWKQQKFjMDhojBZKc5edOLUBWcdPwgfv2wxIy1FhilX8McT1CS/1AWbg4a1SlOVSEy4axb4w+bDVkerZN7EoH7uEoPc/bZ7AeDdjK7eaxHd8h8AOvuwAjhX4MRnfxnxzy6rVy97oBHaAEgYYOIgDW4boUWiTuLVlqagzIWZHxfDYnf/c7RuIsX1/dUY1k2J5m4motVOseuEDSt2WrBmr9VtvP+bP5XhQrETD4zV1dENKDezWLHDguVbzTh2nguC6t5ajremxyHWz+PU+tK9jRx5IVwpBYqVe6xJU67gNQAqAN0B7OBrdGcAeI8QKIXx8Dm76EqA6zUMmnp5TJdb7MK01wtRYfG8hy0sD87X4mJZ3WfrNQzevS8ObVJkeO7bUqzeY4FKQTCgoxJX9VBicBdlnUm2/ZgNC74pdftVa5kkxUPX6zC0q9IrQRClnCCzsxKZnZW4eL0LC/+uwE+bTIJBRkvWmfDPbguG91ChZbIUZivFgSw7thyx1TEe+87Y8czXpXjnPrfO66DRrbU8pFulQHHwrD2dUhgJQQxPcyb8MAC8e4eicvY4y/JrA0QynVvKvFa7WbnH4tXkB7ivYU6hK6B+AJOVIo/HYff8rQZ0aSXHE4tKsHK3pfraVXssWLXHAqWcoHe6Ai2TJGBZ7njwaLb73P6bhmjwyA06v6Mjk2IlmHeTHmP6qjBnYQkKyvgNTVE5i+/+9W4LsvGQFTtP2CCgeRdUxHoSwLKQFJvYE/Fahq8+YCaA//Ld526dxbsC2HXSXg+pi/DhiwPQ4mOtvHUHAvvF2HS47rajX3sFMjspcOy8Q/ALZbVTbDpkxbdrTVi63uR28kslBPMnx2LOjfp6hUZX0a21HF/NTghI4hIA/LgxOJoInmiXKhOtxNmek3Yhr+sgoXt4DQCltA0A3iqkK/dY9L4PLfx08CGX39eIvt+2WQJa7pqvYu+1/Th3zE+b6z8xGAK8dpcB4zMDG8mdqJfg04cTAiK3vuWI9wpMgUTCAF3CVDCmvqzcY9EJNDWhlPLGCgitAISODpzbj1rb+TyyCKCdDxmAfdopfArsOZHjwJ87ArMK2HbMhq084boZ6dxLueVw/RNWZlynC1rdAYWMy2lI9lNyvQqTlYUrkFbVB8QaD7DlkLUdACFnD++cFjIAvMt/s42eMNmo5zOdCEOjJF47AAEg2SDxOWz27Z/LPOrne6K0gsWLS0rr/LuE4b6uAHCxtH7BNVf3VuG24cEtzRWvY/DWPXE+iadcTo828nrdXx/EGg9gslGt1S6YGMQ7p31aARzNtrs5mY5c2jb13gFYxX1jdD6p25ZUsJj1SbHf0W9mG8WchcW8RoSlqPYJpNWjrLZOzeCxCaHZwXVoLsOUYf59K7q0kuPF28InNdG1lSzsxUv95eh5e75AE++crvM2UUp1ADrxXbx2v1WUOZO+LP+r6N1WjqVzE7H1qA0yCYFMyomJlJpY7Dlpx7oDdevinbzgwK1vFOCt6XFo29T7Z+YUufDop8WCaryUAvtO29GnnQJP3RyLhz8q9uv48eZhGsTFhO58/Y6RWizbJKwbeDlpKVJMHx2Dq3qofDbYgUSnZtC6idTrOg6RxNr9NmmPNrynJ10opXpCSFnNf+T7nAwEwLteXrffJjr9f4ATAfGHlklStEyqe+/koRpk5TvxxKKS6gCWKnKKXJj6WiEmDOIkwdxNuAoLi69Wm/DN2gqPQTrfrDWhTzuutt7PTyfhp00mfLvW5LZWX01kEoJJg0O7e9OpGYztp/aoR5gcK8HMG3S4qmdgk6rqQ7fWcnEagL2WVjPH8foCGXDSfn/X/EchFZE6uFh64UKRU3QS4IB/KwBPtEqW4rNHEvDA+0XYf1lZMIeLYul6E37YYEKPNAX6d1CgiUGC+BgGJRUsLpa5sOO4DTuP271Wzd14yIotR2wY0FEBtYJg6pVa3DxMi1V7LHhvebnHjMDMzoqwRNdd08e9AWjbVIYPZ8SHdGXiDT3ayPFzAE5cQk1OkaspyyKXYXhP8TLhrwHILnBlARClAeD7igcCtYLgzXviMOmli7wSWS4W2HXChl0nPItweIJS4IUlpVj2ZFK10IaE4Zx6gzor8fyS0urgID48Kf0Gi04tZDBoGd7fj1RC8Mbdhoib/IB4HYEAcL7QmdUiSSpkAGpR6zdPKZUC6MPX6abDVvGth8CFz+rUwXvB4mIY3D2KL/oy8OSVuPDjxrpfU42S4IVbY90G4XQN09k2IcLPHtpV4TbnIJw0T5AG9b0JJpuOWIUiwPpVzvFqLv8JuwPgPSNatccqugKgALf3DfZx8qjeoXNaCRUMkUoI7rqa3xARErxVkDe0EHh2z7TIFZVascMiSplwAFi9x5oo0KQBN8erudwACFUAMh06a28bgLGFnMJyFz7/O7jRy7FaBjEq378WMglBaryk+ozfGzI7CQfw9O+g4M0OVMoIFGEs2CkklKrXROYX9ki2Ay8urRuPIRb2n7GnUwohx0utOX65aeY1AMUm9piLBV+SgSj4eIURXVrJ0d9Hrb1gIJcSXDdAjWv6qNClpRySyjlQUObCknUmLFlnEnQMThqiwbBuwgZAISNI0Elw8bKTgXBX6xUyPv5UTg42xUYWj31aHJFj8xYXC2mpiT1g0DJ89QEzAbxb9T+Xm2DeaCE3SQaigKXA/C9Lgib0YHNQGL3IHmxikODrOYmYN0mP7q0vTX6Ai/R76Hodvp6TyLtcH9Vb5VUQD99Uu7zqUKgx2/h/N5FWkdfpopj7RfDek1Cy95S9TKCpVmJQ9StIKW0JoBnfHW6SDERDaQWLOQtLglKsMq/E5TFxRS4l+O+9cR7LfqelSPH1nERMGqKBSs5tEZ6YrMcLtxlqGQw+7E7K6223OWhY97MFPNoGACc9frnEWjh5++fygJzYRAIr91iEPNNNK+c6gNorAKEEINfWIzZR7v8v59BZO95cFvjFjDfLxVuHa70uSaZWEDx+ox4b30zB8meTMSFT45WTcdcJ4biCM/nh+9qeyeN/dnaBE9+uqwjxaPj5fZvZY8CSmNjoPjGoeqXP8P1jTax2erLCwop+BVDFjxtN+GN7YPP301JkbotgalUMbvFCF68+OF3Ubb2+PSe9qx0QaOxOioNnhZ/9zq/l+GZtRdBPatxx+JwDL34ntGIWJyYrjbHZqVBZsOqPvccVwPEcp1BygWh56btSwbh7f5AwwPv3xwumkd4zShvUM2W7g+KZr0pxIEt4ov17MDx177Yfs7n1QVSVN5v6WgH+2mUJeWWeYiOLxz4r5hV8FTvHc5x5Ak3Vc10KAJTSGABd+a5cu88SmZEa9cBqp5izsARfzU6A1o/jOz7SU2X4fFYCDp11YP0BK47nOFBuZnFFNyVu4RdrrDcsBdbss+CD34weHWr7z9hx9qIz5PEAy7d6F0577LwD8xeV4F2DBFOGaTBpiCYgSkXucLoo5n5ejPwG4PTjY91+q6Qrf83DrlWJQQQAKKUjAPzDd+X1Cy7mnC90pgZxnGFjcBcl3poeFzEJKN5CKbB2vxUf/VHuU8LKuIFqPHVzbBBHVpuj2Q5Me73Ar+V9l1ZyfPpQfFCPMF/7ocxrnUIx0jxBev6XZ5J4HfsARhJCVlZ9/niX/yxL8xvq5AeADQet+PRPcUkcOl0Uj35ajNmfFfucrfbbVnNAtz6eeOfXcr/39gez7FizL3jblt+2mRv05AeA7EJnM5ZFrkBzJnDJB8DrADxf6DodjIFFEp/9ZcT6A+KpC//7Novf43WxwIJvSkMS5PLHdgu2H6vfkVqRMThL80NnHXipgTn9hLhQ5MwSaOIMAKVUAqAv3xVbhJMKGgwsBZ7+qjTiglKEyKrnOI9kO7Dgm9KgCm4eOmvHCwEIpW0VBH9FsZHF7Abq9ONjs/Ac7k8plTIAugDgDTFbs8+aELSRRRAVFi780+yjHHg4aOajYjEff++y4KM/grP1OV/oxKOfltR7gqkVBBntAhu67XRxsmveiqg0BFbvFZzDWgBdGQhrhjv3n3W0Cc6wIo/TeU48tbgkLFLUvjC0m7JeFY6r+OxvI55YVBLQ7cCeU3bc/mahYHEQXxifqQl4AtMby8qx51R44iHCReUcFlQKlkJg+e9w4bzdTlsFa2CRyLr9VnyxsgJ3jgyuam59SNRLMLKXCn/trH8w09+7LMgpcuG5abH1Oh60Oym+XWvCB7+Xw+UmtLd3WzlG9lIhQc8V4DyR48C6A9Y6QqrJBgnuujqwf4PlW834YUPDdvrxYbdTpcNFs2US0pynuY8UQDe+G602Ki73eID48PdydGgmC5uCjjfMGKvD5sO2OvH9GiWpVghKjZfAZKXYfsyGpf+aBNWKD2bZMfnlAkwaosG0qzQ+VTtmKWdEPvitHBfcSJIp5QTP3hKLEb3qljF/ggV2HrdhzX4rTl5wIDVegvvG6AIaOHXorB0vf984nH582B0wyfj/rJ0JpbQQQPzlLWUmuvfKubk9gj24SESnZvDV7AQ0S4jcGKjD5xx45fsyXChyon0zGUb3UeGqHireslblZhbzvijhLThSE6mEYGBHBa7orkTvtgo0jZfUyUEw2ygOnbVj61Eb/tpp8Zg5J5MQvD8jHr3bhkeRqNjIYuprBY1q3385619POaBVEr5AvwJCKXWCRwXYZKOHhjyW2zn4w4tM0lNl+GJWgmjrxF2O00Ux85NibD7s/dGcUk6QpJdAoyRwuIAyE+vz/n72RD0mDw1PLRmni+Le94qwt5Ht+y9n85spJxRyks7TZGMg4CBQyYmQrFCj4ESOA88F+bgslEglBC/d7psAp9VOca7AiSPZDpy84PB58icbJJg4KLD1B33hjWXljX7yA4BcToROAlgGAO/miCFINGiZouANK/L5Z7cFX6+JjHTVQBCjYnBTCL/GAzoowlbe65ctjdPpdznJemk+AYTKLJUyALIEGskVPVQngjMs8fDe8vJ6R7RFEhltQ+fcDJfm38EsO15txE6/mozIUAqlBAPAaQbAXqHWSYPV4giPCyIuFpi3qMRj4Q2xoAyhTyMcjreichazg6T8JEZuGOB2C3aAAfCvUGvbFFmPGBXT6E1paQWXMy5mocgqzheGzqbvOG5zGxcQaBwuitkLi+uIojZWDDGkuFWy1J2Y72oGwG8AeNe4hED72AT9nqCMTmQcFblUdBVbPBwFViGTEEweqsEXsxLw7+sp2PVeU6x9tQn+d388hnYVViauSVE5i02HQ5do9caP5dh3Our0q2LujbH7AQj9scwA/mEqq4UuE+pkTF9VrwQ9czEYAxQbf2y3iFo3zumiWOtFiq1OzWDhzHjMnqhHt9ZyaJSk+t8HdFTgrelxmD3RuzLj3gqC1JdfNpt5qyY1VpINkrzhPVW8Vb4qWUoIKa/y0rwOgHd9Swh0X85KOCXU3th4++dy7AqTvl592XXSjjKT5zX501Ni0bml+8CdyUM1mJDp+Yhv48G6EYuB5kCWHa/+0Oh3qtUQAvrlo4k54CoB8eEC8BZQqQdACNkL4EuhDpvESQc8NkEn6CtoTIhZRmqDF7qAPdPkuKK7d0v8B8bqoFa4dyo6XLROCfVAUlTOYvZnUadfTZ6crP83Uc/0dnPJQkLIIaC2KOgcQFA9BDcP0w4c2kUV9QdAvEKSJUbPX+IpPugX6jUMJg3xHFcgVBqsvlQ5/QKRfdhQGNFLvXvcQI1Qhi8AZAN4vOp/qv8yhJACANMgnDooe2N6bPNmCZLsgIxU5IhRSnqAhwSnFolSDPPSwVfFtCu1blcB4waq0bapd/UQfCXq9KtNy0Tp+ZfviG0NntD+SpwAphJCqr3ZtUwzIWQ1gLlCD2AISfhuXpJZKSeh8exEOGIrJnFtXzWmj44R1BO482qtz1oDsVoG919bt2xEXAyDeZP0eHJycERIo06/2mgUxLRkbqLFTdQfAMwihNTayvOabkrpFwBuF+rldL5z040vXBSqJNSokEoIPpwRj15hynbzh7MXnVi63oS1+6woKHNBWnnk98g4nd9lzv/ZzWkVqhUEfdopMLSrMmgViQ9k2TH9naLovr8SQkB/ejJpa4sk6QA3l31FCLm1zr18V1JKlQA2AMgQ6m3ZJsu6l5aWDPN1sA2RuBgGX89ORLKh/nJdoabMxEIlJ2GvIOwtheUuTH0tMKpDDYUXbjWsG91HNczNJXsAZBJC6qjI8C74CCFWABMAFAj1OCFTNXh0hnKnj2NtkBQbWcz8pDjsVXj9Qa9hRDP5nS6KeV+URCd/DUb2Vu0a3Uc12M0l+QCu45v8gIABAABCyDkA4wEIeVkkz98Wl9YqSXrO69E2YI6dbxiRgpHMaz+UYbdIYzCCQVqKLOul2wxtIez0cwC4iRByXqgPty4fQshGcMeD/O2A4dvHE61qBRP1xgBYscPS4ItNhIvft5mxbFPU91yFRkFMX81OdBLCr+hdyUOEkPXu+vHo8yWEvANgoVC7Qk7aLZ2XeICQaKQgALy5rKzB1JiPFA5k2fHiUnEduQYTQkC/eTzxgEKGtm4u+5IQ8pGnvrw99JkBYLtQY2q8pP8zUwxuLU1jwcUCsxeWIKcouk8NBMVGFnOi6b21eOWOuPXNE6X93VyyFcC93vTllQGodAqOA3BB6Jqx/VVDxvRV7/Cmv4ZOmYmrPtMQ0ofDidNF8fjn0fTemlw/QL19eE/lEDeX5AGYSAjxahnqddgHISQXwI0QdgoyC6bGprduIs3yts+GTNQpWH+iTr/atE2Rnnnq5tgOEJ63DgCTCCE53vbpU9wXIWQzgEeE2xH77dwkVqNkyn3pt6Hyx/aoU9Bfok6/2mgUpGLx7ESWENQNu7zEA4SQDb7063OWBiHkQwCfCrXLJWjz/bzEI4QghFowkUvUKeg7UadfbRgC9vsnE48oZCTNzWUfEEIE56Vg336O6QFwkYK8NImT9HvxNkM0fRicU3DuFyWiTB8OB1GnX11evyfu3yaxUnfiHpsBzPSnb78MACHEAWASAMG9xtW9VUNuGKja7E//DY2qSMGoU9A9UadfXW7I1Gwb1lU51M0luQBuJIT45SzxO1GbEJIHYCIE9AQBMPMnG7q1byZzJ0vcaIg6BT0TdfrVJj1Vdnr+TfpOEMjZAWAFMI4QIng654l6KTUQQrYCmC7cDu2iWQlMVFmYI+oUFCbq9KuNXi0p/Wp2ooQQxLi5bAYhRDA+xxvqLdVCCFkM4AOhdrmMtP5xftJJhhEUGmlUvLmsTLSagsEi6vSrDUPAfvdEwgmZBC3dXPYOIUQwQtfrZ9W3g0oeASAYCZigZ3q/cofBp+OJhoqLhWg1BYNBUXnU6Xc5b0+P25Col7hz+rnN0fGFgBiASqfgTeD0xni5qodq6OShmi2BeJ7YiToFOaJOv7rcOFizdVAXt5F+5wCM99fpdzkBTQSnlPYEZ5149aIphWna6xdzj2Q73SUxNBrG9lNj1nh3cR0Nm/8tL4/u+2vQpZX8+JePJqRCWM7bCmAwISRgOhwBV4KglE4F8JVQu4tF9tVP5qlLjGx8oJ8dpfEQo2LQqQUnNlpY7sKpXHGXsdRrmJK/X0w2yiSkhZvL7iCELArkcwOu10wI+RrAO0LtEgbNv5ubdDbqFIxSH9o2leKDGfH4YEY87hjpzlEe+TAMXN/PSzzlYfK/EejJDwTBAFTyGIC1Qo3xOqbX29Pjok7BCGPiIA0evE6HB6/TIUYVntLejZH3/xO/MUEvEdTfBLAawLxgPDsof2VCiBNckNBpoWsGdVYOveUKbTRSMIIYnaHC7SO0uH2EFlqVOHQCxc7tw2M29e2gcBfpdxbA5Mo5FXCCZuYJIcXgNAWFIl/IrPG6nj3ayI8EawxRokQy3VrJjz14fUxPN5dYwHn8C4M1hqCu8wgh+wDcBuHCoqpPHo7XGbRMUTDHESVKpGGIYYo/m5mghsCJGbg5cwchZHcwxxH0jR4hZBmAN4TaJQxJ/W5e0jkJA1G7cTVKAkk9fptyGQl4IQ2VvH5jqi9yKfFYPBQAJAyqS5A3BiQMnD88kXROwqC5m8teIYR8F+yxSIP9gErmAugCYDRfY7yO6fne/fHr7v9f0bAQjafepKVIMT5Tg37tFWiWKIFMQkApUFLB4txFJ/49aMXPm81uS2MP6aLE2P5qZKTLoVNzM9Vkpdh72o4VO8z4Z5cFrJtYoeE9VejXnqv3t2yTCUezHWjdRIrbh2uR2VlZXZTz7EUn/tllweLVFTDb6nZ461VaNE+UonnipddhxlhdnWvLzSzeW35J62VoVyUGdeZqCf62zYz9Z+xonijF1Cs0GNJViUS9BIQAr/9YVqeEWlqKFJOHajGgowJNDNx1difFiRwn1u634Lv1Jt6xNgQ+ejB+s0HLuAv2WQngqVCMJSQGgBDCUkpvAScsyhsE1K+9Ytj0a2I2frLC6K6yadiRSwnm3KjH9QPUYC77aBHCVQmKi5GjR5ocqQkSvMQT465RErx8RxwyeYp1apQEmZ0UyOykwKQhGsz6pBilFfxGpFtrGcZncivIrUet6NJKjkfH6yCX1h5YyyQp7hkdgyFdlZj+bhEqLLX7G9JViZ5ptUubjcpQ1XlefomrlgHo1OLS8/efsaNFkhTzJumhlNd+fs3/JwS4b0wM7hxRt0ahXErQuaUMnVvKMHmoBo9+WoKDWQ0rb+KOkdpNvdoq3E3+MwBuJoSE5Jg8VCsAEEJKKKXXgVMs5Q1/u3d0TMbuE7bDO0/YO4VqXL4glRC8/0DtOoD7ztix5YgNhWUuKOUE7VJlGNhJgQQdf62GqlqCnVtyfThcFCt3W3Ewyw6WAl1ayTCylwpyKUH31nJ8/GA8bnuz0GPVoYGdlLi+vxpWB8XyrWYczXbA4aLo1lqOMX3UYBigfTMZHro+po5R+veAFWfynBjaVYl4HTcr/9pp4V0BCNE7nXuOw0Xxx3YLDp/jJm56UxkqrJf6eeh6HW696lIJ8p0nbNhw0AazjUXLJCmu6aNGXAyDBJ0EH86Ix51vF+JEjsPtzy4WurWWH50xVtfLzSUV4Kr4hMwnFjIDAACEkCOU0tsBLAN/FKLywxkJ+lFP5RUWlbMJoRybN9x3TUz15DdZKeYtKsGmQ9Y61xECdGslRxJPrcBpV2mqJ3+xkcUD7xfheI0X/IcNwOJVFXj/gXgk6iVo21SGh6/X4dUf3GfLjRugxpFsB2Z+XFyrdNZPm8xYf8CK1++KAyHAdf3V+PB3I0pqrCoWr64AALRpkoB4HTe2//1Wjtxi7z9CY/upcSrXiUc+KsIFgfu6tpJj6pXc5GdZYMG3pfh9W+1Q4IV/V+DVOw3o214BtYLghVtjcctrhXC6xL0dSNAxBQsfSdADqLu04qAA7iSEHAzhsILvBLwcQsjPAF4WamcYpC6bn5QrkwYm2SFQxGoZTLmCC9F2scDMj4t4Jz8AUMqtDFburl2OTSYhmDLs0tfviUUltSZ/FadynXh8YQlo5Ts/PlON5Fj3hUdNVlpn8lexdp8Vv241V4+hym8QSFgWePzzYsHJDwDTrtJWb5u+XFVRZ/ID3Crjsc+KUVjO9dO2qQwjeioDPt5QIpUwju+eSLrAMEhxc9kLhJAfQjaoSsLlI34KwO9CjTFqpusHD8RFVObgqN6qai/9b9vMfuX09+2gQFwM9yvfdcKGHceFxUKrthYAt20Y20/otIhj1V6L26KZNSdbeqrMl2F7xe5TNpzJEz7IUckJhnblDI/VTvHFSqPgtSYrxVerLzkNxw10/7NHOp89Er8lVsN0d3PJ3wAWhGo8NQmLASCEsACmADgsdE2vtoqh942JiZhw4Z419v1/7uAttOqRri0vTbw1+/hXDzVZs+/Sc3qly91cCRw+636ffCb/0uTUawL/Z99/xv3zO7aQQSrhDOj24zaYrO6X9Gv3X/rZu7WS13FsioW7RsVs7NpK5s7pdxxcpF9YcmPCdkpMCDGCixQU3NzeMyqmT0Y7xaHQjUqY1smXJu/R8/45pWoes3nj2Dqec2nStk52764pc+OgAwBzjQkXjMnkKae/ecKl8fNtey7nQpGr2gkplxE0jXe/BYpE+rZXHLx/TIw7YQ8juEi/sIlFhjXjgxByDMCtgGANAeWHU9z9QAAAE1FJREFUM+ITkg2SvBAOi5eYyth4F4s6x2i+9gEApSbPfZRWXJpUsR6+2qy7gIEQ4OmUIkZ9afxCx5o1oRQoMV66LhirlmCSGCu5+P798QkAhBwuVZF+Yf3Ahf23SghZDuB5oXaGIPm7uYmFCql3tc5CAQnValScq97AUfPnF9EhgFTCOL6bm5jHMGji5rJnKqNkw0rYDUAlCwD8KNQYo2a6fDYzIayZg1Vn4BIGfqfKGi2X3mKD1vOSNq7GNSVerBgimZoxBHExnn92QlAdyQh4t2KKFL6YFb9Vr2G6ubnkVwAvhmo87ogIA0AIoQDuBCC4HOrUQnbFg2N1Yas2VFNxpmML/7zoWRcv9dHJiz5qPufkBVGnSuBsvm8/e8skaXUegcVORVNufeZ4/fpOLWSD3VxyFMBtlY7wsBMRBgCo5RQUdIjcPlI7YEgX5b7QjeoSO2vU97umj1Ash3v2nrp0dDgqQ+VxKzG6Rjju9mPB3wE5agTbBDox6ch5R7UIaka6XDBSsorRNX7Hu0/aRREINKCD8sDUKzQD3FxSDs7pFzEa6BFjAACAEHIcnLqwkLmXvTk9rmmKQZobwmEB4EJjq5ax12So68TOe8Ouk7bqQJn2zWRuz/ZH9lKhW2vuGRY7xW88QTOBpuZJQs3ldyCwOyj+3sUd7UklBDNvEBZDbRonqRUw9b0Iiqkk66X57/7HkARA6MVgAUwhhESU/kVEGQAAIIT8A+AZoXaGIPG7+YmFcinx7zDeT8w2ig9+54JXGAZ45754jM5Q1UkIArhjtuv7q6vDXqtgWeDjFZcCYOZN0mNEr7qriSu7K/HMLbHV///ZX0aUhWAPfKrGNmPyUA2axkkgD+BKYNHKiupVwKgMFWbeoINMUrv/tBQp/vdAfPXyf9sxGzYd9hwzEU7kcmL94anEQoYhyW4ue5IQ8kfIBuUlIc0F8IGXAHQDV4C0DhoF6fr17MSNk16+GNLMwR82mNChuQzjBqihURK8cJsBD4/TYe8pO0oqWKgVBAYtgw7N5YjXMVi2qe6X6/dtZvTvoMDoDBXkMoJX7jDg7qu1OHjWAVCgU0sZ2tWI1Ft/wIrFqypC8vOt2mPBPaO4LL3hPVUY3rO2ccovceGap/P97v/sRSde+6EM82+OBUOAqVdqMSpDhR3H7aiwsGiVLEWvtopqDYOcIheeXlxaHRIdqXz+SMJOjYK4exd/BvBKqMbjCxFpAAghlFJ6F4COALryXZPWVDro0fG69W/+VO5OTy3gvLCkFLlFLtwxUgulnCBRL+H9igNAhYX/zX16MVcufOqVGkglBG2bytC2aW3HGEuBXzab8doPZW41AQLJ6TwnXvyuFA9fr6vWJwg0v2wxw2SjmHujHrFaLutvNE/q8b7Tdsz7oqQ6JyBSefxG3fqOzWXu3sEjAG6vdHRHHBF90kwpbQVgBwChzEDHrE9LDq3fb+kRulFxJOgkGNlbid5tFUiJk0CrZFBqYlFsdOF4jgMbD9mw/4z7fIEWiVKMylChV1vOKUYIUGRkceCMHX/vsniMmOvTToHOleHFa/dZcfai8EkBw6A6DfdUrhMbDgovq6USgk4tZGiRJIVSTqCtVOsxWSl+2HBpVdMzTY7ubbgt78ZDNpy84H2EZIyKweg+nKBJarwESjlBSQWLU7lOrNtvxabDVrdf/uRYSbWj8HQuJ8ASajI7Kfe/+5+4DhDe95cA6EMIidgK2RFtAACAUjocwF8AeN3GFCge/3y+6dxFlzt5pShRAkpqvOTCL88kKxgCoQI3LIBrCSF/hnJcvhLxBgAAKKVzALwq1G6102NXzctrbrVTcaeNCZBskGDSYC4V+eQFB/7cGVL/Z5TLUMiJdeWLTc5olKSjm8tmE0IEtTAjhYg7BeCDEPIagCVC7Uo5af/VnMQ9IRxSSEnUS6r1+od1E3dufENg0ayEnR4m/7dimPyASAxAJXcB2CXU2CZZmjlvkl6wRHmUKIHgqSmGde1SZe48/vsA3BOq8dQX0RgAQogFwAQABULXTBysGTQqQxmwyqlRotTkqu6q3eMGqNxN/mJwkX6iKXksGgMAAISQs+DChYXczZIXbotLa5EkPRfCYUVpBDRPkJ5/5a7YVhA+OncCmEgIESyHF4mIygAAACFkI4A5gu2AYenjSRa1gon8+NEookAhI6al8xKNDCFxbi57jBAiWBA3UonIQCBPEEL+SyntCi6DsA4KOdovnZe49foF+f0ojayTjgSdBG1SuEy33GIXTuQ4ghLokxInQesmUqgVDExWFjmFLpwrqF9GIUOA1k2kaJYgBUuB7AInsvL96zPZIEGzBCkMGgZmO4usPKdbQdFwQQjokrmJ+5Vy4i7J52tCyDshG1QAEaUBqOQBcFGCvJJLqfGS/k9N0a977puyYSEdFQCtisFvzyYB4IJU7vpvIVLjJXh4nB5XdFfWyh/IL3Xhs7+M+HmzuV4hrwk6CUb0UqJHGy44J1FfN2wiv8SFb9eZsHS9yW123YRMNWZcxyXrfPiHEd//a8LwHir859oYtLpMmux0Hhfe607gtAqphOCGgWpMHqqp0w/AyaR98qfRK73EULHgFsP6lknSYW4u2QPg3hANJ+CIbgtQBSHECmAcAMHMwOv7a4aM6afZEbpRcRAAOjUDnZqBRknQu60c3z6eiKt6KOskDyXHSjB/ciwWTDXUqZTjC73T5Xhsgh7De6p4Jz/AfXVn3qDDu/+Jg0ouvDCSy0j1+OVSgkfH6/HqXQbeSdumiRTv3R+H3m3dZ0catAwWPhKPuZP0vP0AnFrx63fHYc6Net4kq1Azopdq15h+Kne5/fkArheT0+9yxLwCACHkAqV0IoC14A/HZBbcok8/fNZ29kyes2WIhweAMwQv3WGASsFgyToT/txpQbHRhSS9BNf2U2PcQK7E2Ji+KlwocuKjFcJy2Z5wuCj2nLRj10k79p22I7/EBZuTIkkvwcBOCkweqoFOzaBfewWenRaLxxeWeOxzZC8lOreU43SeE9+sqcC+M3ZYbBTpqTI8eJ0OaSlSyCQET06JxYTnL/JuZ+RSgv/dH48Ozbmw5TN5Tny/wYS9p+woM7OIUTEY2lWJ20dooVYQ3DREg9xiF75aHZokKD5aJEqzXr7D0BoCEajgHNE3EUKyQzisgCNqAwAAhJDNlNJZAP7H347Yb+cmFQ+fm2s0WWlMiIeHZIPkUiGRw5eWybnFLuw7Y8e2oza8fKcBDAFuH6nF79stOF/o+75632k7rnkqH8XGumnD+SUuHMiy4+fNZrz/QDzaNJFieA8VurcxYd9p9/kKnVvKsfGQFbM/K4HdeWl255W4cDDLjm/mJCLZIEGLRCn6tldg69G6W4G7RmmrJ/+fOy1Y8HVpLfGR/BIXTl5wYOtRGz55KB5KOcH9Y2Lwx3Yz788TbDQKYlo6N9FJAHdOv0cIIaKPOxHtFqAmhJD3AXwq1C6XoM13cxMPExIeacnftpprTf6arNprwa9bLlXtmTDIv2jmvBKXx8lysdSFF5deElziy8K7HLON4qnFpbUmfxUlFSzerVEsNCO9rgBu1RcdAC4Uu/DcN7Unf00OnbVXr4DkMoLrB4Q+spsQ0G8fT9yvkBPeIraVLCaEfBCyQQWRBmEAKnkAgGAhkZR4ab8Xbo1bF7rhXGK5BzWfb9ZeWuoO6RLcUN99p+3Vk7lKccgdmw9b3RYF3XjIVr3sb8mzt+/fQVEtorpso4nXkNTkp02XrunTLvAlzDzx8m2G9c0Spe48/lsBTA/VeIKN6LcAVRBCHJTSSQB2Akjlu2ZUhnLo9mOqzb9utQwM1bicLopDnqr25DmRV+JCE4MELZKk0CiJx8o57ujcUoaeaQq0TJJCpxb2plVVAnbHaTflvgCuRkKFhYVOzdSqe1BFVbowAOw55bmcmslKcey8A11bydGmSWhfz+v6q7eP6K1yV8UnD8CNhESORH19aTAGAAAIIXmVTsF14C/IwDw1xdDt6HnnqWPnHWmhGFNBGeuVoGVWvhNNDBIwhEv+MVl99wP0bivH7Il6r2v/aZWeDcDlJcL5qPpiS3hc901qVEiePznW4woAAJolcPfogyRKwkfb/7d3/rFR1nccf32eu+tdez967fUXFvwBliL+AB2rxAgtThecrNGgUrYYM7cKJgwVZYRBtmwuizE2ZhrjSkbGdErcBom/RrJIII0DRBOJKN3slIJELL/6i7ZH27vv/niux1295+m13i/u7vXv8+R5Ppc+308/38/383l/plmP/upH3jkYR8UjwP0iciJlRqWArHIAACJyQCm1CtgW+zqubevKTn9/U1dv/1CwONn2DE0wMWeM/ogweypzB26fX8jvf1ISltPyDyvavxzhVE+AnoEgQxELuaneiaNA4hpw8m3luCJ/y6xpk/vcbCmaB+i0y/mX15cHRTBWKoU1IpIxsyoTRdY5AAAR+YtSaiGwOtb1Aptc9frG8gPLft313aAyPOZJCNY4nx4pvhnPf8lIvC6NTSuLsWj6luPFt/p5vW0gLMA5nvtC2gKp4ELEb/nltm6Om6gWpQNNCP59c8URu03qTG77o4hsSZlRKSQrHUCIteiagjH12ipLLAuffqh0zy+2nluSTCN8cUzBgehQOZ7ZeZHcPr8wrOH36p4BXjY5P3c6BKcjdVU2fRFqxgN+PSrJJJ75aUlbpdfSYHLLfuCxFJmTcrLpFCAKERlBnzFguGf73nxHQ1O9a38y7XA6hOll5n7WU6SFw+Oe80FO9U6uJr52+sU9f6xz+EhiHdUlk8gJxwsmGHGeau6+pfD9JfMKzQQ9T6J3+GVN0m88WesAAESkC2gEjDS05MnlnhuumWH9XzLtuOMm86O9xoVFWEP6+B98dmHS++4xDX0A2wQBR1N96sJ/IKpH4K66ItMS5FRSU237YnNTyVyMZfH8wN0i8lUKzUo5We0AAETEtFlDBOefnyi3uou0c8my4YHbXEwrjb0yr6iw0rz04gCRnfsmX1YeKZ1967XGzubeRU7qalMdAYyEqw1L3Rob7i+OK/lYYJO4jimnQnGRpeeV9eUWEcwqQ9eIyMGkGJBBZL0DABCRV4Dnja7bLHLljk0VnZpmOJJsyvQNBnE6hC2PlnHLXHu4yUXT9AlArWt9uEKZ8r0f+6c0AzAy7L93kZNVP3BHRQVel8bPGz1suK+Y80NBw+RgsmjZ2Rc+Cv3hzUW0ri1j4Rx7zKlDPo9GU72TnZsruHFW4p2VJgS3b/R12CyY9Ya8ICJbE/7yDCSbk4DjeQK9fThm0s/n0W5qafbtebz1bEKTgl3dAd79yM8jy9y88IiP/qEg3eeD+NyWqGTc5ydH+d12w7mophz4zwU+7LjAghrdwTx8p5vmpW5O9QYIBKHKa0HT9CO9377Ww8YV3oQP/zTj02PDPLW9l00riimw6d2R37nax2hAcbo3yPCowuXQ8DjlG6PCEs1zq0rbKr2m7b3/Bp5MqhEZRE5EAAAiMoqeFDxmdM/i6+wNK+td+xL97q3/6qf1n/0ElX4ufnm5NWrx7z7kZ9XzZ+ieZPZ/DKVg/Z+6o4Z9iOitxpeV6ou/bzDIui3n2H0oPb32b78/yIMtZ9j7sT9cOmy1CNNKLVxRYcXn0cKL/3RvgL+1DXC4c+LKwcmwcolr/63XOsySfsfRNf0S++IMJjMyMilEKTUf3csbdZoMPfrSmY73jgzfMNV3uAs19j5TBegiF01P6zqmlSUW6q93UO2zYLUIX3cH2HfEz+cnzc/GCwsk3EPfN6Sr+xgxu9pGXa0+rUhEb9j57ITeaTcW+s+utmHR9PFj/z3xzWO5UrdGpVfPWXT1TNxkVFNtw6rpVYNm04nGKPNYuPFqvdTXU6Shhezs+GqEI8dH6OpOvDJQXa39k5fW+GZi/Hf3A4tFJOX6Eekk5xwAgFLqx8Bfja/T81jruWPvfeqfN5XnGzmAPOmh4frCj55tLpk1QaXfAyJi+E1kKzmzBYhERF4FWoyv4/3D6tLa1Xe5s670M5cQQa1t9LS1PFwyd4LF/1wuLn7IUQcQYgPwrsl1R/NS96J3flNx8MpKq2HeIE9mMqvKenTXU5UfPniHazGxG8PG2I2JynS2k0unAFGISEAp1QQcBGYa3VdVaq3bsbliuP3L0bZn/9FTfuiLYbORUHnSTN1s+yfrlnt6ai6z3QxcNcHtnUBTKEGck+SsAwAQkbNKqXuAfYBZiVzBNTOsi7c+XsZIQB1vPzbc+UHHsBzuHHF39wcL+4YCUYkld6GmEdIkcNhl5PIKy9fJ+xW5iUWTgNepDVWUaANzphcMLqixy5zptpmaxnVxPmIQuEdEziTTzkwnJ5OA41FKNQI7yHGHmEOMTfF5I92GpJtczgGEEZE3gZ+hfxh5sptR4KH84tfJRwARKKWWAa+BaY14nkuXXmCliOxKtyGZQj4CiEBE3gbmYSIumueSZQ8wL7/4o8k7gHGIyFF0EZEVQHuazcnz7TkMLBeR20LTpfNEkN8CmKCUEqABaALuBGak1aA88XIU2AVsD02TzmNA3gFMAqVUFTAXKAO8aTYnz0VG0ff3XUC7iJxNsz2XDP8HuchUCL8/eqsAAAAASUVORK5CYII=;" parent="1" vertex="1">
          <mxGeometry x="336" y="118" width="256" height="249" as="geometry" />
        </mxCell>
        <mxCell id="et1fOOYHSfHHCLRn4kue-9" value="" style="shape=image;verticalLabelPosition=bottom;labelBackgroundColor=default;verticalAlign=top;aspect=fixed;imageAspect=0;image=data:image/png,iVBORw0KGgoAAAANSUhEUgAAAQAAAAD5CAYAAADImOsDAAAABmJLR0QA/wD/AP+gvaeTAAAgAElEQVR4nOydd3wUZRrHf+9s3+ymF0LoEHrvEEA4ULErYEMUD9spWI+mKOqdZ/dQ7+yCgnqIYMdGkRJaaKGFQOg9gfTN9t15749JSDaZmewmW2aS+X4+fvyw75Rns/M+87zP+xQChWYBpTQFwPUARgDoCyAVQAqAcgB2ACcBHASwDsAqQkhBZCRVUFAIGpTSsZTSnyilXuo/bkrpt5TSsZGWX0FBIUAopYRSegOldGsAk16IbErpPZRSVaS/l4KCggiUUqZy4u8KwsSvzYFKRaCO9PdUUFCoAaVUWzk5D4dg4tfmBKX0cUqpIdLfW0GhWUMpjaqcjGfCMPFrU0ApfYFSGhPpv4NCwyGRFkAhcCilcQBmAHgcQEJg58JSbqfHL5V6rE4XvACg1xFVcgwTYzIwbQmBKUBxCgG8C+C/hJCSAM9ViDCKApARlNvKewrAwwDM/p7nZenFzBxn7pdrK5L3Hnd1ZSn/765i4BmYrjt89zhT4ZAu2l4MIfEBiGcB8D6ABcoWonxQFIAMoJS2BTALwDQAfq+9nW56/NNVFReWrLYO9nhZTSD31KmJ876rzTvuudLUWqNC2wBOtQNYBOANQsipQO6pEH4UBSBhKKUdATwG4CEAOn/Pc7ho3sLVFZc+X2UZyrJo1PYdQ8BeP8S4a+bEGFOUnnQL4FQ3gK8BvEIIyW2MDAqhQ1EAEoRS2hvATACTAf8nsMXG7v/39+WOn7NsA6mAmd8YxvUz7H52cqzWrCc9AziNBfArgH8SQrYHWyaFxqEoAAlBKR0BYA6A6xDAb2Oxsfv/sbTM8+cee7+QCVeD4d30++dNjnG0iFUNCvDUzQBeIISsCYVcCoGjKAAJUGPiXx/AaWx+qXfX80tKonYecXUPkWii9G6nPfzs5NjCjqnqoQjAUgGnCF4DsJIQQkMjnYI/KAogQlBKGXBv+mcBDA7gVPexC57tzy4uTs075+kQGukCo2sr7ennp8Se75ymHgggkEjBfQDeAvAVIcQbGukUxFAUQJihlGoA3AlgLoBAnGrOYxc8O+csKm51It8TiFc+bLROVJ99dnLM8YHpukEIYLcCwDEArwP4jBDiDo10CnwoCiBMUEq1AO4A98ZP9/88WHcdde6av6S0S0GpNyVkAgaRhGimcNakmJxxfQ39CEF0AKeeArAAwMeEEHuIxFOogaIAQgyl1ATgPnD7+Gl+nwcUr8m2739lWVnvMisbFzIBQ0hMFGOZfWvMvqsHGLoTIJDvcBHABwDeJoSUhkg8BSgKIGRQShMAPFr5n98RdSxF4do99pyXlpb2r7BTv6P9pEyUjlin32DedevIqC4MQwKxYsrBKYI3CCFFIRKvWaMogCBDKU0G8AiAJwD4nSjjZXF2RWbF8Xd+tAxyuptmpp1GTVx3jzPteHC8uVWA0YVWAAvBKYKzIRKvWaIogCBBKW0H4EkADyCgcF0c/XSVpWDxKssQLxuQB122qFWEnTLGtPPBa02JOg0JZCfDBWAZgJcIIXkhEq9ZoSiARkIp7QFuD/9OBLAF5nDRwwtXVxQGI1xXrlwOM54UY4zSkR4BnFoVXfg8IWR3iMRrFigKoIFQSvuCy8xraLjuIKqEwFymgdGFFMAv4CyCrBCJ1qRRFECANDRct6iC3T1/Sal2W64jkDj6ZkcNRTAQgT2fmwG8Rgj5OUSiNUkUBeAnlNJxAF4EMDyA09j8Uu+u5z4vMe0+5gok6KfZ07OdNm/+5NhLDQgz3g3gVQArlDDj+lEUgAg1wnXnAxgYwKnuYxc82+ctLkk9cs4tiXBdudI2RXXmmdtjTwxM1w1BACnRAPYDeBPA/wghntBIJ38UBcBDjXDdpwF0DeBUZ85J9/a5n5d0PF/kaRka6ZonrRJU55+7K/bowHTdQADGAE49Dq5k2UeEEEdopJMvigKoAaVUB2AquHDd1v6fh4pdR5275y8u61JQ5pFFuK5ciTczRbNvjTkwrq+hLyH+x1kAyAfwNoD/EEJsIRJPdigKAACl1Ayu3NYccC2z/IKltHjtHsf+V74u71Nm88aGTECFOkTpSMX0G8y7bx1l6soQJAdwaiGA9wC8oxQxbeYKgFKaCK667mMIIFadpbi0Mst68LXl5YMcLhqIOaoQZIw6xjrjBtOuW0ea0hnGf+UNrojpZwBeJYRcCJF4kqdZKoDK6rpPgovT93sCe1mcWZFZceLtnyyDXS6qD5mACgFTFWb8wHhTmlZF2gVwqhPAYnCxBGdCIpyEaVYKgFLaHlyM/oMA/J7AThc9+unqimYVritXqqILZ0+KMRt0JBAHblUR038RQg6HSDzJ0SwUAKW0F7h03EDDdQ/95ydLybKNFUNDUWRTIXQQAnrDEOPOp26JNpqNTEPCjF8khOwMkXiSoUk/1JTSfuC28iYhwCKb//6+3PHTNlugRS8VJEgjipiuATCfELI1FHJJgSapABpYZJPml3p3vvhlmWH7YSVctynSu7320PN3xZa3S1EPghJmDKAJKQBKKQE34Z8BMDSAU9n8Uu+uZz8vMWUr4brNgm6t1UdfvDu+oGOqeggCK2K6B1zJsiZTxFT2CqBGuO4LAPoHcKrr2AXPjmc+K2559IKnfUiEU5A0bZJVZ+bdEXtiYLpuMAJwCgPIAVfEVPZhxrJVADWKbM4D0DmAU607jzh3vfBFWfqFEk8g+8YKTZTEaObSvNtj80b20vcjJKAw45PgogtlW8RUdgqAUhoF4H5wrbNa+X8eF6777JLSrpdKvYFEjik0E+LMpHjOrbH7x/Uz9CFAIJGdBQA+BNcZuSxE4oUE2SiAGuG6cwG08Pc8lqJo7R77gZe/Lu9bbvMGEjuu0Ewx6Yn1kesbVMS0CMB/AbxLCCkOkXhBRfIKgFKaBGA6gMcRgFb2svT8ikzr0Xd/sgxUwnUVGoJOTZzTrjZl//UqcxsVg0CyOyvAtUh/jRByPkTiBQXJKgBKaRsAfwdn7vs9gd1eeua7TdYT7/xoGeJ000DyxxUUeFGrGPc9V0Ztf2C8OVWrQiD1HZwAvgHwD0LI0RCJ1ygkpwAopR3Ave0fQgAFIJwueuTT1RUXm3ORzUBIjFZhXD89cs+4sfe4K9LiyIIaRUyjonQkkIasVWHGrxBCckMkXoOQjAKglPYG59gLqMhmhYPuf+vbMsfPWbaBSriuOAwBRvbUY0KGEcO66aFiuM8Pn3Vj2QYrfttph8ujVNHyh+Hd9PtfmBLrSYhmAmnJXhVm/A9CyI4QiRYQEZ8wlNIMcI69gIpsKuG6/qNREVw9wICpV5rQoYVw3EuxhcWKTVYsXW9FuY0No4TypZFFTJ8nhKwNkWh+ETEFQCkdDK5445gATmPzi71Zz39ZZt55RAnXrQ+TgcENQwy4Z6wJybH+r4psToqfttmwZE0FCkqbRMBbyOnXUXtk/l2x5W2S1P0AMAGc+ieAOZFKPAq7Aqjcx38LXEquv/f3nMh3b312SWnLQ2fcHUMnXdMgNV6FKX8x4aZhRhi0Df+JXR6KX3fYsWRNBU5dlHXAW9jonKY58+Ldcec6p6kHwv8wYwrgfQCzwh1QFFYFUJmP/wsAf2PunQdPuzc/t6Sk/ckCJVy3PtISVZg82oQJGUZo1cH7aVkKbM5x4JPfK5BzSnEY+kPrZPW5F++KO9mng2YA/A8zPgDgOkLI6RCK5kPYFACltDuAtfAjiIdSat2R59r+wlel3QpKvH4H/TRXOqaqMXWcGeMHGi479kLF3uMufL66AhsPKAV2/SE5VlX4zB0xeSO66/sQgig/TjkH4C/h6n0YFgVAKU0DsBX1V9q1rd/v2PHS0tJeJRbW75bazZUurTSYdpUJY/saQMK8mKtSBJk5DigtzuonJoopmX9X7L7RvfSDUH9cywkAGeGoVRjyx4ZSqgawDsAIsePyiz07pi0oalNQ6lXKatdD345a3DvOhJE9I1+W8Oh5N75Ya8VvO23wKhsH9dIiTlWw6KnE0yn1FydZB2AcISSkf9VwKICnAbwscoj3m43WTa8tL7si1LLInb4dtXjoGjMGd5FegOO5Ii+Wrq/At5ttcLkVk0AMQkCfuSMmc8LwqBEQ3zF4khDydkhlCeXFKaUtAOQBMAsc4nn1m7KdyzOtgRTwaFYQAozsocf9403o0VYbaXHqpSqW4Kt1VlTYFZNAjCl/MW198pbowRAOfCsFkE4IKQyVDKFWAK+DK8bJy8e/WTZ99KtFdGnQXGEIMKKHHn+7zowurTSRFidgyqwslm1Ugorq44mbozPvHmsaKXLIPwkh80N1/5ApAEqpHsBZAAl84/tPujPvfeuS2BdvlqhVBOMHGDDtahPaJsu/ArkSVFQ/S+cmbe6cpskQGM4H0IYQ4g7FvUOpAK4Ft+dfBy+Ls6NmXUhwuKghVPeXGzoNwS3DjbhnrAkpceHPZXK5KbSa0BmELg/Fz1k2LF5TgXOFiiKoSZSOVKx7vYVNxRChQjVjCSF/huLeoXzFjBcaePen8tMOF/W7mk9TRqsmuH6IAQ9eY0ZSTPgmPku5JKCsQ05k5jiw77gLqQkqjOqpx8ieegzopIVaFTyFoFUTTMyIwi3Do/DnHjs+/NWCE/lKdCEAWJ3UtOiPir0PXGMWUgDXgAsZDjqhtAD2Auhd+3MvS88NffJCi+aeshuJiV9uY7H9sBNZh53YuN+JwnLhN7FRRzAwXYeRPfUY2VMXdBmrogs//s2Cg6dDYt3KChUDz7YFLQsZhjdQbgchZHAo7hsSBUApjQZQDB7v5i877OvnLykZHYr7ygGNiuCGoeGb+MfzPdi434Hth53YddQFjzfwLTqGcEFHQ7rqMKqnHr3aa8EE8cnJOuzEByst2H+yeYcZv/lA3IYxvQ182+FuALGhaGseKgVwFYA/+MamvH7paO4Zd6dQ3FfK6DQEEzKMuPdKExKjQzvx7S6KJWsq8P0WGy6VBX+9HW9mcONQI6ZdZUaUPniPUNYhJxb+YcGuo81TEfTvqMv95IkEoTyZMYSQ9cG+Z6gUwAsAnq/9OcvS/EGPX2hWsf1Vb/wHxpsDSskNBucKvcjMcWDjfkeD3/5VhNoKqElzDTMmBHT7O6klDCF8YfDPEkL+Fex7hsoJyLu3f7bQexwBVPSVM1oNwYTh3Bs/nM49AFi7x4FVu+0Y2VOH8QMMuOOKKJTbWGzNdWLzQQe2HHSipKL+vfloI4Nh3XQY0UOPYd10iDMxKLex2JLrxDcbSzCsuw7XDw5+vdU+HbRY8FA8ck65sWiVBRv2Nw9FQCnIpTL2aEqsim+9PzwU9wy6AqCUqgDwOiy2HHI2eW9PJN/4VdicLNZk27Em2375zT2qF+fdv6p/HCjq7gCwlROsY6oaI3vqMbiL7vJOwLlCL/7YZa9jSfRqH9rIxB5tNXjrgXgcu+DBkjUVzSLfIOuQw37jUN6kweGUUibYuQGhsAD6QCD0d81ue5NtyKHVENwyjHvjR2ri88FSIPeMG7ln3PjoVwtS41UY0YNTBpNHR+HeK00otrDYd8KFHm01SIpRwe2l2H3Ehbd/KEfmASfOFkZ2u65jqhov3h2LaVebsGhVBX7faW/UckbKrMl2xgkogFhwdTRygnm/UCgAoYgm674TrvQQ3C+iaNVcAI/UJr4QF4q9WJ5pxfJMKwxagiFddbhhiBGje+uxNdeJN1aUYWuuEzan9CZY22Q1XpwSi4euNWPx6gr8tM3W5IqY7sxzdgFXTpwv4ysDQVYAoSgfwbtWKalg87xsSAOPwopGRXDryCj88HwyZt8aI4vJXxu7i2L9Pgd+2MrtLq3cbsPaPQ5JTv6atIxX4enbY/DD88m4fVRUSCMYw43TQ3UWG3tEYFjo5dpgwmYB7DnmlFXPNCEYAvylrwEzbjCjdVLT0Gek1v/lQkqsCrNvjcH94834al0Flq63wtkEUpEPnHIVDevGW+tB2gqgsvIPb9WfNXvspmDeKxIM6aLD4zdHyzI7T4yqakLhrioULOLNDB69MRp3jTE1CUWwdq9TL6AAOlJKU4NZKSjYSwCh7D52c45TtsE/Azpp8dlTiXh/RoIsJn9D57FcFUAVVYrgpxeSMWlEVFBzGcLJ+n22dHCVgvkYFsx7BVsB8JooThc9ZrHTQNotS4K2yWoseCgeHz+eiN4h3vKKJJctANktAvhJjOZ8BN88k4R+HeX3u5VYaLzbi1MCw0FdBgRbAfA6APPOe0Je3DDYTMwwYtkzSRglgbp7YaNpzP/LtE1WY9pVQsWopM2JfPdZgSFpKoDKhh91sv8AYP0+u6xc5AwDPHJ9NDQyNSEDXf3K3fQXY2BnLYw6+X3BTOGy6/0pDV67+2BaAEMh4FRcu9deXzlwSdGvgxaxphAX2A8hgT7uVceHKrY/kmjVBIM6S6+Ian2s3WNvKTCkATAwWPcJ5lPOa5qwFBfPXPS2CeJ9Qs7o3vIuVKRYAL4MSJefHyDvnKc9BUoEhoOWFxByBXC+2HssiPcICxk95PfGqIm+gYExgZ6lk0kAzsB0+f2elIJcLPUeFRgOmh8gKAqAUsoAGMI3tu2gQ1bJ3YnRKtkX47yyvwHvz0hA5zT/tixJpQngryXQJkmN16bF4eZhwc8EDAXpaRpZLul2HnFZBYYyKudcownWX6UXgBi+gdV7nIlBukdYGNhZfuYiH0O66PDVnCT84+64eguQED9DAaON3D77smeSMK5f+NuRNRSGQJbbgWt22+MEhuIAdAnGPYL1qhNak9j3HnfKKgFoQCf5mYtCMAS4brABY/vq8fUGKxb+YeGN869v/mtUBJNGGvHQtWaYDfJ7kwLcMmDdXnk1NM067OwMwAWAT3tlAMht7D2C9WvyrknKrPSw20NlpXrl6DCqD72W4N4rTfjuuWRMyDCC8fNXJwQY18+Ab59NxsyJMbKd/AAXzSk3nG5qqHDQkCYGhVQB7DnuLA3S9cNCU1j/i5EUo8K8O2KxdE4ShnWrtnSqTPma24ADOmmxZGYSXpsWh7REWYVx8NKppQYxUfJTYAdPuoTagklDAVBKWwJoxze2do/Dn37okmFgE3z789GppQb/fSThcm5DTdO/bTLn4Pv48UR0byP9vAd/IQToI8Nw7j/3OYTWpOmVvTcbRTBUopAmoptyHLJKAOonQzOxMQzposOXs5Mw9UouUfO2UVFYPi8Z4/rJOw5CiL4ydASu22vvKDLc6Ka6wVAAvA5Ap5seL7OyQl5MSdK3g/wekMbCEFzeLuzUUgOV/Kxkv5GjAigsZ5PcXnpaYLjRy4CQWQDHLnjOB+HaYSNKT9ChRdMxeRXq0r2NBnqtTPYua3CqwHNGYKjRCqBRHi9KqQFcEdA6rN/nkNVfund7rd/e8UhT1e0nM8eBUwUeDEjXYUgXHa7opUdCdGi/RLGFKy++8QDXbahDqhoje+gxpKsO3VpLW4FqVATd22iwW2aNRzIPONhOLXn/tv0ppXpCSIP3Nxvr8h4C/j1K/LnXLqvmn1LO97c5KXYd4SZd5gFnnW4/VSXAX/kG6JJW3byjd3tto4N1WBY4fM6NzANcg5FDZ90+Nfr3HHNhzzEX/vMTV6tvaDdOGQ3vrpdkFl7fDlrZKYC1exypf+VPa9YBGABgc0Ov3VgFIJQAVHgi39O2kdcOK1LzEDekqw/LVpcA/3x1BeLNDIZ345p7Du2qg8nPffzSChY7jziReYBTOuU2/0rRny/24rvNNny32QathqBfBy0GV1om7VtIY3u1b0cdgIpIixEQh866O1KghHARgLXJgNQUQH6J9ygA2YQAM4RrQhFpzhV5sWRNBTIPOFBQ2viefsUWFiu327Byuw0aFUHfjlrcMMSIawfVDeN1eSi+2WjFqt125J52X24U0lBcboqsyk7E//mpHO1S1BjTR497xpoQbYzcWqtPew0YgkZ/v3BCKUhhmfdoUoxqEM9wo/wADVYAlFICgQSgrEMOZ4MligAdW2r8fjuGkrQEFR653oxBnbXIOuzEhv0OFJU3vhFMVbefqp5+fMsCrZpg8mgTerXTYuMBB7IOOZF7pvGNnBpqhYQKk4FBp5Ya5J2TV5OqHXku27WDeLdnh1NKCSGkQSqtMRZAdwB8TQyxercjoRHXDTu92kX+7Q8An/5hAQCM7KHHuH4GPH0bsP+kC5tyHNh80Im8c26/euRFGxkM7apDRg8dhnfTI97MXO4NuDyzBI/eFI2UWn0Mdh914Y9dXD/BB68x49Ebo3GuyIvNOQ5sOujEzjynX5V2VQznTxnRQ4/h3XXonKYBywJ7jruwaFUFOqSqQ9JPMBD6dtTKTgGsybbHCiiARACdARxuyHUbowCETA/nnmPy6gDURyL7/0fPe7B6tx0frLT4vDn/epUZ02+I9vHAbzvkRIW92jpIS1RhVE+u5Vf/TlpoKnv6rdrN9fTbfdQFd6Uf4W/X1XUoldtYrNhkxYpNVug0BH07aDGqlx5jeutx26goON0Ue467sP2wE+v3OXCyoLpdWKyJwcB0XeX9dYg2cgpn+2EnlmdasX6fA8UWTtaHee4dbvp00OKbjUKZttJk26F6E4OkoQAsNvaw00N5awNKlV7tpKEAalJz/a7TEAzuosPInlyn3usGG+D2UmQfdeFCiRdDu+iQEqe6/Nm7P3I9/c5calhPP2eN9fub35ahc5qmcgmhw/QbovHojdE4ke/B7mNOdG2lQbc2XKvwE/ke/LDVhk0HHNhz3CXZRp5yTA12uqnB6qQHo3SkO89wBoBFDblu0BXAvhOu4kZcM+zEmRi0kXiHH6ebIvOAo7JQZBm6tNJgRA89bh5uxOAuOvy20471ex3YesgBqyO43i1KuU7Ch8+68envnGUysoceVw0wYGJGFA6fdePf35VJoomov6TEqtAyXoXzxY13tIaT3NOuSwLVjRrsCGzQk08pTQHAG6O8dq9DHmViKunTofF75eGmakImxzCYNDIKr31TBos9PK/bYguLH7fZcPqSB0O76vD9FhuWZ8rLnAY4P8D5YnukxQiIP7MdOgEF0JlSmkQIuRToNRvqkhVMAMo84BBLXpAcUjT//SaCLb3k3k5MKn6fQPhzv6ODwBBBAzsGNVQB8CYAubz0ZLGFldUOgBwfBIXG06+j/Co/XSr1JntZCOUFNKhScFAtgGPnPecaeL2IoFYRycevixHJt69cOwpX0aGFOqIBSQ3lZIEnqJmBAf8FKKU6AP34xjblBNkDFWK6tJJndlgVVb38IqIIAqwkLDUIkaf1t/mgU8hzOahybgZEQ1TgYHBJCHVYm21Pa8D1IkafDvJ9+wORXYfLdN77IMf6D6t321MFhnQA+gd6vYYoAF5TgwLFRy942jfgehGjt5wdgIisGS53JyAgz3iAQ2dcHSlFmcBwwMuAhigAXmfDxVLvUUrl9WKQcgqwXyi7AI2iWxsNtDLpblQFS8EUlXuDVik4IAVQmQDEW4cs65BDVpuqKbEqpMRJq9qtvB5FDiJLqTm0aoIeMix8uvOIWyifeUTlHPWbQC2ALgCS+AbWZDtlVf+vlwTf/oF2523oW5jwnBBoLcDLy48A781IrAWxHB2Ba7JtsQJDiQACKsQbqAIQMjFcO4/IqwNQTwnk/9dm3p2xeOhas99maaBzqVtrDT56LAFpCXUtnxE99HhtWhxaJfoZHBrgvavaik0ZI61K8XJcBmYddqUDEIq7DmgZEGgosFACUJ7TTXsGeK2I0r2t9H54o47gwWvMuGmoEZ/+YcEPW2x+Fa6ozwxPiVXh/vFm3DzcKKg0qroAje6tx0/b7Hh/ZTlKKoTDi/2d/2oVwY1DDXjk+mjESbBBZ5/K+gj+pFlLBZuTjbI5aa5RR7rxDGcA+NzfawVFAeScdgt1L5EkDIGkA4BS4rgOPrcMj8LbP5Rj1xH++ir1meFGHcHdY02YOs7kdytvtYpgQoYR4/rpsXhNBf63zgqXh6efoB/Lj1E99fj7xGj/rYoIEFuZDHbqojwSmao4yCUGCSkAv/H7l6GUJgLgNfP/3GOTVSeJ9i3UkixYWZvubTT4+LEEZB124q1vy3DsQq2HVGASVr11H74uGvHmhr11q0z2W0dG4YOVFvyyw+bzlrysAHjO7dlOiydvjpZNHf4+HbSyUwDr9zs1AolBXSml8YQQv7JyA3k6hkPA8tuY45LV/n/3NvJ4MKsY0kWHpXOTMe+OWJ8JzWf6D+miw//mJNU5tqG0iFPhxbtjsfjvifXum7dJ4tqKff5UomwmPyC9grD+8Ge2PSiJQYHYZrymhduLU5dKvbKqACyFAqCBomKACRlGXDPIgC/WVuDz1RU+b+EebTV4/OaYkHXB7dFWi0+fSETmAQfe+q7cZ/kRbWQwdZwJk8dEQauWvmVVm94y3AkoKPWmeFl6TsUQvujbDAC/+HOdRiuAk1zXElkpADk3vTRoqx2FVidnk8+/KxZDuujCEpQzsqceQ7vpsPc4V1v/L330+OtVJlm3Dm+for5cxkxOnCrwnuqQqhZSAH7h169WmWQwgG8s84BDVn81jYogPU1eCqC0gkVWZS2+qio2KXEqdKistT+0a3gmfxUaFUHV+rNnO62sJz/AWTFSjAupjy25DiHHxSBKqV9fyF8LYAAAPd/A2mx7Sz+vIQnS09SyMlP/81M5Fq+puOyAYxjgn3fHYfxAWfldJU/fDlpszmlwh62IsDrb0WLKX0x8QwZwGbtZ9V3DX9XNnwBEUZZ3zi3kjJAkUtz/F6KonPWZ/ADX/WfxGnl1tpEDfdrLyyoEgIOnXJ0oRbnAsF/LAH8VAG8CUGG5N4+lQekwHDbkFPt9vtjDG6By5LxbNEhHIXC6t9VCrZKPZQhwiUHFFrZRiUH+Tl7eBKCdeS7ZVYPsISML4HwRf+0HSoHfdsgq90ryGLQEndOkG7AkxO5jLovAUHAUAKU0HUALvrHVu+2ySgAy6gjap5E2/80AACAASURBVMjnR96SK9xh7aPfLDieH97glYulXpzI96CwXF7ltP1FjnkBq3bbYwSGUiil9Rbo9Wc2CGkSd1aevBKAurbWgJHJgmXvcRd+3WETHK+ws5j65iVMvyEaNw41Xo5sLLNyHX5+3Mqd+/TtsRjWrXEFMI9d8GDWp8U+0XKtEtWYd0cMBneRX3FNIfp20OLrDfIyarflOjuDSwzim8sZAI6Jnd9gBWB10jyHi/bw43zJILUIQIudhUnP+GzhUQqs3WPHC1+Wgq1nmW9zUryxogzv/FCOzq00cHsojp53+3TkmfVpMT57KrFRW59vfVdWJ1T2bKEHzy4pwe8vtQg4K1GqyDEgyOZko+xOesigI115hjMALBE73x8FwOsAPHjSJasEIEA6EYAsC8xZVIw/9zoQE8VgUGcd0luqYXdRbDvkxKEAu/K6PBQHTrp4x+wuire+K8eHjza8WvsRgUaaReUsii1eJEZLq7BKQ0mJVaFFnAr5JfJa4uSecV3s30nHpwDqLRUuqgAopXEA+C6MdXsdsrP9ekjEAvgm04o/93J7zmVWFmuy7ViTLXx8p5YaDOqsRXKsCk4XxdnKrr3+7gTsyHPCYmcbFLDDUqDUKnwfJ7/ekS19OmiRv0teDtYN+5ya/p14p2OP+hKD6rMAhkPAUbghx9HObwklQEwUg5Y8hTDCDaXAV3/6t4/fo60WMydG8zqnPF6KH7bY8N+fLfW2BWuVqIZR1zDnR4WdFV2KeOWUSO8Hvdtr8YfMFMCavfb2T06I5hsiAIYA+E3o3PqeCt71v5fFmfxiL+/OgFTp0VYjiQKWZwo9fjWlvGagAQufTBD0TKtVBJNGRmHxzES0jBdWbPFmBv9+MB4qBigs92LhHxZ8vroCZSJv9ZrkCZj/VRSXN614BDmWCs8v9rZgWZwXGBbdDmyQAhDpTiJZpOIATDCrEBMl/mcf0EmLF6bEQuNHYErbZDXe/lsCb4MTg5bggxkJ6JiqxrZDTkx86RLeX2nBf34qx5TXL/nVPnz9PvHw2AOn/FsD5J5x44UvS/Ha8jJJd+VNT9PIolZEbU5f8pwSGGqYAqCUagAM5BsT6U4iWbq2koYDMEpP8N70BMEqOQwDzL09NqCotI6pavDFhE8Za0KnlhpkH3PhyY+LUVFjqXC+2Iv73y7CCZFYgh15TqzIFN6KBICvN1jrXYKszLJh2r8L8XOWDd9stOLOVy9dziaUGipGXsFiVWw56BAy1YaIJQaJvYr6A+Bt9b12j11W5j8AdJZQBmC31hosnZuEjB5186uGdNFdzvILhNtHRdWJcRjTm7v+P/9XCpe77lq9sNyLaQsK8ct2u0/IcbGFxXs/l2PG+8Vwe8XX+BeKvZj+XhHO8UQterwU7/1cjue/LPUpK1ZhZ/HER8W850gBORYIWZ3tSBYYMgDoI3Se2JPGu4VAKSwHT7tk1QI8Sk8k4QCsiVFH8MZ9cZj00kUfk7ihQTvxZgZdW2lw8HT1iyDayMDppjgtYuqX21jM/6IE7/1cjjbJapTbWBw55/arGGkVOafcmPTSRVw9wIARPXVINKtw+pIHX/5ZUbeMWY37fvhLOf55j/SCSeUYD3DglCudUlgIgZlnOAPADr7zxBQA79qhqJzNY1n+2gBSpVNLaTgAa6PTENw6Kgrv/FCd0NUiruGhyqnxKh8FUFjuRWq8CsO76+tNdS0o9aKg1PeNHG9mMLizDl1aa5CWoIbJUB1teK7Qi4OnXdh5xIVyGwuXh+LnLBt+zhJfMtRESDlEmt7tNWAIAlKCkYZloSq2skcSTAxff8AMAG/znRewBbDrqGDygWSRkvlfm5611pu0EdtqtR/YnXku9GqnxQt3xeKeNy/hgp/Ot0Gddbj3ShMGd9HVG+Xn8VJsynFi0aoK5PjpEKziqv7SrGlgNjBo30ItWQUlRPZRV/m4vrxlO0YIncPrA6CUdgDA24V0dbZg8oFkSZdwlpeq1sqkMR7y2tmDS9ZW4GKpF/FmBu/8LQGmegKBOqaq8Z+HE/DhowkY2rX+yQ9w25Gje+ux+O+JeG1aHNIS/VtqjR9gwD3jeItZSAI5dgxanW3nDQYA0IJSylu4V+iJENo68Gw/5OgcsGQRRsoWwIVak3ZzjnAGoBgXS7119uzLbSzuf6cQh8+60TFVjVkThZ4P4OoBBnwxKwnDuzfMB1HVWOSr2fVfY0wfPV68O1bSOQRydARuzXF0BiD0BuGd00IKgNf8tznpEauTSqu3kx+0TZamBUAp8O1m3+yzXUedyA0wFwAAvlpn5S0ecq7Qi6lvFuKnbTZcN9jIu8Pw4DVm/GtqnN/NQ8QwGxi881ACbhvF/5i0TVbjX1PjJF98Q46OQKuTmhwuelRgmHdOB2QBHDrjutQQwSJJTBSDaKM0c4A//MWC3Ud9182UAi9/XQonz7adEAdOuvDNRuE0VreX4pVlZXB7aJ3IwokZRjx0rTmoTlKGAWZPisFf+tRdjz41ITooiibUtE5US/a5EePQWVeBwJB/FgClNBpAd76D1+1zSNeWFkCjIpL05n76uwWf/sHvTz142o25i0pgc9Yv+KEzbjz1STFv+y4fCEABn+MGpOsw+9bQuHQIAf5xT5zP8osQzsEoB37ZbpNdmXAAWLfPKWTu9qSU1vmx+VTccAC8npz1+5yyqv8PVMa//y6tjYv8Ei8++lVcpo0HHLjnzUvYnOPgNe3tLoqFf1hw39uFKPIjHn9Edx20aoLsY5zFoVERzJ8cE1JT3KAlePbOmMvWhVzyhg6eduNfy8oiLUaDWLfH3k5giAFPaT+hKiJ18LL0/Pkij6xKgFfx8W8W9GynbXRlnGDBVL6N6+NEvgePfViMlDgVBqXr0CJeBbuT4myhB1mHnXC4/JtRGhXBw9dHY+MBx+WtwAkZxrA07ezRVotx/QxYvZvLsMs55Ub/EHUvCgbFFhYzPy3mjZyUA+eKvC1ZFhcYhncXLwPAHzU/8FsBnLnkPQlAlgqApcC8xSX4anYSUkUy58JFcqzKZ1LUR0GJFyu3iwfYJEarMHWcCQPSueq2h8+6kXXIiUtlXkweE4U4E4PHP+Dealo1wf3j+QLGQsPD15mxJpsLN/45yyZZBeDxUsxdVIwCmRUEqc3ZQs/JNslqIQXgg48CoJSqAQziu+jmg4JdSGRBmZXFnEXF+PSJREk0Bpk1MQYHTrouv5FVDDCihx692mnBUopdR13Ymef0Ke8lxKDOOrz1QDyi9NXfq2OqGtcOMsDuoth+2Il73yq8HGMwsqcuKI1D/aVtshq922sr6xzaMSHDiF7tpKcEFnxfjl1HpZmkFAibcx3uNsm8MRZDKKVqQsjluVzbAugDgPfMNcLJBrIh55Qbb64owzN3xEZaFCREM/jk8UR8ta4CRh2Dm4YZkVYjX+G+q7lc/Be+LMXhs8Lbgm2S1Hj34Xho1QSbcxz4cp0VReVeONwULMuF+NYu6DGCJwkp1Izsocfe4y54vBSPfVCMZ26PwV/6GqCSiKP95yyb7AqCCrE225F05xW80zgK3BzfVfVBbQUg1AHImnPK1SloEkaQbzfb0Lu9FtcP4U10DCup8SrMnCjshe+cpsEHMxJw1+vCYbxTxnIdec8VefHUJyXw1JO9B0Qmyq3mPcttLOZ+VgKjrhQ92moRb2YQZ2KQGq/CdYONiDOFVyvknHLjZZk6/fjYd8KVTimshIAvGCMDNRRA7b80rwIotrKHvWxAnYQlzcvLyuqtdCMVYqIY/PUq4ZDZqlyCzTkOvya/WkXC4vyrTTuefgw2J8WOPCf+2GXH1xusWPB9Oe554xLsfjo3g0GxhcWshfJ1+vHhZaEutbJ5AsM+c7y2AuCNFso+6hLqPyZLnG6KWZ+W1FvIQiqM7mUQDNSpqsh7qcw/x5XJQCJidseaGL+Cjc4Xe7HlYMPCoQPF46WY0wScfnzsOeYSMml8EoMuPwqU0rYAWvGdIZJkIFvOFnowb3GpJIOEapMQzfDmM6TEqS4781R+7udHygHKEEDtZ/B/uCbkv78rrxOJ2VRYnW0X2uZpWTnXAfhaAEIJQN5tuc4msf6vzeYcBz76RVpBQkLMvS0GnVpy9eqijQyGddPhzfvjL79Vu/iZ8ORPdGEocHtpvdWFqtCEYYXy0zYblomET8udTeKJQZctfTXfhzVxuOjRCjvbJYiySYqFqyzo1kaD0b3D7xkPhN7ttVj2dJLg+Kheeoztq8faPeKFPyrsLKwO6rNlGA7yA0hzbt+AkmiBkHPKhVe+aTpOPz6sDmp2umieTkv4snczACwFfBUArwWQd85TAKDJKgBKgflflGDJzCReR5VcUDHA6/fFo7Dci3NFXpRWsCixsMg+7sL6fQ6fgqBHL7jDnu7qb3GNHm216N8xdBGbxRYWsz4taVJOPyHyznnye7XXCCkAAJUKgFJqBtCL7yLr9trlOyv8xOqg+PsnxVgyMynsb8Zgkxit8mnVdfNwI4otXBHOqoo9u464wq4AduT5OvZSYlXo11GLFvEqqBkCg44gOVaFv/TRh6yBq8dLMXthcZ3SZ02V9fscql7teZeGvSilMYSQsqrJPRQCCUB/7nXILgGoIZws8GD+FyU+6+qmQryZwVsPxGHiSxdhdVCsybZjmsjWYrBhKbBub/XS5P7xZjww3hT2mgBvfVd+ORmqObB2j73tozfx+gJVAAYDWF2la3nNf5alBWcLPWkhkk9yrN/nwMJV8nAKBkpSjAoTMri4kMNn3dgTxomwfp/j8lv35uFGPHydOeyT/8dtNtGaCU2RM4WeViyLCwLDGUD1LgCvA/Bsofd4KASTMh/9Yqm3gq5cGVOjQMe7P4YntMPLAu/9zN1LqyGYfn34d5RzTrnwahN3+glxvshzUmCIUwCU0ipzoA5bcwW7jTRZuMzBUr/aZsmNVgnV7py9J1z17hgEg+82W3GygPtbDu8W3iQkgGth3lycfnxsEZ7DQymlagZATwC8Ael/7nUkhkwyCWOxs/j7J8UR2zMPFUUWX+fXS0tDq+gOnXHj7Ro9DzqmhreglMdLMXtR83H68bF2j+AcNgHoxUC4Zrhn3yl3h9CIJX2OXfDgH/8rlU0VG39YmeVbf6DcxuLJj4thdQT/SxaVs3jqk2KfoiVWR3hDr9/8tjysvg4pUjmHBSsFMxAw/91enHW5qLSjY0LM6t12LFlbEWkxgkL2MReWbqj7XU7ke/Dgu4VBDb89ddGDB96pe831+xwBFTttDD9stWF5ZvNy+vHhclG920uFWocPYgD05htxOGnTdIcHyH9/LkfWofAkp4SKQ2fcePKj4jp1AWqO3/1mcDr2bspx4J43C3HqYt2lRX6JFwv/CL1CPXDShdeaqdOPD5cbQpqwBwOgNd8ISwXNhmYFywJPf14i6Z72Ypws8GD6+0X1Zj4WlbO4/+1CzFtc0qCuvcfzPXjyo2I8/qFvG/LaLFplwSo/S6E1hKJyFrMWltRfJbkZQQEhR2AbNQDe8jhqNWRXAjxUlFlZzPykGJ89lSiLmvY1eXlZGUor/Ft7sxT4facda7MduGqAHlcPMGJAJy30Wv7vbHNy5cZ+22HHn/vsghZGTSgFnv+yFGkJKvRoG9xoRLeXYtbCYlxsxk4/PjQMhJby0WpwDoI6UYAGLRHOPGmGHD7rxktLSyXZzlqMs354+Q1agvhoBoVlLJxuLmvvl+12/LLdDo2KoH0LNVomqBBtZEApt0ty5pIHJws8ftUsrI3LTfHa8jIsmRncR+zNb8uDsoxpami1RGgngFUDKANQ55dgCJLiTExRSQWbEFLpZMSvO+zo3kaLO0fLpzva2H56/G8d/xLQZGDwt2vNmJhhhFZD4GWBrbkOLPyjAvtOcBPJ7aXIO+cWraCkYoCM7noM7qKD2Uhw5JwHP2y1iS4FzlwK7lv6hy02rFCcfnVIiVEXECBFYLhUDeAkeBQAADKmr+HId5usigKowYLvy9A5TY0B6dLoMVAfj1wfjV1HXHUKi7ZK5IqJ1uybWFWZeHh3PRZ8XyaoOGrSr6MWL0yJrVNm7M7RUZi3uERwG+6agcFrDb7/pAuvLVecfnxcOVB/DMIK4DgDYI/QybeNNDa9cLhG4mWBOYtKkC+TMlIGLcEHMxJ8avEP6qzDkpmJgk1TGQI8eUtMvWv0zmkavDc9gbfGYIs4Fd57JAFDutZVlH3aa/HYTcEJCS4s93KRforTj5dbhokWv93PANgoNNopVdPXbGAU1VqLkgrOKRiuPe3GEhPF4KPHEvHx49x/H8xIQEyUeEguQ4DxA8Tf0vdeaRJ1iuq1BG8/FI/xlW97QoAbhxrx/owEQcdiILi9FLMXlvhdD7G5EWcmxe1S1P1FDllLKhsGFgDgtWlXZtnXP/9lyehQCCh3rh9sxIt3R77HQKjIOuzEI/8tEhxf80oLv0t4ny30QKvmcv6DxSvLyrBik7LuF+K1aXHrx/UzjBYYtgFIZQghZQC+FbrIdYMN/RNjmIuhEFDurNzedJpJ8GEQeUvrtSSg+v2tEtVBnfwrs2zK5BchJU6VP66fgbfLVyVfE0LKq37BNyDQr5IQRC9+KvGY0HhzZ8H35dh1RN6RgkJoRCoIxxgj19Jn/0kX/vW1sjIVghDQxX9POgfwNgYBuK3/fwOV9QAIIXsALBa6YIt49bCZE6MFfQXNGY+XYu5n8nEKBoJYebTEmMg0WVWcfvXz7B0xG5NimAEihywkhOQAvmXBZwOC1UNw52jT8Ct6GrKDJGOTgis02bS6ywCc2Z4uUG58VK/wb4O6vRSzP1WcfmJc2d+4++bhUUIZvgBwBsCcqn/4qHhK6Vhw/cN51TtLaeEt/7hoP1vo5c0faO40RadgsYXFV+sqsP+kGzYHiyg9g5E9dZg82hSy4p1CvPx1Kb7dLN4mvTnTNkl99tv5yVEEEApX9QAYSwi5bM3XsfEopTPB+QR4cbjo4bFP57d2uGjku2tKkFmTYnDHFfKJFJQLK7NseP7L0kiLIVmidMS6+uUW53Vaki5y2GOEkP/U/KCODieEvAngc6Er6LWkyxezk5SlgAD//q6syToFI4Xi9BOHENAvZyftq2fyf1F78gM8CqCShwHsFLpShxR1xjN3xK0PTMzmgZcFZi1sWEqtQl2KylnMVtJ7Rfnn3XEb2iSrh4kckg3gIb4BXgVACHEAmAjgktAVJ2YYRl4zUC+oJJozZVbOKegIY5vrpkhV914lvVeYqwYYdl0zyDBS5JACADcSQniLMAi6cQghpwFMACCUX6n659T4ju2S1af9lrYZcfisG//6WlmzNobXlpc1q0YegdIxVXPy5alxnSDgtAdXCOR2QshZoWuI+nEJIZvAbQ/yjwNx/5uT5DDqGCUki4dfd9ibdKRgKPl2sxXfKR5/QaJ0xPrFrCQPIfwVvSt5jBCyQew69W7kEELeAbBQaFynJZ2/fjppPyFKpCAfilMwcPafdOHNFeFpXCJHCAH9ak7Sfp0GnUQOW0wI+bC+a/m7kzsDwHahwbQE1dDnJ8eJaprmiuIUDAzF6Vc/r/41fkPrJPVQkUO2QcDpVxu/FEClU/BmAELlhXHDUMOo6wYbd/hzveaG4hT0D8XpVz83DTNuH9dPP0rkkHwAkwghfpmdfsdyEUIuALgVwk5B5sUpsentW6hP+nvN5oTiFKwfxeknTqdU9Ynn7oztCuF56wZwGyHknL/XDCiYkxCyBcATwuOI/d/cZDZKzygLOB4Up6AwitNPnCgdqVgyK4klBGKllKYTQjIDuW7A0dyEkA8AfCI0rlWhwzdPJ+USgvD2gZIJilOwLvtOKE4/MRgC9ptnk3J1GtJR5LD3CSGC81Lw2g2UaToAQU3TIl415F9T45T0YR4Up6AvReUs5ixSnH5ivPFA/MYWsWqx4h5bADzZkGs3SAEQQtwAbgMguNa4eoBh1C3DDVsacv2mjuIU5FCcfvVzS0ZU1uhe+itEDrkA4FZCSIOcJ42qzEgpHQpgPQTqCVKKirtev1Rw+KxbzHRpttwwxIinJgSnOq4ceffHcny/RVn3C5Gepjm+dE5SEiEwCxziAHAFIURwi74+Gl2alVJ6D0SqCbnc9MRV8wriLXZWLGJJQUGhBjFGVekfL6eUaVRoK3LY/YQQwSA9f2h0SQdCyBIA7wuNazWk/Yp5yUcZRmk2qqDgDwwBu+yZxCP1TP53Gjv5gSAogEqeACAYCZgYwwx49a9xAW1PKCg0VxY8GJ+ZFKMSc/qJ5ugEQlAUQKVT8HZw9cZ4GdvXcMUdV0RtDcb9FBSaKreOjNo2oqdopN9pABMa6vSrTdCquhFCCgDcBK7hAO8hMyfG9O7WWn00WPdUUGhK9GynzZt7W0wvCPvmHAAmEkIE63QESlDLOhJCBCuPcOOIWjwzWRdnZoTbzSgoNENiopiST59I0EO4lj8APEwICWoRnqDXdSWEfAngHaFxFYPWy+Ymn1KcggoKHAwD7zdPJx3TqEgbkcPeJIR8HvR7B/uClcwEsE5oMCGa6b/gwXjFKaigAOC9hxM2JcaoBoocshbA06G4d0gUACHEA2ASgONCx4zoob/irjEmJVJQoVlz7zjz5sFddWKRfqcA3FE5p4JOyFo7EEKKwdUUFEp/I09NiO7Xt4M2N1QyKChImd7ttIcfvcncT+QQOziPf2GoZGh8k/Z6oJROBLBc6F5elp67el6BvqSCTQi1LAqhoX8nLa4ZWN0n5oNfylFsUZJBxYgzM8V/vNTCqmIg1GWLAriTELIslHKEvLkTIeRbAG8KjasYkrbs6eTTKgYhMXEUQk/7FDUmZBgv/2fSR65zsBxQMfAsfyb5tMjkB4BXQz35gTAogErmAvhNaDAhmun3n0cSNoVJFgWFiPLhowlb4kxMX5FDVgN4LhyyhEUBEEJYAHcBEAwCGtJFN/rBa82KElBo0vz1KtPm/p10YpF+J8CZ/mHZJg+brUYIKQFwIwDB0i8PXWMeODBdezBcMikohJPe7bWHZtwQ3V/kkApwXXzCFigX1sUaISQXwL2AYA8B/QczEmMSopmQeT0VFCJBYjRzaeETiTEADAKHUADTCCEHwihWeBUAABBCvgfwitA4wyDt23nJFzTq4CQ7KChEGrWKcS97Jvk8wyBV5LCXCCHLwyZUJZFy1z4HYKXQoNnI9Hp/erySOajQJPj0iYStsVFMH5FD/gDwYrjkqYk6EjclhLCU0sngOph05zumfyfdFX+7zpz54S8Wsc6nsiAtQYV2KWrEm1WgAIrKvdh73AWbs/E1AVvEqdCxpQZxJgZqBiipYJFf4kXeOTdoEEoOdmihRtsUNeJMDEoqWFwsZXHojAveIG/zq1UE3dtoEG9mEGti4PEARRYvck65UW6Tb0zBfePNm3q104g5/fLARfpFJDcmIgoAAAghFkrpBABZAH+DwwfGmwftPOLK2Znn7BFe6QJjw+stYDJwxtSxCx7c9vJFAMA1Aw24e6wJXVpp6pzjclP8utOO//5UjpKKwB5whgFuGmrErSOjeK8NcNV2V2fbsfAPS4OCcsb1M+CB8SZ0aln3+mVWFmv3OPDJ75ZGF/Ts1U6LqeNMGNJVB6OubqyYlwV2H3Xik98rZFdOfXAX3YFHrjOLFfawgIv0i1jHmJBHAtYHpfRGAN9DYDnCUhRc/3wBLSjxtgivZP5TWwHc/spFzL0tBpNGiGV2cpwt9OCBd4r8nkgpcSoseDBecOLXxuakePWbUvyynbc9fB20aoJ/3hOLcf2EfFXVlFawmPF+Ebq30eCZO2Ivf37LPy7i9CXxuC6DlmD+XbG4qn/996liZZYNLy0tg9sr/WrKSbGqi7++mMIyDISeWwqumu+34ZSrNhFXAABAKX0BwPNC4xYbe+DqeQXpTg/lrT4caWorgNXZdvzt2upCrucKvTh9yQOWAp1S1UiJ823nnnPKhb/+u7BeszotQYWPHktEanz1+R4vxdZcJ46c98DjpWiXosbInnoYtNU/LaXAm9+W1duVSMUACx5KQEZ33z/zqYsebM11otjCIjmWwRW99EiK4WTIL/FixSYrZtxQXd24PgUQbWTw3vQEdG/jq8Ryz7ix97gLJRYWahXQIVWD4d11Pt9l+2EnHvugWNJKQK1i3Kv+lZwbE8X0FjlsPiHkn2ETSgCpKAAC4BtwGYS8HDztXnf3G5fGhE8q/6mpABwuCq2GgCHA5oNOvPNDGY5d8J0Mo3vr8cKUWJgN1UbP68vLsGyj8ARVqwgWPZmIHm2rJ82uoy7MX1KC/BJf6yHayGDOrTEYP7D67cqywIPvFor23rt7rAlP3Fw9kZ1uiteXl+HHbTYff4KKAe4fb8YD480ghLMyaprvYgqAEODth+Ixoof+8meHzrjx0tJS5J5x1zk+3sxg3h2xGN27+vgVmVa88k2Z4PeINF/MSsrs3kYj5rv6EZzpH3HnhiSCtgkhFMA0ADlCx3Rvoxnz6A3Rku82pNdyk395phWPf1hUZ/IDwPp9Dsz8pMRnUt06Uny5MHl0lM/k33PMhRnvF9WZ/ABQbmPx7JIS/FCj5j7DAC9MiQUj8IvHmxkfq4WlwDOfl+CHrbY6zkQvC3z0qwWf/m4BAN61uxAThht9Jn/2MRemLSjknfwAUGxhMWthMbYcrF7/TxoZha6t/VsChZsnJ8RsqGfyHwIwVQqTH5CIAgA4pyC49GFBh8i9V5mGjeqp3xs+qRpG7hk33lhRJuqF33nEiQ37HZf/3b6FGimxKt5jVQxwxxXVCsLloZj/ZQlcbuEbUMp12z1ZUK2AWiWqcUUvPe/x1w4yQl/D1P5pqw3r9zl4j63i498tyDnFP3H5YBhg6rhqJVNhZzF7YTGcIt8D4KyXV5eXgq0xZaaOM/l933AxrKt+/5QxUcNEDikH9+aXjPkiGQUAAISQPHDVhYU8Ypq3EP0eWwAADJ5JREFUHoxvmRqnvhBGsQJm8ZoKv7bJ1u7xdcwJvdUGput8/AardtlxrrB+p6HLQ/HBLxafz64fbOQ99uoBvs64RastvMfVhGWB91b639RzWFcd0hKrv8fXG6x+71CcK/RiR161FZDRXS9ozUSClBh1wbsPxyUD0AocwgKYXBkNKxkk9CfkIISsgohDkCFIWjYvqVCrJv65tcMMS4Gtuf5tVx0577s8iDPz/xy9O/g+U3/uFX8z12TDPgcs9upJ1rt93edTqyHonFa9I3z4rNsvBQMAOw47UeDnDsbAzr7ORX93JqrIPl7tv4jSE3ROk8YyQKsljuXPJRUyDEkROexZQsgvYRPKTySnACp5GZxTkJcoHen15aykXWGUx2+Kyr2osPv3Viuz+h4nlEffrZZlcEhgvcyH20tx8HT18fFmps5So0MLNdSqavP/0Fn/r89SYP8J/6K2e7erVj7FFrbercLaXKqlaFrE8S+Zws2iJxJ3RumIWKzK9wBeDZc8gRCxQCAxCCGUUnofgG4AevEd07GlesTfJ0RveOu7crF6amGnwu7/9pS7VktstcDzHGeqVgwuD/X7jVvFiXwPhnSpfvvGmRmfa9S8PgC/3/41r+8PiTHV9zEZCH56XuyFWRdDLWdjbFTk319zbo3e0K21RuwZzAVwb6WjW3JIUgEAACGkojJIaAeARL5jJo8xDd951L1nwz67WHGFsMKG4GeONlY/6DZH4Dew1AqlrXk9AJe3MKuwOgJzUFv8VHoxNSasVk18/AENoabTMhJkdNfvu22USczpVwLgBkKI/46SMCNZBQAAhJCTlNI7AfwOgO9p0bz1QFybCf90nTl90StWXknWkBrPeUMUTO2YGVWtF6eq1jwK9B5eP09QMdU3crgoThQ0rgpcJOsOpiWozr/9t/g0iDv97iKEHAujWAEjaQUAAISQNZTSZwC8xjsOxC+dk3xp7NP5NoeL8ru4ZU5Nn0KUPvC3ntnge065zXfCWmpZFYHs6wN1LQghSq0sjDpOjxdXsJjyetA6XIUVnZY4ls5NLmMIuokcNocQIlgGTypEfhHlB4SQ1wEsFRrXa0mXL2YnZYdRpLBSaq2eoDoNQbzAboEQbZN99Xxphe8av7YzMlkgHkGItAT/ji+p8cZOjmGgVUsiEDVgPn8qcWeUnohN/v8RQgQL4UoJWSiASu4DIOj575Ciznj6thjBFuVyJq+WVz6Q7S+GAbq3qbZSLXYWF4p9FcDxC26fIJt0ngxAMXq0FbKCfdl/snq3QK0i6NfRv/OkxHOT49Z3TtOMEDlkL4AHwiVPY5GNAiCE2AFMBCBoN04aGTVi/EB9UJsnSoF9tbbZhKL5+BjSRedjMRw46a6zxrc5fdfjvdtrfBx2YnRqqUHHVP9WkjUDeQDg+iHyWrGN7WPYffMwg9jkLwYX6SfUIVtyyEYBAAAh5BS4cGGhjWrVS1PjO7ZJVp8Oo1ghJ+uw08dMv2aQoY4nnw9CgPuuNvt89vsu/uCbmlGJahXxK5UZAO6/2v+Q3C0HfYOGxg8w+OQ3SJnWieqzr94X2w7CfjMPgEmEEMF2eFJEVgoAAAghmwDMFhwH4r6ek2w36hjx3FcZ4XRTfF8jscdsYDBzYozP7gAfk0ebfMzsYguLVbv5FcDP22w+y4B7r+QvZFKT8QMNuDKAfH6Xh+Lz1RWX/80wwBv3x6NVYmC+6DgT43c9hGCg0xDr108nWRhC4kUOm0kIEWyIK1VkpwAAgBDyNoBFQuM6Lbp8/XTSfkIEqw/Ljs9WV/is3a8bbMDL98Yh1lT3J9RpCB6/ORpP3hLt8/lb35UJJhCdL/bim8xqnWnUEbw/PQGjetZdbhACTBoRhRemcEVA7C7//8wrMq3YlFMdypwSq8IXsxJxy3AjNLX3I2vAEGBYNx1emxaH315KqZO7ECoIAV06N2mfXivq9PuSEPJOWAQKMpLfBhRhOrgoQd6SS2kJqqHPTY5Z/4+vykaHVaoQUWFn8dySErw3PQE6DTdRrupvwKieemw75MTxfK4gSOskNTK66+osEX7OsuH3neKx9++vLMfw7jq0SeIei1gTgwUPxSPvnBu7jrhQamWRFM1gWDf95SCeS2VeLM+04ZHrzWKXvgxLgXmLS/HhowmXQ5yjjQyevTMWj90Ujd1HXThb6EGplYVeS2DQEnRooUGXVpqAdz+CwYt3xW1om6weLXJINoCHwiRO0JGtAiCEOCilNwPYCfCXW75paNSoXUc9O37JsorVZZMN2cdcePSDYix4MP5yPIBeSzC6tx6jRWrPrMi04rXl9WegWh0UD71bhA8fTfDZOuycpuHdebDYWcxZVIJOfjoBq6iws7j/7UK8cFeszxIi2sj4FP4QwxOGikBX9jfsum6IQSy3vwDATXJy+tVGlkuAKggh58FVERLKRmFevCsmvX0L9akwihVSdh1xYuJLF/Fzlq3eSXDojBvT3yvCK9+U+R3dd7HUiymvX8LXG6yi1z90xo173yrE3uMNa9/gcFHM/awEj/y3CNnHXH5VMC63sfhjlx0z3i/Ch7/Un67cGNokqU++8te49uCPQAU4R/TthJAzIRUkxMgzEqMWlNLpAP4rNO7y4vi4uReSrA7qn50qE0wGBkO76tAxlSvbrVETFJV7kV/iRdZhZ8BJPbWpeiO3S1Ejxsig1MqioNSLrENOnLoY3GbO8WYGgzvr0CZZjZgoBgYdgcNFUW7lsgaPXfDgyHnfeIVQEaUj1tUvt7ig05JOIodNJ4S8H3ppQkuTUAAAQCn9GCIBGBeKPFk3vHhxMKVN5zsrBB9CQH94LnlbqyS1WJLPEkLI1LAJFUJkvQSoxXQAmUKDqQnqIS/dE78+fOIoyJFXpsZtqGfybwPwYLjkCTVNRgEQQtwAbgNwTuiY8QP1V9w01LAlfFIpyIkbhxq3XznAINbFJx9cLX95dSgRockoAAAghOSDcwoK/UDMc5PjendppZF0iqZC+OmUqj4xf3JsVwjPCTeA2wghZ8MoVshpUgoAAAgh2yCyL0sITJ8/lciYDYxkKrMqRJYoHalYMiuJJQTRIofNIIQILjHlSpNTAABACFkM4EOhca2GtF/2dFIuQwSrDys0ExgCdvmzyQd1GtJR5LAPCSEfh02oMNIkFUAljwEQTA9OiVMNfXVavOQbjSiEltfvi9uYEqsaLHLIVgBPhEuecNNkFUClU/B2AIJrtrF99aPvuMK0NXxSKUiJm4cbssb0MYgV9LwALsOvyTj9atNkFQAAEEIKANwIQCgInsycGN27W2v10TCKpSAB0tM0x5+9I647hGNhHABurow2bbI0aQUAAIQQ0WQNQhD12d+T1GYjUxxGsRQiSIxRVfrFrCQVIRCLDJ1BCNkeNqEiRJNXAABACPkCwLtC4xoVafftvOSTDKM4BZs6DAG79OmEIxoV2ooc9h9CyMKwCRVBmoUCqOTvAAQLNiREM/3feiBBcQo2cRY8FL8xJVYtlh26GcDMcMkTaZqNAiCEeMA5BQUzA0f11I2+8wqTEinYRLlzjGnriB56MaffaXA1/RqW4ihDmo0CAABCyCUANwMQyt8mMydF9xvRXbsvjGIphIHBXXQHZk6I7gNxp98kQsjFMIoVcZqVAgAAQsgeiCdzGN7+W2KbET30e8Mlk0JoGd3LkP3+9IQ2AMTKED9ACNkRLpmkQrNNjaWUvgnOLyCE45PfLTs+/MUiVhFGQcIQAvroDdGZU680DQGgEzl0ASHkqXDJJSWaswJQges5OE7suPxiz/bp7xennCzwiHmNFSRGxxbqE+/NSChMilHVVw5uLYDxlT6iZkezVQAAQClNALAdQId6DnXlnvFse3NFadKe4y6x6rAKEWZwZ92BpyZGl6a31AwBUF/t8JMABhFCCkMvmTRp1goAACilvQFsAeBXJwy3l57OPeU6ueOIi+w/6TaXWFhDud0rrxY3TQAVQ7yxUYw9OY6xdm2ltQ1M15GurTQdGAZpfl7CBiCj0ifUbGn2CgAAKKU3AvgWMq6SrBAQVV18foy0IJGm2e0C8EEI+QnA/eAeDIWmjQfANGXycygWQA0opdcD+B8gGiOuIF/KANxJCPkt0oJIBcUCqAEhZCWAPhApLqogW9YB6KNMfl8UBfD/9u7YBIEoCALo2w4MDExswCYUM2MTO7QEC7ngwosN7EBYgztQBEUx+Aj7KphoYWBhnkTEgLXxbbhvHKf8rsM+IrbTunR5UBXgjcwMbHDADsumgcqnBpxwnNakywt1AL6QmQusMMescZxydzX2+zP6iLg0zvM3buqr2TW3XavzAAAAAElFTkSuQmCC;" parent="1" vertex="1">
          <mxGeometry x="746" y="118" width="256" height="249" as="geometry" />
        </mxCell>
        <mxCell id="et1fOOYHSfHHCLRn4kue-10" value="" style="shape=image;verticalLabelPosition=bottom;labelBackgroundColor=default;verticalAlign=top;aspect=fixed;imageAspect=0;image=data:image/png,iVBORw0KGgoAAAANSUhEUgAAAQAAAAD5CAYAAADImOsDAAAABmJLR0QA/wD/AP+gvaeTAAAgAElEQVR4nOydd3wUZRrHf+9s3+ymF0LoEHrvEEA4ULErYEMUD9spWI+mKOqdZ/dQ7+yCgnqIYMdGkRJaaKGFQOg9gfTN9t15749JSDaZmewmW2aS+X4+fvyw75Rns/M+87zP+xQChWYBpTQFwPUARgDoCyAVQAqAcgB2ACcBHASwDsAqQkhBZCRVUFAIGpTSsZTSnyilXuo/bkrpt5TSsZGWX0FBIUAopYRSegOldGsAk16IbErpPZRSVaS/l4KCggiUUqZy4u8KwsSvzYFKRaCO9PdUUFCoAaVUWzk5D4dg4tfmBKX0cUqpIdLfW0GhWUMpjaqcjGfCMPFrU0ApfYFSGhPpv4NCwyGRFkAhcCilcQBmAHgcQEJg58JSbqfHL5V6rE4XvACg1xFVcgwTYzIwbQmBKUBxCgG8C+C/hJCSAM9ViDCKApARlNvKewrAwwDM/p7nZenFzBxn7pdrK5L3Hnd1ZSn/765i4BmYrjt89zhT4ZAu2l4MIfEBiGcB8D6ABcoWonxQFIAMoJS2BTALwDQAfq+9nW56/NNVFReWrLYO9nhZTSD31KmJ876rzTvuudLUWqNC2wBOtQNYBOANQsipQO6pEH4UBSBhKKUdATwG4CEAOn/Pc7ho3sLVFZc+X2UZyrJo1PYdQ8BeP8S4a+bEGFOUnnQL4FQ3gK8BvEIIyW2MDAqhQ1EAEoRS2hvATACTAf8nsMXG7v/39+WOn7NsA6mAmd8YxvUz7H52cqzWrCc9AziNBfArgH8SQrYHWyaFxqEoAAlBKR0BYA6A6xDAb2Oxsfv/sbTM8+cee7+QCVeD4d30++dNjnG0iFUNCvDUzQBeIISsCYVcCoGjKAAJUGPiXx/AaWx+qXfX80tKonYecXUPkWii9G6nPfzs5NjCjqnqoQjAUgGnCF4DsJIQQkMjnYI/KAogQlBKGXBv+mcBDA7gVPexC57tzy4uTs075+kQGukCo2sr7ennp8Se75ymHgggkEjBfQDeAvAVIcQbGukUxFAUQJihlGoA3AlgLoBAnGrOYxc8O+csKm51It8TiFc+bLROVJ99dnLM8YHpukEIYLcCwDEArwP4jBDiDo10CnwoCiBMUEq1AO4A98ZP9/88WHcdde6av6S0S0GpNyVkAgaRhGimcNakmJxxfQ39CEF0AKeeArAAwMeEEHuIxFOogaIAQgyl1ATgPnD7+Gl+nwcUr8m2739lWVnvMisbFzIBQ0hMFGOZfWvMvqsHGLoTIJDvcBHABwDeJoSUhkg8BSgKIGRQShMAPFr5n98RdSxF4do99pyXlpb2r7BTv6P9pEyUjlin32DedevIqC4MQwKxYsrBKYI3CCFFIRKvWaMogCBDKU0G8AiAJwD4nSjjZXF2RWbF8Xd+tAxyuptmpp1GTVx3jzPteHC8uVWA0YVWAAvBKYKzIRKvWaIogCBBKW0H4EkADyCgcF0c/XSVpWDxKssQLxuQB122qFWEnTLGtPPBa02JOg0JZCfDBWAZgJcIIXkhEq9ZoSiARkIp7QFuD/9OBLAF5nDRwwtXVxQGI1xXrlwOM54UY4zSkR4BnFoVXfg8IWR3iMRrFigKoIFQSvuCy8xraLjuIKqEwFymgdGFFMAv4CyCrBCJ1qRRFECANDRct6iC3T1/Sal2W64jkDj6ZkcNRTAQgT2fmwG8Rgj5OUSiNUkUBeAnlNJxAF4EMDyA09j8Uu+u5z4vMe0+5gok6KfZ07OdNm/+5NhLDQgz3g3gVQArlDDj+lEUgAg1wnXnAxgYwKnuYxc82+ctLkk9cs4tiXBdudI2RXXmmdtjTwxM1w1BACnRAPYDeBPA/wghntBIJ38UBcBDjXDdpwF0DeBUZ85J9/a5n5d0PF/kaRka6ZonrRJU55+7K/bowHTdQADGAE49Dq5k2UeEEEdopJMvigKoAaVUB2AquHDd1v6fh4pdR5275y8u61JQ5pFFuK5ciTczRbNvjTkwrq+hLyH+x1kAyAfwNoD/EEJsIRJPdigKAACl1Ayu3NYccC2z/IKltHjtHsf+V74u71Nm88aGTECFOkTpSMX0G8y7bx1l6soQJAdwaiGA9wC8oxQxbeYKgFKaCK667mMIIFadpbi0Mst68LXl5YMcLhqIOaoQZIw6xjrjBtOuW0ea0hnGf+UNrojpZwBeJYRcCJF4kqdZKoDK6rpPgovT93sCe1mcWZFZceLtnyyDXS6qD5mACgFTFWb8wHhTmlZF2gVwqhPAYnCxBGdCIpyEaVYKgFLaHlyM/oMA/J7AThc9+unqimYVritXqqILZ0+KMRt0JBAHblUR038RQg6HSDzJ0SwUAKW0F7h03EDDdQ/95ydLybKNFUNDUWRTIXQQAnrDEOPOp26JNpqNTEPCjF8khOwMkXiSoUk/1JTSfuC28iYhwCKb//6+3PHTNlugRS8VJEgjipiuATCfELI1FHJJgSapABpYZJPml3p3vvhlmWH7YSVctynSu7320PN3xZa3S1EPghJmDKAJKQBKKQE34Z8BMDSAU9n8Uu+uZz8vMWUr4brNgm6t1UdfvDu+oGOqeggCK2K6B1zJsiZTxFT2CqBGuO4LAPoHcKrr2AXPjmc+K2559IKnfUiEU5A0bZJVZ+bdEXtiYLpuMAJwCgPIAVfEVPZhxrJVADWKbM4D0DmAU607jzh3vfBFWfqFEk8g+8YKTZTEaObSvNtj80b20vcjJKAw45PgogtlW8RUdgqAUhoF4H5wrbNa+X8eF6777JLSrpdKvYFEjik0E+LMpHjOrbH7x/Uz9CFAIJGdBQA+BNcZuSxE4oUE2SiAGuG6cwG08Pc8lqJo7R77gZe/Lu9bbvMGEjuu0Ewx6Yn1kesbVMS0CMB/AbxLCCkOkXhBRfIKgFKaBGA6gMcRgFb2svT8ikzr0Xd/sgxUwnUVGoJOTZzTrjZl//UqcxsVg0CyOyvAtUh/jRByPkTiBQXJKgBKaRsAfwdn7vs9gd1eeua7TdYT7/xoGeJ000DyxxUUeFGrGPc9V0Ztf2C8OVWrQiD1HZwAvgHwD0LI0RCJ1ygkpwAopR3Ave0fQgAFIJwueuTT1RUXm3ORzUBIjFZhXD89cs+4sfe4K9LiyIIaRUyjonQkkIasVWHGrxBCckMkXoOQjAKglPYG59gLqMhmhYPuf+vbMsfPWbaBSriuOAwBRvbUY0KGEcO66aFiuM8Pn3Vj2QYrfttph8ujVNHyh+Hd9PtfmBLrSYhmAmnJXhVm/A9CyI4QiRYQEZ8wlNIMcI69gIpsKuG6/qNREVw9wICpV5rQoYVw3EuxhcWKTVYsXW9FuY0No4TypZFFTJ8nhKwNkWh+ETEFQCkdDK5445gATmPzi71Zz39ZZt55RAnXrQ+TgcENQwy4Z6wJybH+r4psToqfttmwZE0FCkqbRMBbyOnXUXtk/l2x5W2S1P0AMAGc+ieAOZFKPAq7Aqjcx38LXEquv/f3nMh3b312SWnLQ2fcHUMnXdMgNV6FKX8x4aZhRhi0Df+JXR6KX3fYsWRNBU5dlHXAW9jonKY58+Ldcec6p6kHwv8wYwrgfQCzwh1QFFYFUJmP/wsAf2PunQdPuzc/t6Sk/ckCJVy3PtISVZg82oQJGUZo1cH7aVkKbM5x4JPfK5BzSnEY+kPrZPW5F++KO9mng2YA/A8zPgDgOkLI6RCK5kPYFACltDuAtfAjiIdSat2R59r+wlel3QpKvH4H/TRXOqaqMXWcGeMHGi479kLF3uMufL66AhsPKAV2/SE5VlX4zB0xeSO66/sQgig/TjkH4C/h6n0YFgVAKU0DsBX1V9q1rd/v2PHS0tJeJRbW75bazZUurTSYdpUJY/saQMK8mKtSBJk5DigtzuonJoopmX9X7L7RvfSDUH9cywkAGeGoVRjyx4ZSqgawDsAIsePyiz07pi0oalNQ6lXKatdD345a3DvOhJE9I1+W8Oh5N75Ya8VvO23wKhsH9dIiTlWw6KnE0yn1FydZB2AcISSkf9VwKICnAbwscoj3m43WTa8tL7si1LLInb4dtXjoGjMGd5FegOO5Ii+Wrq/At5ttcLkVk0AMQkCfuSMmc8LwqBEQ3zF4khDydkhlCeXFKaUtAOQBMAsc4nn1m7KdyzOtgRTwaFYQAozsocf9403o0VYbaXHqpSqW4Kt1VlTYFZNAjCl/MW198pbowRAOfCsFkE4IKQyVDKFWAK+DK8bJy8e/WTZ99KtFdGnQXGEIMKKHHn+7zowurTSRFidgyqwslm1Ugorq44mbozPvHmsaKXLIPwkh80N1/5ApAEqpHsBZAAl84/tPujPvfeuS2BdvlqhVBOMHGDDtahPaJsu/ArkSVFQ/S+cmbe6cpskQGM4H0IYQ4g7FvUOpAK4Ft+dfBy+Ls6NmXUhwuKghVPeXGzoNwS3DjbhnrAkpceHPZXK5KbSa0BmELg/Fz1k2LF5TgXOFiiKoSZSOVKx7vYVNxRChQjVjCSF/huLeoXzFjBcaePen8tMOF/W7mk9TRqsmuH6IAQ9eY0ZSTPgmPku5JKCsQ05k5jiw77gLqQkqjOqpx8ieegzopIVaFTyFoFUTTMyIwi3Do/DnHjs+/NWCE/lKdCEAWJ3UtOiPir0PXGMWUgDXgAsZDjqhtAD2Auhd+3MvS88NffJCi+aeshuJiV9uY7H9sBNZh53YuN+JwnLhN7FRRzAwXYeRPfUY2VMXdBmrogs//s2Cg6dDYt3KChUDz7YFLQsZhjdQbgchZHAo7hsSBUApjQZQDB7v5i877OvnLykZHYr7ygGNiuCGoeGb+MfzPdi434Hth53YddQFjzfwLTqGcEFHQ7rqMKqnHr3aa8EE8cnJOuzEByst2H+yeYcZv/lA3IYxvQ182+FuALGhaGseKgVwFYA/+MamvH7paO4Zd6dQ3FfK6DQEEzKMuPdKExKjQzvx7S6KJWsq8P0WGy6VBX+9HW9mcONQI6ZdZUaUPniPUNYhJxb+YcGuo81TEfTvqMv95IkEoTyZMYSQ9cG+Z6gUwAsAnq/9OcvS/EGPX2hWsf1Vb/wHxpsDSskNBucKvcjMcWDjfkeD3/5VhNoKqElzDTMmBHT7O6klDCF8YfDPEkL+Fex7hsoJyLu3f7bQexwBVPSVM1oNwYTh3Bs/nM49AFi7x4FVu+0Y2VOH8QMMuOOKKJTbWGzNdWLzQQe2HHSipKL+vfloI4Nh3XQY0UOPYd10iDMxKLex2JLrxDcbSzCsuw7XDw5+vdU+HbRY8FA8ck65sWiVBRv2Nw9FQCnIpTL2aEqsim+9PzwU9wy6AqCUqgDwOiy2HHI2eW9PJN/4VdicLNZk27Em2375zT2qF+fdv6p/HCjq7gCwlROsY6oaI3vqMbiL7vJOwLlCL/7YZa9jSfRqH9rIxB5tNXjrgXgcu+DBkjUVzSLfIOuQw37jUN6kweGUUibYuQGhsAD6QCD0d81ue5NtyKHVENwyjHvjR2ri88FSIPeMG7ln3PjoVwtS41UY0YNTBpNHR+HeK00otrDYd8KFHm01SIpRwe2l2H3Ehbd/KEfmASfOFkZ2u65jqhov3h2LaVebsGhVBX7faW/UckbKrMl2xgkogFhwdTRygnm/UCgAoYgm674TrvQQ3C+iaNVcAI/UJr4QF4q9WJ5pxfJMKwxagiFddbhhiBGje+uxNdeJN1aUYWuuEzan9CZY22Q1XpwSi4euNWPx6gr8tM3W5IqY7sxzdgFXTpwv4ysDQVYAoSgfwbtWKalg87xsSAOPwopGRXDryCj88HwyZt8aI4vJXxu7i2L9Pgd+2MrtLq3cbsPaPQ5JTv6atIxX4enbY/DD88m4fVRUSCMYw43TQ3UWG3tEYFjo5dpgwmYB7DnmlFXPNCEYAvylrwEzbjCjdVLT0Gek1v/lQkqsCrNvjcH94834al0Flq63wtkEUpEPnHIVDevGW+tB2gqgsvIPb9WfNXvspmDeKxIM6aLD4zdHyzI7T4yqakLhrioULOLNDB69MRp3jTE1CUWwdq9TL6AAOlJKU4NZKSjYSwCh7D52c45TtsE/Azpp8dlTiXh/RoIsJn9D57FcFUAVVYrgpxeSMWlEVFBzGcLJ+n22dHCVgvkYFsx7BVsB8JooThc9ZrHTQNotS4K2yWoseCgeHz+eiN4h3vKKJJctANktAvhJjOZ8BN88k4R+HeX3u5VYaLzbi1MCw0FdBgRbAfA6APPOe0Je3DDYTMwwYtkzSRglgbp7YaNpzP/LtE1WY9pVQsWopM2JfPdZgSFpKoDKhh91sv8AYP0+u6xc5AwDPHJ9NDQyNSEDXf3K3fQXY2BnLYw6+X3BTOGy6/0pDV67+2BaAEMh4FRcu9deXzlwSdGvgxaxphAX2A8hgT7uVceHKrY/kmjVBIM6S6+Ian2s3WNvKTCkATAwWPcJ5lPOa5qwFBfPXPS2CeJ9Qs7o3vIuVKRYAL4MSJefHyDvnKc9BUoEhoOWFxByBXC+2HssiPcICxk95PfGqIm+gYExgZ6lk0kAzsB0+f2elIJcLPUeFRgOmh8gKAqAUsoAGMI3tu2gQ1bJ3YnRKtkX47yyvwHvz0hA5zT/tixJpQngryXQJkmN16bF4eZhwc8EDAXpaRpZLul2HnFZBYYyKudcownWX6UXgBi+gdV7nIlBukdYGNhZfuYiH0O66PDVnCT84+64eguQED9DAaON3D77smeSMK5f+NuRNRSGQJbbgWt22+MEhuIAdAnGPYL1qhNak9j3HnfKKgFoQCf5mYtCMAS4brABY/vq8fUGKxb+YeGN869v/mtUBJNGGvHQtWaYDfJ7kwLcMmDdXnk1NM067OwMwAWAT3tlAMht7D2C9WvyrknKrPSw20NlpXrl6DCqD72W4N4rTfjuuWRMyDCC8fNXJwQY18+Ab59NxsyJMbKd/AAXzSk3nG5qqHDQkCYGhVQB7DnuLA3S9cNCU1j/i5EUo8K8O2KxdE4ShnWrtnSqTPma24ADOmmxZGYSXpsWh7REWYVx8NKppQYxUfJTYAdPuoTagklDAVBKWwJoxze2do/Dn37okmFgE3z789GppQb/fSThcm5DTdO/bTLn4Pv48UR0byP9vAd/IQToI8Nw7j/3OYTWpOmVvTcbRTBUopAmoptyHLJKAOonQzOxMQzposOXs5Mw9UouUfO2UVFYPi8Z4/rJOw5CiL4ydASu22vvKDLc6Ka6wVAAvA5Ap5seL7OyQl5MSdK3g/wekMbCEFzeLuzUUgOV/Kxkv5GjAigsZ5PcXnpaYLjRy4CQWQDHLnjOB+HaYSNKT9ChRdMxeRXq0r2NBnqtTPYua3CqwHNGYKjRCqBRHi9KqQFcEdA6rN/nkNVfund7rd/e8UhT1e0nM8eBUwUeDEjXYUgXHa7opUdCdGi/RLGFKy++8QDXbahDqhoje+gxpKsO3VpLW4FqVATd22iwW2aNRzIPONhOLXn/tv0ppXpCSIP3Nxvr8h4C/j1K/LnXLqvmn1LO97c5KXYd4SZd5gFnnW4/VSXAX/kG6JJW3byjd3tto4N1WBY4fM6NzANcg5FDZ90+Nfr3HHNhzzEX/vMTV6tvaDdOGQ3vrpdkFl7fDlrZKYC1exypf+VPa9YBGABgc0Ov3VgFIJQAVHgi39O2kdcOK1LzEDekqw/LVpcA/3x1BeLNDIZ345p7Du2qg8nPffzSChY7jziReYBTOuU2/0rRny/24rvNNny32QathqBfBy0GV1om7VtIY3u1b0cdgIpIixEQh866O1KghHARgLXJgNQUQH6J9ygA2YQAM4RrQhFpzhV5sWRNBTIPOFBQ2viefsUWFiu327Byuw0aFUHfjlrcMMSIawfVDeN1eSi+2WjFqt125J52X24U0lBcboqsyk7E//mpHO1S1BjTR497xpoQbYzcWqtPew0YgkZ/v3BCKUhhmfdoUoxqEM9wo/wADVYAlFICgQSgrEMOZ4MligAdW2r8fjuGkrQEFR653oxBnbXIOuzEhv0OFJU3vhFMVbefqp5+fMsCrZpg8mgTerXTYuMBB7IOOZF7pvGNnBpqhYQKk4FBp5Ya5J2TV5OqHXku27WDeLdnh1NKCSGkQSqtMRZAdwB8TQyxercjoRHXDTu92kX+7Q8An/5hAQCM7KHHuH4GPH0bsP+kC5tyHNh80Im8c26/euRFGxkM7apDRg8dhnfTI97MXO4NuDyzBI/eFI2UWn0Mdh914Y9dXD/BB68x49Ebo3GuyIvNOQ5sOujEzjynX5V2VQznTxnRQ4/h3XXonKYBywJ7jruwaFUFOqSqQ9JPMBD6dtTKTgGsybbHCiiARACdARxuyHUbowCETA/nnmPy6gDURyL7/0fPe7B6tx0frLT4vDn/epUZ02+I9vHAbzvkRIW92jpIS1RhVE+u5Vf/TlpoKnv6rdrN9fTbfdQFd6Uf4W/X1XUoldtYrNhkxYpNVug0BH07aDGqlx5jeutx26goON0Ue467sP2wE+v3OXCyoLpdWKyJwcB0XeX9dYg2cgpn+2EnlmdasX6fA8UWTtaHee4dbvp00OKbjUKZttJk26F6E4OkoQAsNvaw00N5awNKlV7tpKEAalJz/a7TEAzuosPInlyn3usGG+D2UmQfdeFCiRdDu+iQEqe6/Nm7P3I9/c5calhPP2eN9fub35ahc5qmcgmhw/QbovHojdE4ke/B7mNOdG2lQbc2XKvwE/ke/LDVhk0HHNhz3CXZRp5yTA12uqnB6qQHo3SkO89wBoBFDblu0BXAvhOu4kZcM+zEmRi0kXiHH6ebIvOAo7JQZBm6tNJgRA89bh5uxOAuOvy20471ex3YesgBqyO43i1KuU7Ch8+68envnGUysoceVw0wYGJGFA6fdePf35VJoomov6TEqtAyXoXzxY13tIaT3NOuSwLVjRrsCGzQk08pTQHAG6O8dq9DHmViKunTofF75eGmakImxzCYNDIKr31TBos9PK/bYguLH7fZcPqSB0O76vD9FhuWZ8rLnAY4P8D5YnukxQiIP7MdOgEF0JlSmkQIuRToNRvqkhVMAMo84BBLXpAcUjT//SaCLb3k3k5MKn6fQPhzv6ODwBBBAzsGNVQB8CYAubz0ZLGFldUOgBwfBIXG06+j/Co/XSr1JntZCOUFNKhScFAtgGPnPecaeL2IoFYRycevixHJt69cOwpX0aGFOqIBSQ3lZIEnqJmBAf8FKKU6AP34xjblBNkDFWK6tJJndlgVVb38IqIIAqwkLDUIkaf1t/mgU8hzOahybgZEQ1TgYHBJCHVYm21Pa8D1IkafDvJ9+wORXYfLdN77IMf6D6t321MFhnQA+gd6vYYoAF5TgwLFRy942jfgehGjt5wdgIisGS53JyAgz3iAQ2dcHSlFmcBwwMuAhigAXmfDxVLvUUrl9WKQcgqwXyi7AI2iWxsNtDLpblQFS8EUlXuDVik4IAVQmQDEW4cs65BDVpuqKbEqpMRJq9qtvB5FDiJLqTm0aoIeMix8uvOIWyifeUTlHPWbQC2ALgCS+AbWZDtlVf+vlwTf/oF2523oW5jwnBBoLcDLy48A781IrAWxHB2Ba7JtsQJDiQACKsQbqAIQMjFcO4/IqwNQTwnk/9dm3p2xeOhas99maaBzqVtrDT56LAFpCXUtnxE99HhtWhxaJfoZHBrgvavaik0ZI61K8XJcBmYddqUDEIq7DmgZEGgosFACUJ7TTXsGeK2I0r2t9H54o47gwWvMuGmoEZ/+YcEPW2x+Fa6ozwxPiVXh/vFm3DzcKKg0qroAje6tx0/b7Hh/ZTlKKoTDi/2d/2oVwY1DDXjk+mjESbBBZ5/K+gj+pFlLBZuTjbI5aa5RR7rxDGcA+NzfawVFAeScdgt1L5EkDIGkA4BS4rgOPrcMj8LbP5Rj1xH++ir1meFGHcHdY02YOs7kdytvtYpgQoYR4/rpsXhNBf63zgqXh6efoB/Lj1E99fj7xGj/rYoIEFuZDHbqojwSmao4yCUGCSkAv/H7l6GUJgLgNfP/3GOTVSeJ9i3UkixYWZvubTT4+LEEZB124q1vy3DsQq2HVGASVr11H74uGvHmhr11q0z2W0dG4YOVFvyyw+bzlrysAHjO7dlOiydvjpZNHf4+HbSyUwDr9zs1AolBXSml8YQQv7JyA3k6hkPA8tuY45LV/n/3NvJ4MKsY0kWHpXOTMe+OWJ8JzWf6D+miw//mJNU5tqG0iFPhxbtjsfjvifXum7dJ4tqKff5UomwmPyC9grD+8Ge2PSiJQYHYZrymhduLU5dKvbKqACyFAqCBomKACRlGXDPIgC/WVuDz1RU+b+EebTV4/OaYkHXB7dFWi0+fSETmAQfe+q7cZ/kRbWQwdZwJk8dEQauWvmVVm94y3AkoKPWmeFl6TsUQvujbDAC/+HOdRiuAk1zXElkpADk3vTRoqx2FVidnk8+/KxZDuujCEpQzsqceQ7vpsPc4V1v/L330+OtVJlm3Dm+for5cxkxOnCrwnuqQqhZSAH7h169WmWQwgG8s84BDVn81jYogPU1eCqC0gkVWZS2+qio2KXEqdKistT+0a3gmfxUaFUHV+rNnO62sJz/AWTFSjAupjy25DiHHxSBKqV9fyF8LYAAAPd/A2mx7Sz+vIQnS09SyMlP/81M5Fq+puOyAYxjgn3fHYfxAWfldJU/fDlpszmlwh62IsDrb0WLKX0x8QwZwGbtZ9V3DX9XNnwBEUZZ3zi3kjJAkUtz/F6KonPWZ/ADX/WfxGnl1tpEDfdrLyyoEgIOnXJ0oRbnAsF/LAH8VAG8CUGG5N4+lQekwHDbkFPt9vtjDG6By5LxbNEhHIXC6t9VCrZKPZQhwiUHFFrZRiUH+Tl7eBKCdeS7ZVYPsISML4HwRf+0HSoHfdsgq90ryGLQEndOkG7AkxO5jLovAUHAUAKU0HUALvrHVu+2ySgAy6gjap5E2/80AACAASURBVMjnR96SK9xh7aPfLDieH97glYulXpzI96CwXF7ltP1FjnkBq3bbYwSGUiil9Rbo9Wc2CGkSd1aevBKAurbWgJHJgmXvcRd+3WETHK+ws5j65iVMvyEaNw41Xo5sLLNyHX5+3Mqd+/TtsRjWrXEFMI9d8GDWp8U+0XKtEtWYd0cMBneRX3FNIfp20OLrDfIyarflOjuDSwzim8sZAI6Jnd9gBWB10jyHi/bw43zJILUIQIudhUnP+GzhUQqs3WPHC1+Wgq1nmW9zUryxogzv/FCOzq00cHsojp53+3TkmfVpMT57KrFRW59vfVdWJ1T2bKEHzy4pwe8vtQg4K1GqyDEgyOZko+xOesigI115hjMALBE73x8FwOsAPHjSJasEIEA6EYAsC8xZVIw/9zoQE8VgUGcd0luqYXdRbDvkxKEAu/K6PBQHTrp4x+wuire+K8eHjza8WvsRgUaaReUsii1eJEZLq7BKQ0mJVaFFnAr5JfJa4uSecV3s30nHpwDqLRUuqgAopXEA+C6MdXsdsrP9ekjEAvgm04o/93J7zmVWFmuy7ViTLXx8p5YaDOqsRXKsCk4XxdnKrr3+7gTsyHPCYmcbFLDDUqDUKnwfJ7/ekS19OmiRv0teDtYN+5ya/p14p2OP+hKD6rMAhkPAUbghx9HObwklQEwUg5Y8hTDCDaXAV3/6t4/fo60WMydG8zqnPF6KH7bY8N+fLfW2BWuVqIZR1zDnR4WdFV2KeOWUSO8Hvdtr8YfMFMCavfb2T06I5hsiAIYA+E3o3PqeCt71v5fFmfxiL+/OgFTp0VYjiQKWZwo9fjWlvGagAQufTBD0TKtVBJNGRmHxzES0jBdWbPFmBv9+MB4qBigs92LhHxZ8vroCZSJv9ZrkCZj/VRSXN614BDmWCs8v9rZgWZwXGBbdDmyQAhDpTiJZpOIATDCrEBMl/mcf0EmLF6bEQuNHYErbZDXe/lsCb4MTg5bggxkJ6JiqxrZDTkx86RLeX2nBf34qx5TXL/nVPnz9PvHw2AOn/FsD5J5x44UvS/Ha8jJJd+VNT9PIolZEbU5f8pwSGGqYAqCUagAM5BsT6U4iWbq2koYDMEpP8N70BMEqOQwDzL09NqCotI6pavDFhE8Za0KnlhpkH3PhyY+LUVFjqXC+2Iv73y7CCZFYgh15TqzIFN6KBICvN1jrXYKszLJh2r8L8XOWDd9stOLOVy9dziaUGipGXsFiVWw56BAy1YaIJQaJvYr6A+Bt9b12j11W5j8AdJZQBmC31hosnZuEjB5186uGdNFdzvILhNtHRdWJcRjTm7v+P/9XCpe77lq9sNyLaQsK8ct2u0/IcbGFxXs/l2PG+8Vwe8XX+BeKvZj+XhHO8UQterwU7/1cjue/LPUpK1ZhZ/HER8W850gBORYIWZ3tSBYYMgDoI3Se2JPGu4VAKSwHT7tk1QI8Sk8k4QCsiVFH8MZ9cZj00kUfk7ihQTvxZgZdW2lw8HT1iyDayMDppjgtYuqX21jM/6IE7/1cjjbJapTbWBw55/arGGkVOafcmPTSRVw9wIARPXVINKtw+pIHX/5ZUbeMWY37fvhLOf55j/SCSeUYD3DglCudUlgIgZlnOAPADr7zxBQA79qhqJzNY1n+2gBSpVNLaTgAa6PTENw6Kgrv/FCd0NUiruGhyqnxKh8FUFjuRWq8CsO76+tNdS0o9aKg1PeNHG9mMLizDl1aa5CWoIbJUB1teK7Qi4OnXdh5xIVyGwuXh+LnLBt+zhJfMtRESDlEmt7tNWAIAlKCkYZloSq2skcSTAxff8AMAG/znRewBbDrqGDygWSRkvlfm5611pu0EdtqtR/YnXku9GqnxQt3xeKeNy/hgp/Ot0Gddbj3ShMGd9HVG+Xn8VJsynFi0aoK5PjpEKziqv7SrGlgNjBo30ItWQUlRPZRV/m4vrxlO0YIncPrA6CUdgDA24V0dbZg8oFkSZdwlpeq1sqkMR7y2tmDS9ZW4GKpF/FmBu/8LQGmegKBOqaq8Z+HE/DhowkY2rX+yQ9w25Gje+ux+O+JeG1aHNIS/VtqjR9gwD3jeItZSAI5dgxanW3nDQYA0IJSylu4V+iJENo68Gw/5OgcsGQRRsoWwIVak3ZzjnAGoBgXS7119uzLbSzuf6cQh8+60TFVjVkThZ4P4OoBBnwxKwnDuzfMB1HVWOSr2fVfY0wfPV68O1bSOQRydARuzXF0BiD0BuGd00IKgNf8tznpEauTSqu3kx+0TZamBUAp8O1m3+yzXUedyA0wFwAAvlpn5S0ecq7Qi6lvFuKnbTZcN9jIu8Pw4DVm/GtqnN/NQ8QwGxi881ACbhvF/5i0TVbjX1PjJF98Q46OQKuTmhwuelRgmHdOB2QBHDrjutQQwSJJTBSDaKM0c4A//MWC3Ud9182UAi9/XQonz7adEAdOuvDNRuE0VreX4pVlZXB7aJ3IwokZRjx0rTmoTlKGAWZPisFf+tRdjz41ITooiibUtE5US/a5EePQWVeBwJB/FgClNBpAd76D1+1zSNeWFkCjIpL05n76uwWf/sHvTz142o25i0pgc9Yv+KEzbjz1STFv+y4fCEABn+MGpOsw+9bQuHQIAf5xT5zP8osQzsEoB37ZbpNdmXAAWLfPKWTu9qSU1vmx+VTccAC8npz1+5yyqv8PVMa//y6tjYv8Ei8++lVcpo0HHLjnzUvYnOPgNe3tLoqFf1hw39uFKPIjHn9Edx20aoLsY5zFoVERzJ8cE1JT3KAlePbOmMvWhVzyhg6eduNfy8oiLUaDWLfH3k5giAFPaT+hKiJ18LL0/Pkij6xKgFfx8W8W9GynbXRlnGDBVL6N6+NEvgePfViMlDgVBqXr0CJeBbuT4myhB1mHnXC4/JtRGhXBw9dHY+MBx+WtwAkZxrA07ezRVotx/QxYvZvLsMs55Ub/EHUvCgbFFhYzPy3mjZyUA+eKvC1ZFhcYhncXLwPAHzU/8FsBnLnkPQlAlgqApcC8xSX4anYSUkUy58JFcqzKZ1LUR0GJFyu3iwfYJEarMHWcCQPSueq2h8+6kXXIiUtlXkweE4U4E4PHP+Dealo1wf3j+QLGQsPD15mxJpsLN/45yyZZBeDxUsxdVIwCmRUEqc3ZQs/JNslqIQXgg48CoJSqAQziu+jmg4JdSGRBmZXFnEXF+PSJREk0Bpk1MQYHTrouv5FVDDCihx692mnBUopdR13Ymef0Ke8lxKDOOrz1QDyi9NXfq2OqGtcOMsDuoth+2Il73yq8HGMwsqcuKI1D/aVtshq922sr6xzaMSHDiF7tpKcEFnxfjl1HpZmkFAibcx3uNsm8MRZDKKVqQsjluVzbAugDgPfMNcLJBrIh55Qbb64owzN3xEZaFCREM/jk8UR8ta4CRh2Dm4YZkVYjX+G+q7lc/Be+LMXhs8Lbgm2S1Hj34Xho1QSbcxz4cp0VReVeONwULMuF+NYu6DGCJwkp1Izsocfe4y54vBSPfVCMZ26PwV/6GqCSiKP95yyb7AqCCrE225F05xW80zgK3BzfVfVBbQUg1AHImnPK1SloEkaQbzfb0Lu9FtcP4U10DCup8SrMnCjshe+cpsEHMxJw1+vCYbxTxnIdec8VefHUJyXw1JO9B0Qmyq3mPcttLOZ+VgKjrhQ92moRb2YQZ2KQGq/CdYONiDOFVyvknHLjZZk6/fjYd8KVTimshIAvGCMDNRRA7b80rwIotrKHvWxAnYQlzcvLyuqtdCMVYqIY/PUq4ZDZqlyCzTkOvya/WkXC4vyrTTuefgw2J8WOPCf+2GXH1xusWPB9Oe554xLsfjo3g0GxhcWshfJ1+vHhZaEutbJ5AsM+c7y2AuCNFso+6hLqPyZLnG6KWZ+W1FvIQiqM7mUQDNSpqsh7qcw/x5XJQCJidseaGL+Cjc4Xe7HlYMPCoQPF46WY0wScfnzsOeYSMml8EoMuPwqU0rYAWvGdIZJkIFvOFnowb3GpJIOEapMQzfDmM6TEqS4781R+7udHygHKEEDtZ/B/uCbkv78rrxOJ2VRYnW0X2uZpWTnXAfhaAEIJQN5tuc4msf6vzeYcBz76RVpBQkLMvS0GnVpy9eqijQyGddPhzfvjL79Vu/iZ8ORPdGEocHtpvdWFqtCEYYXy0zYblomET8udTeKJQZctfTXfhzVxuOjRCjvbJYiySYqFqyzo1kaD0b3D7xkPhN7ttVj2dJLg+Kheeoztq8faPeKFPyrsLKwO6rNlGA7yA0hzbt+AkmiBkHPKhVe+aTpOPz6sDmp2umieTkv4snczACwFfBUArwWQd85TAKDJKgBKgflflGDJzCReR5VcUDHA6/fFo7Dci3NFXpRWsCixsMg+7sL6fQ6fgqBHL7jDnu7qb3GNHm216N8xdBGbxRYWsz4taVJOPyHyznnye7XXCCkAAJUKgFJqBtCL7yLr9trlOyv8xOqg+PsnxVgyMynsb8Zgkxit8mnVdfNwI4otXBHOqoo9u464wq4AduT5OvZSYlXo11GLFvEqqBkCg44gOVaFv/TRh6yBq8dLMXthcZ3SZ02V9fscql7teZeGvSilMYSQsqrJPRQCCUB/7nXILgGoIZws8GD+FyU+6+qmQryZwVsPxGHiSxdhdVCsybZjmsjWYrBhKbBub/XS5P7xZjww3hT2mgBvfVd+ORmqObB2j73tozfx+gJVAAYDWF2la3nNf5alBWcLPWkhkk9yrN/nwMJV8nAKBkpSjAoTMri4kMNn3dgTxomwfp/j8lv35uFGPHydOeyT/8dtNtGaCU2RM4WeViyLCwLDGUD1LgCvA/Bsofd4KASTMh/9Yqm3gq5cGVOjQMe7P4YntMPLAu/9zN1LqyGYfn34d5RzTrnwahN3+glxvshzUmCIUwCU0ipzoA5bcwW7jTRZuMzBUr/aZsmNVgnV7py9J1z17hgEg+82W3GygPtbDu8W3iQkgGth3lycfnxsEZ7DQymlagZATwC8Ael/7nUkhkwyCWOxs/j7J8UR2zMPFUUWX+fXS0tDq+gOnXHj7Ro9DzqmhreglMdLMXtR83H68bF2j+AcNgHoxUC4Zrhn3yl3h9CIJX2OXfDgH/8rlU0VG39YmeVbf6DcxuLJj4thdQT/SxaVs3jqk2KfoiVWR3hDr9/8tjysvg4pUjmHBSsFMxAw/91enHW5qLSjY0LM6t12LFlbEWkxgkL2MReWbqj7XU7ke/Dgu4VBDb89ddGDB96pe831+xwBFTttDD9stWF5ZvNy+vHhclG920uFWocPYgD05htxOGnTdIcHyH9/LkfWofAkp4SKQ2fcePKj4jp1AWqO3/1mcDr2bspx4J43C3HqYt2lRX6JFwv/CL1CPXDShdeaqdOPD5cbQpqwBwOgNd8ISwXNhmYFywJPf14i6Z72Ypws8GD6+0X1Zj4WlbO4/+1CzFtc0qCuvcfzPXjyo2I8/qFvG/LaLFplwSo/S6E1hKJyFrMWltRfJbkZQQEhR2AbNQDe8jhqNWRXAjxUlFlZzPykGJ89lSiLmvY1eXlZGUor/Ft7sxT4facda7MduGqAHlcPMGJAJy30Wv7vbHNy5cZ+22HHn/vsghZGTSgFnv+yFGkJKvRoG9xoRLeXYtbCYlxsxk4/PjQMhJby0WpwDoI6UYAGLRHOPGmGHD7rxktLSyXZzlqMs354+Q1agvhoBoVlLJxuLmvvl+12/LLdDo2KoH0LNVomqBBtZEApt0ty5pIHJws8ftUsrI3LTfHa8jIsmRncR+zNb8uDsoxpami1RGgngFUDKANQ55dgCJLiTExRSQWbEFLpZMSvO+zo3kaLO0fLpzva2H56/G8d/xLQZGDwt2vNmJhhhFZD4GWBrbkOLPyjAvtOcBPJ7aXIO+cWraCkYoCM7noM7qKD2Uhw5JwHP2y1iS4FzlwK7lv6hy02rFCcfnVIiVEXECBFYLhUDeAkeBQAADKmr+HId5usigKowYLvy9A5TY0B6dLoMVAfj1wfjV1HXHUKi7ZK5IqJ1uybWFWZeHh3PRZ8XyaoOGrSr6MWL0yJrVNm7M7RUZi3uERwG+6agcFrDb7/pAuvLVecfnxcOVB/DMIK4DgDYI/QybeNNDa9cLhG4mWBOYtKkC+TMlIGLcEHMxJ8avEP6qzDkpmJgk1TGQI8eUtMvWv0zmkavDc9gbfGYIs4Fd57JAFDutZVlH3aa/HYTcEJCS4s93KRforTj5dbhokWv93PANgoNNopVdPXbGAU1VqLkgrOKRiuPe3GEhPF4KPHEvHx49x/H8xIQEyUeEguQ4DxA8Tf0vdeaRJ1iuq1BG8/FI/xlW97QoAbhxrx/owEQcdiILi9FLMXlvhdD7G5EWcmxe1S1P1FDllLKhsGFgDgtWlXZtnXP/9lyehQCCh3rh9sxIt3R77HQKjIOuzEI/8tEhxf80oLv0t4ny30QKvmcv6DxSvLyrBik7LuF+K1aXHrx/UzjBYYtgFIZQghZQC+FbrIdYMN/RNjmIuhEFDurNzedJpJ8GEQeUvrtSSg+v2tEtVBnfwrs2zK5BchJU6VP66fgbfLVyVfE0LKq37BNyDQr5IQRC9+KvGY0HhzZ8H35dh1RN6RgkJoRCoIxxgj19Jn/0kX/vW1sjIVghDQxX9POgfwNgYBuK3/fwOV9QAIIXsALBa6YIt49bCZE6MFfQXNGY+XYu5n8nEKBoJYebTEmMg0WVWcfvXz7B0xG5NimAEihywkhOQAvmXBZwOC1UNw52jT8Ct6GrKDJGOTgis02bS6ywCc2Z4uUG58VK/wb4O6vRSzP1WcfmJc2d+4++bhUUIZvgBwBsCcqn/4qHhK6Vhw/cN51TtLaeEt/7hoP1vo5c0faO40RadgsYXFV+sqsP+kGzYHiyg9g5E9dZg82hSy4p1CvPx1Kb7dLN4mvTnTNkl99tv5yVEEEApX9QAYSwi5bM3XsfEopTPB+QR4cbjo4bFP57d2uGjku2tKkFmTYnDHFfKJFJQLK7NseP7L0kiLIVmidMS6+uUW53Vaki5y2GOEkP/U/KCODieEvAngc6Er6LWkyxezk5SlgAD//q6syToFI4Xi9BOHENAvZyftq2fyf1F78gM8CqCShwHsFLpShxR1xjN3xK0PTMzmgZcFZi1sWEqtQl2KylnMVtJ7Rfnn3XEb2iSrh4kckg3gIb4BXgVACHEAmAjgktAVJ2YYRl4zUC+oJJozZVbOKegIY5vrpkhV914lvVeYqwYYdl0zyDBS5JACADcSQniLMAi6cQghpwFMACCUX6n659T4ju2S1af9lrYZcfisG//6WlmzNobXlpc1q0YegdIxVXPy5alxnSDgtAdXCOR2QshZoWuI+nEJIZvAbQ/yjwNx/5uT5DDqGCUki4dfd9ibdKRgKPl2sxXfKR5/QaJ0xPrFrCQPIfwVvSt5jBCyQew69W7kEELeAbBQaFynJZ2/fjppPyFKpCAfilMwcPafdOHNFeFpXCJHCAH9ak7Sfp0GnUQOW0wI+bC+a/m7kzsDwHahwbQE1dDnJ8eJaprmiuIUDAzF6Vc/r/41fkPrJPVQkUO2QcDpVxu/FEClU/BmAELlhXHDUMOo6wYbd/hzveaG4hT0D8XpVz83DTNuH9dPP0rkkHwAkwghfpmdfsdyEUIuALgVwk5B5sUpsentW6hP+nvN5oTiFKwfxeknTqdU9Ynn7oztCuF56wZwGyHknL/XDCiYkxCyBcATwuOI/d/cZDZKzygLOB4Up6AwitNPnCgdqVgyK4klBGKllKYTQjIDuW7A0dyEkA8AfCI0rlWhwzdPJ+USgvD2gZIJilOwLvtOKE4/MRgC9ptnk3J1GtJR5LD3CSGC81Lw2g2UaToAQU3TIl415F9T45T0YR4Up6AvReUs5ixSnH5ivPFA/MYWsWqx4h5bADzZkGs3SAEQQtwAbgMguNa4eoBh1C3DDVsacv2mjuIU5FCcfvVzS0ZU1uhe+itEDrkA4FZCSIOcJ42qzEgpHQpgPQTqCVKKirtev1Rw+KxbzHRpttwwxIinJgSnOq4ceffHcny/RVn3C5Gepjm+dE5SEiEwCxziAHAFIURwi74+Gl2alVJ6D0SqCbnc9MRV8wriLXZWLGJJQUGhBjFGVekfL6eUaVRoK3LY/YQQwSA9f2h0SQdCyBIA7wuNazWk/Yp5yUcZRmk2qqDgDwwBu+yZxCP1TP53Gjv5gSAogEqeACAYCZgYwwx49a9xAW1PKCg0VxY8GJ+ZFKMSc/qJ5ugEQlAUQKVT8HZw9cZ4GdvXcMUdV0RtDcb9FBSaKreOjNo2oqdopN9pABMa6vSrTdCquhFCCgDcBK7hAO8hMyfG9O7WWn00WPdUUGhK9GynzZt7W0wvCPvmHAAmEkIE63QESlDLOhJCBCuPcOOIWjwzWRdnZoTbzSgoNENiopiST59I0EO4lj8APEwICWoRnqDXdSWEfAngHaFxFYPWy+Ymn1KcggoKHAwD7zdPJx3TqEgbkcPeJIR8HvR7B/uClcwEsE5oMCGa6b/gwXjFKaigAOC9hxM2JcaoBoocshbA06G4d0gUACHEA2ASgONCx4zoob/irjEmJVJQoVlz7zjz5sFddWKRfqcA3FE5p4JOyFo7EEKKwdUUFEp/I09NiO7Xt4M2N1QyKChImd7ttIcfvcncT+QQOziPf2GoZGh8k/Z6oJROBLBc6F5elp67el6BvqSCTQi1LAqhoX8nLa4ZWN0n5oNfylFsUZJBxYgzM8V/vNTCqmIg1GWLAriTELIslHKEvLkTIeRbAG8KjasYkrbs6eTTKgYhMXEUQk/7FDUmZBgv/2fSR65zsBxQMfAsfyb5tMjkB4BXQz35gTAogErmAvhNaDAhmun3n0cSNoVJFgWFiPLhowlb4kxMX5FDVgN4LhyyhEUBEEJYAHcBEAwCGtJFN/rBa82KElBo0vz1KtPm/p10YpF+J8CZ/mHZJg+brUYIKQFwIwDB0i8PXWMeODBdezBcMikohJPe7bWHZtwQ3V/kkApwXXzCFigX1sUaISQXwL2AYA8B/QczEmMSopmQeT0VFCJBYjRzaeETiTEADAKHUADTCCEHwihWeBUAABBCvgfwitA4wyDt23nJFzTq4CQ7KChEGrWKcS97Jvk8wyBV5LCXCCHLwyZUJZFy1z4HYKXQoNnI9Hp/erySOajQJPj0iYStsVFMH5FD/gDwYrjkqYk6EjclhLCU0sngOph05zumfyfdFX+7zpz54S8Wsc6nsiAtQYV2KWrEm1WgAIrKvdh73AWbs/E1AVvEqdCxpQZxJgZqBiipYJFf4kXeOTdoEEoOdmihRtsUNeJMDEoqWFwsZXHojAveIG/zq1UE3dtoEG9mEGti4PEARRYvck65UW6Tb0zBfePNm3q104g5/fLARfpFJDcmIgoAAAghFkrpBABZAH+DwwfGmwftPOLK2Znn7BFe6QJjw+stYDJwxtSxCx7c9vJFAMA1Aw24e6wJXVpp6pzjclP8utOO//5UjpKKwB5whgFuGmrErSOjeK8NcNV2V2fbsfAPS4OCcsb1M+CB8SZ0aln3+mVWFmv3OPDJ75ZGF/Ts1U6LqeNMGNJVB6OubqyYlwV2H3Xik98rZFdOfXAX3YFHrjOLFfawgIv0i1jHmJBHAtYHpfRGAN9DYDnCUhRc/3wBLSjxtgivZP5TWwHc/spFzL0tBpNGiGV2cpwt9OCBd4r8nkgpcSoseDBecOLXxuakePWbUvyynbc9fB20aoJ/3hOLcf2EfFXVlFawmPF+Ebq30eCZO2Ivf37LPy7i9CXxuC6DlmD+XbG4qn/996liZZYNLy0tg9sr/WrKSbGqi7++mMIyDISeWwqumu+34ZSrNhFXAABAKX0BwPNC4xYbe+DqeQXpTg/lrT4caWorgNXZdvzt2upCrucKvTh9yQOWAp1S1UiJ823nnnPKhb/+u7BeszotQYWPHktEanz1+R4vxdZcJ46c98DjpWiXosbInnoYtNU/LaXAm9+W1duVSMUACx5KQEZ33z/zqYsebM11otjCIjmWwRW99EiK4WTIL/FixSYrZtxQXd24PgUQbWTw3vQEdG/jq8Ryz7ix97gLJRYWahXQIVWD4d11Pt9l+2EnHvugWNJKQK1i3Kv+lZwbE8X0FjlsPiHkn2ETSgCpKAAC4BtwGYS8HDztXnf3G5fGhE8q/6mpABwuCq2GgCHA5oNOvPNDGY5d8J0Mo3vr8cKUWJgN1UbP68vLsGyj8ARVqwgWPZmIHm2rJ82uoy7MX1KC/BJf6yHayGDOrTEYP7D67cqywIPvFor23rt7rAlP3Fw9kZ1uiteXl+HHbTYff4KKAe4fb8YD480ghLMyaprvYgqAEODth+Ixoof+8meHzrjx0tJS5J5x1zk+3sxg3h2xGN27+vgVmVa88k2Z4PeINF/MSsrs3kYj5rv6EZzpH3HnhiSCtgkhFMA0ADlCx3Rvoxnz6A3Rku82pNdyk395phWPf1hUZ/IDwPp9Dsz8pMRnUt06Uny5MHl0lM/k33PMhRnvF9WZ/ABQbmPx7JIS/FCj5j7DAC9MiQUj8IvHmxkfq4WlwDOfl+CHrbY6zkQvC3z0qwWf/m4BAN61uxAThht9Jn/2MRemLSjknfwAUGxhMWthMbYcrF7/TxoZha6t/VsChZsnJ8RsqGfyHwIwVQqTH5CIAgA4pyC49GFBh8i9V5mGjeqp3xs+qRpG7hk33lhRJuqF33nEiQ37HZf/3b6FGimxKt5jVQxwxxXVCsLloZj/ZQlcbuEbUMp12z1ZUK2AWiWqcUUvPe/x1w4yQl/D1P5pqw3r9zl4j63i498tyDnFP3H5YBhg6rhqJVNhZzF7YTGcIt8D4KyXV5eXgq0xZaaOM/l933AxrKt+/5QxUcNEDikH9+aXjPkiGQUAAISQPHDVhYU8Ypq3EP0eWwAADJ5JREFUHoxvmRqnvhBGsQJm8ZoKv7bJ1u7xdcwJvdUGput8/AardtlxrrB+p6HLQ/HBLxafz64fbOQ99uoBvs64RastvMfVhGWB91b639RzWFcd0hKrv8fXG6x+71CcK/RiR161FZDRXS9ozUSClBh1wbsPxyUD0AocwgKYXBkNKxkk9CfkIISsgohDkCFIWjYvqVCrJv65tcMMS4Gtuf5tVx0577s8iDPz/xy9O/g+U3/uFX8z12TDPgcs9upJ1rt93edTqyHonFa9I3z4rNsvBQMAOw47UeDnDsbAzr7ORX93JqrIPl7tv4jSE3ROk8YyQKsljuXPJRUyDEkROexZQsgvYRPKTySnACp5GZxTkJcoHen15aykXWGUx2+Kyr2osPv3Viuz+h4nlEffrZZlcEhgvcyH20tx8HT18fFmps5So0MLNdSqavP/0Fn/r89SYP8J/6K2e7erVj7FFrbercLaXKqlaFrE8S+Zws2iJxJ3RumIWKzK9wBeDZc8gRCxQCAxCCGUUnofgG4AevEd07GlesTfJ0RveOu7crF6amGnwu7/9pS7VktstcDzHGeqVgwuD/X7jVvFiXwPhnSpfvvGmRmfa9S8PgC/3/41r+8PiTHV9zEZCH56XuyFWRdDLWdjbFTk319zbo3e0K21RuwZzAVwb6WjW3JIUgEAACGkojJIaAeARL5jJo8xDd951L1nwz67WHGFsMKG4GeONlY/6DZH4Dew1AqlrXk9AJe3MKuwOgJzUFv8VHoxNSasVk18/AENoabTMhJkdNfvu22USczpVwLgBkKI/46SMCNZBQAAhJCTlNI7AfwOgO9p0bz1QFybCf90nTl90StWXknWkBrPeUMUTO2YGVWtF6eq1jwK9B5eP09QMdU3crgoThQ0rgpcJOsOpiWozr/9t/g0iDv97iKEHAujWAEjaQUAAISQNZTSZwC8xjsOxC+dk3xp7NP5NoeL8ru4ZU5Nn0KUPvC3ntnge065zXfCWmpZFYHs6wN1LQghSq0sjDpOjxdXsJjyetA6XIUVnZY4ls5NLmMIuokcNocQIlgGTypEfhHlB4SQ1wEsFRrXa0mXL2YnZYdRpLBSaq2eoDoNQbzAboEQbZN99Xxphe8av7YzMlkgHkGItAT/ji+p8cZOjmGgVUsiEDVgPn8qcWeUnohN/v8RQgQL4UoJWSiASu4DIOj575Ciznj6thjBFuVyJq+WVz6Q7S+GAbq3qbZSLXYWF4p9FcDxC26fIJt0ngxAMXq0FbKCfdl/snq3QK0i6NfRv/OkxHOT49Z3TtOMEDlkL4AHwiVPY5GNAiCE2AFMBCBoN04aGTVi/EB9UJsnSoF9tbbZhKL5+BjSRedjMRw46a6zxrc5fdfjvdtrfBx2YnRqqUHHVP9WkjUDeQDg+iHyWrGN7WPYffMwg9jkLwYX6SfUIVtyyEYBAAAh5BS4cGGhjWrVS1PjO7ZJVp8Oo1ghJ+uw08dMv2aQoY4nnw9CgPuuNvt89vsu/uCbmlGJahXxK5UZAO6/2v+Q3C0HfYOGxg8w+OQ3SJnWieqzr94X2w7CfjMPgEmEEMF2eFJEVgoAAAghmwDMFhwH4r6ek2w36hjx3FcZ4XRTfF8jscdsYDBzYozP7gAfk0ebfMzsYguLVbv5FcDP22w+y4B7r+QvZFKT8QMNuDKAfH6Xh+Lz1RWX/80wwBv3x6NVYmC+6DgT43c9hGCg0xDr108nWRhC4kUOm0kIEWyIK1VkpwAAgBDyNoBFQuM6Lbp8/XTSfkIEqw/Ljs9WV/is3a8bbMDL98Yh1lT3J9RpCB6/ORpP3hLt8/lb35UJJhCdL/bim8xqnWnUEbw/PQGjetZdbhACTBoRhRemcEVA7C7//8wrMq3YlFMdypwSq8IXsxJxy3AjNLX3I2vAEGBYNx1emxaH315KqZO7ECoIAV06N2mfXivq9PuSEPJOWAQKMpLfBhRhOrgoQd6SS2kJqqHPTY5Z/4+vykaHVaoQUWFn8dySErw3PQE6DTdRrupvwKieemw75MTxfK4gSOskNTK66+osEX7OsuH3neKx9++vLMfw7jq0SeIei1gTgwUPxSPvnBu7jrhQamWRFM1gWDf95SCeS2VeLM+04ZHrzWKXvgxLgXmLS/HhowmXQ5yjjQyevTMWj90Ujd1HXThb6EGplYVeS2DQEnRooUGXVpqAdz+CwYt3xW1om6weLXJINoCHwiRO0JGtAiCEOCilNwPYCfCXW75paNSoXUc9O37JsorVZZMN2cdcePSDYix4MP5yPIBeSzC6tx6jRWrPrMi04rXl9WegWh0UD71bhA8fTfDZOuycpuHdebDYWcxZVIJOfjoBq6iws7j/7UK8cFeszxIi2sj4FP4QwxOGikBX9jfsum6IQSy3vwDATXJy+tVGlkuAKggh58FVERLKRmFevCsmvX0L9akwihVSdh1xYuJLF/Fzlq3eSXDojBvT3yvCK9+U+R3dd7HUiymvX8LXG6yi1z90xo173yrE3uMNa9/gcFHM/awEj/y3CNnHXH5VMC63sfhjlx0z3i/Ch7/Un67cGNokqU++8te49uCPQAU4R/TthJAzIRUkxMgzEqMWlNLpAP4rNO7y4vi4uReSrA7qn50qE0wGBkO76tAxlSvbrVETFJV7kV/iRdZhZ8BJPbWpeiO3S1Ejxsig1MqioNSLrENOnLoY3GbO8WYGgzvr0CZZjZgoBgYdgcNFUW7lsgaPXfDgyHnfeIVQEaUj1tUvt7ig05JOIodNJ4S8H3ppQkuTUAAAQCn9GCIBGBeKPFk3vHhxMKVN5zsrBB9CQH94LnlbqyS1WJLPEkLI1LAJFUJkvQSoxXQAmUKDqQnqIS/dE78+fOIoyJFXpsZtqGfybwPwYLjkCTVNRgEQQtwAbgNwTuiY8QP1V9w01LAlfFIpyIkbhxq3XznAINbFJx9cLX95dSgRockoAAAghOSDcwoK/UDMc5PjendppZF0iqZC+OmUqj4xf3JsVwjPCTeA2wghZ8MoVshpUgoAAAgh2yCyL0sITJ8/lciYDYxkKrMqRJYoHalYMiuJJQTRIofNIIQILjHlSpNTAABACFkM4EOhca2GtF/2dFIuQwSrDys0ExgCdvmzyQd1GtJR5LAPCSEfh02oMNIkFUAljwEQTA9OiVMNfXVavOQbjSiEltfvi9uYEqsaLHLIVgBPhEuecNNkFUClU/B2AIJrtrF99aPvuMK0NXxSKUiJm4cbssb0MYgV9LwALsOvyTj9atNkFQAAEEIKANwIQCgInsycGN27W2v10TCKpSAB0tM0x5+9I647hGNhHABurow2bbI0aQUAAIQQ0WQNQhD12d+T1GYjUxxGsRQiSIxRVfrFrCQVIRCLDJ1BCNkeNqEiRJNXAABACPkCwLtC4xoVafftvOSTDKM4BZs6DAG79OmEIxoV2ooc9h9CyMKwCRVBmoUCqOTvAAQLNiREM/3feiBBcQo2cRY8FL8xJVYtlh26GcDMcMkTaZqNAiCEeMA5BQUzA0f11I2+8wqTEinYRLlzjGnriB56MaffaXA1/RqW4ihDmo0CAABCyCUANwMQyt8mMydF9xvRXbsvjGIphIHBXXQHZk6I7gNxp98kQsjFMIoVcZqVAgAAQsgeiCdzGN7+W2KbET30e8Mlk0JoGd3LkP3+9IQ2AMTKED9ACNkRLpmkQrNNjaWUvgnOLyCE45PfLTs+/MUiVhFGQcIQAvroDdGZU680DQGgEzl0ASHkqXDJJSWaswJQges5OE7suPxiz/bp7xennCzwiHmNFSRGxxbqE+/NSChMilHVVw5uLYDxlT6iZkezVQAAQClNALAdQId6DnXlnvFse3NFadKe4y6x6rAKEWZwZ92BpyZGl6a31AwBUF/t8JMABhFCCkMvmTRp1goAACilvQFsAeBXJwy3l57OPeU6ueOIi+w/6TaXWFhDud0rrxY3TQAVQ7yxUYw9OY6xdm2ltQ1M15GurTQdGAZpfl7CBiCj0ifUbGn2CgAAKKU3AvgWMq6SrBAQVV18foy0IJGm2e0C8EEI+QnA/eAeDIWmjQfANGXycygWQA0opdcD+B8gGiOuIF/KANxJCPkt0oJIBcUCqAEhZCWAPhApLqogW9YB6KNMfl8UBfD/9u7YBIEoCALo2w4MDExswCYUM2MTO7QEC7ngwosN7EBYgztQBEUx+Aj7KphoYWBhnkTEgLXxbbhvHKf8rsM+IrbTunR5UBXgjcwMbHDADsumgcqnBpxwnNakywt1AL6QmQusMMescZxydzX2+zP6iLg0zvM3buqr2TW3XavzAAAAAElFTkSuQmCC;" parent="1" vertex="1">
          <mxGeometry x="746" y="708" width="256" height="249" as="geometry" />
        </mxCell>
        <mxCell id="et1fOOYHSfHHCLRn4kue-15" value="&lt;font face=&quot;Courier New&quot;&gt;K2&lt;/font&gt;" style="text;strokeColor=none;fillColor=none;html=1;align=center;verticalAlign=middle;whiteSpace=wrap;rounded=1;fontSize=40;fontFamily=Architects Daughter;fontSource=https%3A%2F%2Ffonts.googleapis.com%2Fcss%3Ffamily%3DArchitects%2BDaughter;sketch=1;curveFitting=1;jiggle=2;shadow=0;fontColor=#ffffff;" parent="1" vertex="1">
          <mxGeometry x="-115" y="913" width="168" height="88" as="geometry" />
        </mxCell>
        <mxCell id="X_6x3CovaAltFQVWhzz_-1" value="" style="shape=image;verticalLabelPosition=bottom;labelBackgroundColor=default;verticalAlign=top;aspect=fixed;imageAspect=0;image=data:image/png,iVBORw0KGgoAAAANSUhEUgAAAQAAAAD5CAYAAADImOsDAAAABmJLR0QA/wD/AP+gvaeTAAAgAElEQVR4nOydZ3gUVRfH/3e2l+xmUwmhh9A7oYamAoKIIiAigl30VSygIIgNe/dVX7soYgELFlQsdOm99xYIIQnp2Wzfnft+mCQkZGZbtk2yv+fxg9yZOzfJ3DP3nnvO/xBEaRRQSpMBXAtgEIAeAFIAJAMoB2ABkAXgMIC1AP4hhOSHZ6RRokQJGJTSqyilyymlLuo9DkrpMkrpVeEef5QoUXyEUkoopWMppVt8mPRC7KGU3koplYT754oSJYobKKVM5cTfFYCJfzkHKw2BNNw/Z5QoUWpAKZVXTs5jQZj4l3OGUvowpVQV7p87SpRGDaVUUzkZs0Mw8S8nn1L6LKVUH+7fQxT/IeEeQBTfoZQaAMwA8DCAeN/uhbHcQk8XlDpNNjtcAKBUEEmSntFrVUxLQqD1cTiFAN4F8D9CSImP90YJM1EDICIod5Q3C8B/AMR4e5+LpRc3HLId+Xp1RdK+0/YOLOX/u0sYODPSFcemDdcW9msv78oQEufD8IwAPgDwdvQIUTxEDYAIoJS2BDAbwJ0AvN572xz09Gf/VOQuXmnq63SxMl+eqZAS211Xx+y4dYS2uUyClj7cagHwOYDXCSFnfXlmlNATNQARDKU0DcBDAO4FoPD2PqudHl+4sqJg0T/G/iyLeh3fMQTstf3Uux6boNdqlKSjD7c6ACwF8DIh5Eh9xhAleEQNQARCKe0G4DEAUwDvJ7DRzB546+dy62/bzBlUYJlfH4b3VO1+ckqsPEZJuvhwGwtgBYDnCSHbAz2mKPUjagAiCErpIACPAxgDH/42RjN74LklZc41ey09gza4GgzsqDwwf4re2iRW0sfHWzcBeJYQsioY44riO1EDEAHUmPjX+nAbm1fq2vXM4hLNzhP2TkEamlu6tZIfe3JKbGFairQ/fFipgDMErwL4nRBCgzO6KN4QNQBhglLKgPvSPwmgrw+3Ok7lOrc/+WVxyvEcZ5vgjM43OjSTn3tmauyFdqnSDAC+RAruB/AmgG8IIa7gjC6KO6IGIMRQSmUAbgYwF4AvTjXbqVznzsc/L252Js/pi1c+ZDRPkJ5/cor+dEa6og98OK0AcArAawC+IIQ4gjO6KHxEDUCIoJTKAUwG98VP9/4+mHadtO16enFp+/xSV3LQBhhA4nVM4eyJ+kPDe6h6EgKdD7eeBfA2gE8IIZYgDS9KDaIGIMhQSrUA7gJ3jp/q9X1A8ao9lgMvf1fWrczEGoI2wCCi1zDGOTfq91/dW9WJAL78DBcBfAjgv4SQ0iANLwqiBiBoUErjATxY+Z/XEXUsReHqvZZDLywp7VVhoV5H+0UyGgUxPTA2ZteNgzXtGYb4soopB2cIXieEFAVpeI2aqAEIMJTSJAD3A3gEgNeJMi4W53/cUHH6nV+NfWyOhplpJ5MS+7Th2h3TR8U08zG60ARgIThDcD5Iw2uURA1AgKCUtgIwE8A98ClcFyc/+8eY/+U/xn4u1icPumiRSgg79QrtzunXaBMUMuLLSYYdwHcAXiCEHA/S8BoVUQNQTyilncGd4d8MH47ArHZ6bOHKisJAhOuKleow44l6tUZBOvtwa1V04TOEkN1BGl6jIGoA/IRS2gNcZp6/4bp9aDQEpho/owspgD/ArQi2BWloDZqoAfARf8N1iyrY3U8vLpVvPWL1JY6+0VHDEGTAt/dzE4BXCSG/BWloDZKoAfASSulwAAsADPThNjav1LXrqUUl2t2n7L4E/TR6urSSH396SmyBH2HGuwG8AuDHaJixZ6IGwA01wnWfBpDhw62OU7nO7fO/LEk5keOIiHBdsdIyWZL9xE2xZzLSFf3gQ0o0gAMA3gDwLSHEGZzRiZ+oAeChRrjuPAAdfLjVdijLsX3uopK0C0XOpsEZXeOkWbzkwlO3xJ7MSFdkAFD7cOtpcJJlHxNCrMEZnXiJGoAaUEoVAG4DF67b3Pv7ULHrpG3301+Wtc8vc4oiXFesxMUwRXNu1B8c3kPVgxDv4ywA5AH4L4D3CCHmIA1PdEQNAABKaQw4ua3HwZXM8gqW0uLVe60HXl5a3r3M7IoN2gCj1EGjIBUPjI3ZfeMQbQeGIMmHWwsBvA/gnaiIaSM3AJTSBHDqug/Bh1h1lqLg922mw6/+UN7Haqe+LEejBBi1gjHNGKvddeNgbTrDeG+8wYmYfgHgFUJIbpCGF/E0SgNQqa47E1ycvtcT2MUi+8cNFWf+u9zY126nyqANMIrPVIUZ3zNKmyqXkFY+3GoD8CW4WILsoAwugmlUBoBS2hpcjP50AF5PYJudnvxsZUWjCtcVK1XRhXMm6mNUCuKLA7dKxPRFQsixIA0v4mgUBoBS2hVcOq6v4bpH31tuLPnu34r+wRDZjBI8CAEd20+9c9YNOnWMmvEnzHgBIWRnkIYXMTTol5pS2hPcUd5E+Ciy+dbP5dblW82+il5GiUDqIWK6CsDThJAtwRhXJNAgDYCfIps0r9S1c8HXZartx6Lhug2Rbq3lR5+5Jba8VbK0D6JhxgAakAGglBJwE/4JAP19uJXNK3XtenJRiXZPNFy3UdCxufTkgmlx+Wkp0n7wTcR0LzjJsgYjYip6A1AjXPdZAL18uNV+Kte544kvipuezHW2DsrgokQ0LZIk2fMnx57JSFf0hQ9OYQCHwImYij7MWLQGoIbI5nwA7Xy41bTzhG3Xs1+VpeeWOH05N47SQEnQMQXzb4o9PrirsichPoUZZ4GLLhStiKnoDAClVAPgbnCls5p5fx8Xrvvk4tIOBaUuXyLHojQSDDGk+PEbYw8M76nqTgBfIjvzAXwErjJyWZCGFxREYwBqhOvOBdDE2/tYiqLVey0HX1pa3qPc7PIldjxKI0WrJKb7r/VLxLQIwP8AvEsIKQ7S8AJKxBsASmkigAcAPAwfrLKLpRd+3GA6+e5yY0Y0XDeKPyikxHbn1do9d4yMaSFh4Et2ZwW4EumvEkIuBGl4ASFiDQCltAWAR8Et972ewA4Xzf5po+nMO78a+9kc1Jf88ShReJFKGMetIzTb7xkVkyKXwBd9BxuA7wE8Rwg5GaTh1YuIMwCU0jbgvvb3wgcBCJudnvhsZcXFxiyyGSW41BAx1WgUxJeCrFVhxi8TQo4EaXh+ETEGgFLaDZxjzyeRzQorPfDmsjLrb9vMGdFw3SihYmBH5YFnp8Y643WMLyXZq8KMnyOE7AjS0Hwi7BOGUpoJzrHnk8hmNFw3SiRQTxHTZwghq4M0NK8ImwGglPYFJ954hQ+3sXnFrm3PfF0Ws/NENFw3SuTQM01+4ulbYstbJEp7AmB8uHUNgMfDlXgUcgNQeY7/JriUXG+f7zyT59jy5OLSpkezHWnBG12UKPWjXaose8E0Q067VGkGvA8zpgA+ADA71AFFITUAlfn4fwDwNubedvicY9NTi0taZ+VHw3UDSVwMg5G9VDh8zoH9Z+zhHk6Do3mSNGfBLYas7m1kveF9mPFBAGMIIeeCOLRahMwAUEo7AVgNL4J4KKWmHcft25/9prRjfonL66CfKO5hCJDZWYnxmWpkdlJCUrlQPZrtwNL1Jvy10wKHKyqlH0iSYiWFT0zWHx/USdmdEGi8uCUHwJWhqn0YEgNAKU0FsAWelXbN6w5Yd7ywpLRriZH1uqR2FPfIJARX91bh1uFapKUIr0qLjSx+3GjCt2tNMFrYEI6w4aPXMCVP3xK7f1hXZR94jms5AyAzFFqFQTcAlFIpgLUABrm7Lq/YuePOt4ta5Je6orLaAUKjJLiuvxq3XqVFUqz3oRFmG8XyrWZ8uaoCF0sbRNZrxNDEIMn/fFbCuWTP4iRrAQwnhATVEofCAMwD8JKbS1zf/2va+OoPZUODPZbGQhODBFOv1OL6AWqoFf7/ie1Oij+2W7B4VQXOFYg66zWiIAT0icn6DeMHagbB/YnBTELIf4M6lmB2TiltAuA4gBiBS5yvfF+284cNJl8EPKIIkBovwZQrtBg/UA25LHB/WpYCmw5Z8elfRhw66whYv42dqVdqt8y8QdcXwoFvpQDSCSGFwRpDsA3Aa+DEOHn55E/jxo9XGN1uDaJ4Ji1FituGx2BUhqrasRcs9p224+MVRmw7ZgvugxoJj4zTbZh2lXawm0ueJ4Q8HaznB80AUEqVAM4DiOdrP5Dl2HD7mwXufvAoHmiXKsPUK7UY3UcFJsQRHftO27FoZQU2HLKCRg8O6sWSuYmb2qXKMgWa8wC0IIQEZekVTANwDbgz/zq4WJwfMjs33mqnqmA9vyHTI02O24drMaizEiTMwdwnchz4eo0Jf+40wxU9OPALjYJUrH2tiVnCECGhmqsIIWuC8exgLhhHCTW8u7z8XHTy+06PNDk+nBGPhY8kYHCX8E9+AEhPlWHBtFj8/FQybh6mCajvobFgslHt539XnHBzyehgPTuYK4B9ALpd/u8ulub0n5nbJJqy6x2EAIM7K3HX1Vp0aSUP93A8UhVL8PWaCpis0b2Bt0gYOLe+3bSQYXgD5XYQQvoG47lBKXNFKdUB4K3G8tcu6wmWRWowntuQYAgwqLMS914Tgw7NZeEejtfExTCYPjoGkwZr8P0GE5asM6HcHN0beMLFQrr+oOXYFd1UfAagB6VUHYyy5sGqc9cfAkcbS9ZWeC3k2RiRSghG9Vbhzqu1aJkk3jKEsVrOEEy9UhsNKvKSb9eYk67oxrszlgHoC2BdoJ8ZrDdsIN8/sizNO5LtaBukZ4oahYzghoFc1F6yoeHsjtQKgslDNRg/UI3lW81YvLoCOUVRQ8DHntO2DiylxQwhfGHwmRCRAeA92z9f6DoNHxR9GwNyKcG1/VSYPjoGifqGM/EvRy4jmDhYg/GDNFiz14KPVhhxJi8aXVgTSkEKytiTybESvv0+70e1vgTcAFBKJeCWK3XYfNQWDSOrRCYhGNu/4U/8y2EIMLynClf2UGHTISs+XmHEkezoa1HFtqNWy3X9eZMGB1JKmUDnBgRjBdAdAqG/q3ZbGn1BjsY68S+HIcDgLkoM7qLEtmM2fPC7EQezoroEq/bYDAIGIBacjsahQD4vGAZAKKLJtP+MPT0IzxMFVRP/nlExPmXmNQb6tVegX3tFNMwYwM7jtvbg5MT5FLEzIQIDwLtXKalgj7tY+KKg2iCITnzv6d5Gjg9mxDfqMGObkyqMZvZgjJrh07zMBPBJIJ8XshXA3lM2UdVMqy/Rie8/3dvI8fa9cTh23oHP/6nA6r2WRmUIDp61Fw3oyKsiJrS69puAGoBK5R9e1Z9Vey3aQD4rUolO/MDRvpkMr95pwKncGCxeVYEVO81gG0FM0ep9NqWAAUijlKYEUikooKHAlNLJAJbwNLHD5uSWGy3Ul4qroqJq4t89KgbJ0YkfFHIKXVi0yohftzTsxCNDDCle9VKKAfzzcwIh5KdAPSvQWwDeJYrNTk8ZLbRBOgCjEz90pCZIMH9yLO4cGYNv1lZg2SYz7I6GtzcoMdI4hwtZMgla8TRnAohYA8DrADx+wZkLoEEZAJmEYNxANe4YqY1O/BCTEifBYxP0mHalFgv/NuLXrRY4G5ia8Zk8x/l2qbJWPE0B9QMEzABUFvyok/0HAOv2WxrMDGEIcGUPFWaMjUHzRPHG6jcEkg0SPDE5FndeHcMZgga0Ndhw0Ip2qbxJYL0CmRgUSD2A/hAwKKv3WTzJgYuCfu0V+HpOIl690xCd/BFEEwO3NfjlmWSMz1QHXRYtFKzea2kq0CQDkBGo5wTyLeZdmrAUF7MvuloE8Dkhp1trOWZcp0PvtpGfj9+YaRrHGYLbR8Rg0Uojftki3lOD4znO1hQoIYCBp3kggH8D8ZxA2kpeA3Ch2HUqgM8IKS0SpXj73jh8MSshOvlFRGo8ZwiWzk1CjzRx/t0oBblY6jop0BwwP0BADACllAHQj69t62GrKAO8J2Sq8f38RAzp4m1ZN/FSWsHi34NWrD9ghd3ZcJxpaSlS3H21kCJ95LPzhN0k0JRZOefqTaC2AF0B6PkaVu61JQToGSGDYYD7r9VBJmnY+nalFSy+WFmBZRtNsNi5iZ+WIsV798f7fbJhtVMo5ZHze+udLodaQWC2ic+wrdptMYzpwysQYgDQHsCR+j4jUFsAoVxly77TNtEd//VsI0estgF4ktyw66Qdk18pwNdrKqonPwCcynXinncKcaHYN9GOA1l23PpGAQY9lotRT+bjl80BV6/yC7mUoG97vryayGfbMVs7AEIr6IBsAwL1lvMOpsxEjzmcVHSbsKHdGvayf91+K+57rxAFZfyTPKfQhTveLMTuk553b04XxWd/GXHX24U4dNYBSoGCMheeX1KKmR8XR4QwaEa6OA2AzUFVFVYqpBYc+QZg72lbaYD6DymDOjdsA/DWT2UeveOF5S5Mf7cQc78owbajtlqrBAAoqWDxyxYzbnq5AB/+YeQ9f//3oBUPflgU9uV3RrrovkHVHM6yC5UFC4gBqLcPgFLaFOANWcTqvVZv6qFHFIl6iajFOD1BKXCx1LuzMUqBlbstWLnbAkKA5FgJDFoGJRUsLpa5vDpi23fajqe/KsEbd4ev2ntaUxn0GgZlJvGdCa7Zb1X07cC7gkmnlDYhhOTVp/9ArACELBHdeMgqOgHQhn7cRwjQqaXvMuOUAnklLhzJdiCvxLvJX8XafVbkl4RPCJQh4v27rt1nSXPTXO+iuoEwALwOQJuDni4zsXxBDBFNLxEvF71lWBh8HM4wf3x7i9QPUFjOJjpc9JxAc723AUFbAZzKdV4IQN8hR6wOI1/wxccRF8OgSys5+rVXoH0zGXRq31+Ztk1lSI0PbzqImP0AZ/Od2QJN9TYA9drsUkpV4ERA67BuvzVyDoO9JEHXsPf/VbROlkKrYlBh4f8sx+sY3DBAgzH9VGhxWc4DS7mCoCt2WPDLFrNgHzW5Y0T4tWDSUsTrB9hw0Mq2bSqYGKQkhFj97bu+K4B+AHhN65p9FtFVAOot4q+ELxACqHiCdRgCTL1Si9+fTcZ/ro2pM/mrrmnfTIaZN+jw69NJGNPXfY3XpnESjOwd/jqwhAA92ojz77t6rzVFoEkBoHd9+q6vARBKACo8k+dsWc++Q04vkTqK/OHy/Hm5jOC/98Vj5g06ryv8xmoZPDfNgMdv1IMReJOu6asGEyFrQbHmBRw970ijQIlAc722AUExAHklrpMIYuXhYNG9tThfEF8pNrIoqbi0FGYY4I2745DZyT//x6QhGsy6gTcSHB0jqLCpWFcAlIIUlgUnMchvA0ApJRBIANp21Co6YXeNkiCNf5/V4Pj3QO0t47QrtX5P/ipuHqbB8J51l/pNw+z8q0nHFjIovFzdRBo7jtuFYqsHVs5Fv6jPCqATAN7ojpW7rfH16DcsdGklj5ilajChFPh+w6Uks+RYCe67JjAZc7Nu0NWZYI4Iyi6USQi6+BEDEQms2mMREtRNANDO337rYwCElh62vafEVwGosSz/V+yw4Nj5S7X4JgxSe73n90SyQYIRvWqvAs7kR1YB0B5p4jzm3Xo0OIlBATcARjN7zOakovstdxfp/tAXDp9z4LUfa9dnGdNXHdBnjM6obQB2n4gsOQix+gFsDqoy2WjA/QABNwD7z9iL69FnWGAIRLs09JZtR2144P2iWuf28ToGTQyB3aN3alH797jugBVWe+RsA7q1lgmeWEQ6R87ZCwSaQmsAKKXJAHhjlFfvswb2kxIC2qTIoFWJ9K3wQHaBE/O/LMH97xeh3Fw7CKZ1cuCNnk7NIEF3yaiUmVh8vbYi4M/xF62KQbpInb1r9liFVtbtKKWJ/vTp71svmAC04aDVXfJCRNKttThfCHdQCnz4uxETXyzAXzstvNdIg+Sgl1zW76d/VmD/mcjZCoh1G7DmgLWNQBMBMMCfPv01ALwJQHYXzSo2sqI7AWiIDsCfN5vx2d9GtwUzguWhv7xfp4viwQ+LsT1Cyn6L1d9TUOpKcrEQygsQUuVyS0BXAKcuOHP87C+sdG2ABmDdfv6vfk1OXHAGvOpusZFFsbFuvH2FhcUDHxTh4xVGsGF2CfQUaUQgAGTlOwOaGeizAaCUKgD05GvbeCgC9J98xKBleGPexY5M6vlor9zMIrswsMd07pb6LAt88qcR8z4vCasRSIqVhD070V82HbYJCSv0qZybPuHPCqAvuCSEOqzeY0n1o7+w0rWVHKQBBgB5m9X465bAinf+ts1zf6v2WrDtaHi3A2LNC1i52+IuMaiXr/35YwB4lxoUKD6Z62ztR39hRaz7QU94G4P/6xZzwDT7sguc+Pegd5mpeWFUCALE+3c/mm1PoxRlAs0+bwP8MQC8zoaLpa6TlIovAahbA9z/A8DgLkqoFZ7/HCUVLN7+Weh98h6WAs9/W+q1VFjbpuHddvVoI7pYNQAAS8EUlbsCphTskwGoTDrg1SHbdtTq2esUYUglpE7gSkNBKSd1ovKE+HmzGX8KHBV6y4e/l2OXFzLiAKcy1LlleA1vmyZS6DXijP3YecIhFFgxyNfEIF/NcHsAvAEHq/bYRKf/176ZNGxVbFbssODPnWbY7BTpqTIM6qxEv/aKgEapPTxOj/xSFpsOW916+ykFnv6qBC6W4lofQ4MpBT76w4jP//E+2GdMBGgEVAmErD/gt5hO2Fi1xxw7KoNX1i0BQFsAQiuEOvhqAISWGPadJ8RXAahrq/B8hf7aZcFTiy/pO+w6acfS9SY0T5TiqSmxAVOw1SgJ3rkvDmYbRUnl0ZzVQZFX7MSGQzas3mupPrJjWeCZr0qx7agNsyfqvdL+yyl0YcG3pdh1wnuHnkZJIkIiDOD8AGI0ANuO2dMBOME/fzMRagNgNLPHbQ7axce+wk44HEFOF8V7v5bztmUXOPHIR0X45elkxOsCtxRQKwjUikvHXmkpUmR2VuLhcTp8vMKIr9dUVK8QVuywYN1+K67po8boDFWdHHqjhcXBLAd+2WLGuv1Wt4FGl8MQYPZEfcQsvcV6EmC2sRqzjR5RK0hHnuZMAIu87SsgBuDQOYdQ9ZKIJhwOwF82m916wM02ioNn7RjaNfjS3So5wSPjdOjWWo75i0qqKwObbRQ/bjThx40mSBhwCUMEcDqB/FLhsfdMk2NkLxXSU2VI0ktQYWWRU+RCTqETDhcwsKMCHSJIIahjc8642RyiC1/B4XP2gox0hZAB8BqvDQClNAEA7zJ/zV5z+FUffSQ5VuJ3Jtxfuyz4ZIURF4pcGNFLiccmePdVyy124YM/jB6v88Z7H0iu7K7Ec9NiMW9RSR1fgYsFcorcH9m1SJRi3k16niKcErRvFjkT/nLkUs4JvOdU5OQpeMu6AzaZgIR9B0ppHCHEq6xcX9ZiAyGg8/fvIbvozv/9Df9966dyzF9UgrMXnXC4KFbssGDyKwXY5yHZJSvfiYc/KvJKljolLvRRaiN6qXglvTwxpIsS385NFG0FXrHGA6zZYwlIYpAvBoB3aeFw4WxBqSvJh34igs5+5P9//k8FvuFJbb1Y6sLd/y3ES0tLkVN46WvJUuBglh2v/1iGqa8V4FSud2G3SfrwhKn+Z0yMT1GRHZvL8OpdBl6JcbEgVgOQX+pKdrFUKPfG622ALz4A3k6zuKolopMA7+zj+f++M3Z88Du/8w7gvOjLNpmxbJMZcTEMVAqCwjLWr/1luHakLZOkaNtUhhM5Do/XSiUEL91hgFxKkFPkwtFsBwxaBl1aygImMRYKulWGggc6KSoUnM13nW2TIuULvw+sAahMMuAtQLDhoFV0pVYYAnRs4Zvl33zY5vVLUmxkAc9bfUHOF7qQlhKcSDmrneL37Was3G3F6TwHmsZL8fD1uuqaCN3byL0yAMN7KtEiUYrft5vx3Del1eXB1QqCURkq3DEyBk3DsJXxldjKZLCzFyNLu9AbNh+xOtuk8B6p9qGUygkhHp0b3m4BegPgdUuv3mNp6mUfEUOrZKnPjrZWyaELXV2xI7AJOlWs2mPBdQvy8fJ3Zdh5woZiI4uDWXY8/FFRtaOvTRPvfs6x/dQorWDx2g9l1ZMf4E4Qftpkxk0vXcSmQ+I4YxfrNmDlHmsTgSYVBDJ2L8dbA8CfAERRdjzHIeSMiFg6+RGGenUvVcg82kvXmwL+RVq1x4LHPy9BUXndBZvZRvHJCm7J4o04SqyWQe90OZasM8EkkAFutlE89VVp9dFiJCNWQZjDZ+1tKYXQvtSrbYC3BoA3Aaiw3HWcpQGpMBxSfN3/A1z1nGduiYVU4v3KgWG4cmP/uTYGC6bF4t3/xOP5Ww148Dod+ndQQCbQl9VO8einxbzCGv6ydL3JbfuKnWacvehEh+YyDPRQJOSmIRpQCvy8xX2fZSZ+cZBIQ6wrAJaCKTay9UoM8nZdy5sAtPO43f0bEKH4cwIAcEUxr+uvwk+b3C/RZRKC8Zlq3HV1jGBE3+0jtCg3s1i8ugJL1pnqKOeeyXPizrcL8eJtBr/HWxNPAhwsCyz824jnphnw9vQ4/LrVjO3H7DiV60BROQsJA8TrJBjRS4k7R8Rg2SYT72qiJmoFCWhEY7BolSyFTs3UEU0VA7tP2Y0jevLuzgNjACil6QB49xord1tElwAkkxCkp/o/oaZeqXVrAJrGSfDW9DivnqFTM5gxVocbBmgw69NinLxQ2/mWXeDE7W8WYEAnJfq2k8OglYBSCqudwuqg6NNO4fW2ZGAnBfaddu8TWrHDgiu7qzCsmxITMjWYkKnhve5CsQsfr/Ds5RzYSSm4yokkCOGiQjeKxGdRk392W/QCBiCZUppGCDnl7n5vVgBClsSx7bj4EoDSU6WQeyGXJUTLJOGvRVqKFB8/lACD1revXmqCBF/MSsBDHxbViUpjKbDpkJXXocYwwMu3G7wK4BnTR42P/3Cvx0cpsOCbUsSo4wQTki4Uu/DIR0W1iosKMbxH8MOZA0X3NuI0AFuP2NrBfXhPejIAACAASURBVGKQWwPgzZvKawBMNnrcaqeiqwHgjwPwclQ8JwgGLYO37433efJXoVYQvHF3nE9adSzLRSa6vFi5psRJ0MeLaL1yM4t73y3Eo58W45ctZmw/ZsPeU3b8udOC574pxcQXLnoV0KSUEwzuIiIDIFJpeLON1VjqUTHImxUArwPwcJZdlAlA/jgAa2J3UhTz7H0fuUFXb6HJWC2D+ZNjcf/7RV7fk1/qwt5TNvTmjwuvxZg+aq+0+CgF1u23Yt1+/7+IrZPDp7XgD51byiGVEJ+yGyOFI9n2i73aKjrwNHmUCnf7uaKUGgDwdYy1+wSrlEQ09VWiOZDlgOOyl6RtUxmu6ROYxVC/Dgr06+Dbr3avh719FaFMf02NF5fSslJO0C5VXGOuYv1+m9BXrTOllLeCdxWe1qsDha5Zf8jayvPQIgu1gqB1PQN6lvOo6F7XXxVQhZtxA3wzJrnF3gls6tWh+yKXepH0FGmI9Thw1T6LUDIeAdDP3b2eDADvHsLFIjuv2CUUhRSxdGhev8KQR7IdWLGzrgEY1jWw2dCZPnrP1QrvfqgLXhqKQLD/jB2lXjgKIwmxBgTlFbuasCwuCDS79QP4ZQDcVCeJaDr5GP9fk9N5Tjz6SXEd1VulnCA1IbAx7xolQRMv4+jlMoIxfb0zQH/vCp1uq91J8d5y4eSpSKSbSFcAAHCuwHlWoMmtARBcD1NKZQAy+NrcVCeJaPwJqCk2svh2XQW+WWuCnSezr2Yl3ECSqGeQLVQMGtwR4LCuSkwfHeNVzMHZi0585yEasPbzJWiTIkWKQQKFjMDhojBZKc5edOLUBWcdPwgfv2wxIy1FhilX8McT1CS/1AWbg4a1SlOVSEy4axb4w+bDVkerZN7EoH7uEoPc/bZ7AeDdjK7eaxHd8h8AOvuwAjhX4MRnfxnxzy6rVy97oBHaAEgYYOIgDW4boUWiTuLVlqagzIWZHxfDYnf/c7RuIsX1/dUY1k2J5m4motVOseuEDSt2WrBmr9VtvP+bP5XhQrETD4zV1dENKDezWLHDguVbzTh2nguC6t5ajremxyHWz+PU+tK9jRx5IVwpBYqVe6xJU67gNQAqAN0B7OBrdGcAeI8QKIXx8Dm76EqA6zUMmnp5TJdb7MK01wtRYfG8hy0sD87X4mJZ3WfrNQzevS8ObVJkeO7bUqzeY4FKQTCgoxJX9VBicBdlnUm2/ZgNC74pdftVa5kkxUPX6zC0q9IrQRClnCCzsxKZnZW4eL0LC/+uwE+bTIJBRkvWmfDPbguG91ChZbIUZivFgSw7thyx1TEe+87Y8czXpXjnPrfO66DRrbU8pFulQHHwrD2dUhgJQQxPcyb8MAC8e4eicvY4y/JrA0QynVvKvFa7WbnH4tXkB7ivYU6hK6B+AJOVIo/HYff8rQZ0aSXHE4tKsHK3pfraVXssWLXHAqWcoHe6Ai2TJGBZ7njwaLb73P6bhmjwyA06v6Mjk2IlmHeTHmP6qjBnYQkKyvgNTVE5i+/+9W4LsvGQFTtP2CCgeRdUxHoSwLKQFJvYE/Fahq8+YCaA//Ld526dxbsC2HXSXg+pi/DhiwPQ4mOtvHUHAvvF2HS47rajX3sFMjspcOy8Q/ALZbVTbDpkxbdrTVi63uR28kslBPMnx2LOjfp6hUZX0a21HF/NTghI4hIA/LgxOJoInmiXKhOtxNmek3Yhr+sgoXt4DQCltA0A3iqkK/dY9L4PLfx08CGX39eIvt+2WQJa7pqvYu+1/Th3zE+b6z8xGAK8dpcB4zMDG8mdqJfg04cTAiK3vuWI9wpMgUTCAF3CVDCmvqzcY9EJNDWhlPLGCgitAISODpzbj1rb+TyyCKCdDxmAfdopfArsOZHjwJ87ArMK2HbMhq084boZ6dxLueVw/RNWZlynC1rdAYWMy2lI9lNyvQqTlYUrkFbVB8QaD7DlkLUdACFnD++cFjIAvMt/s42eMNmo5zOdCEOjJF47AAEg2SDxOWz27Z/LPOrne6K0gsWLS0rr/LuE4b6uAHCxtH7BNVf3VuG24cEtzRWvY/DWPXE+iadcTo828nrdXx/EGg9gslGt1S6YGMQ7p31aARzNtrs5mY5c2jb13gFYxX1jdD6p25ZUsJj1SbHf0W9mG8WchcW8RoSlqPYJpNWjrLZOzeCxCaHZwXVoLsOUYf59K7q0kuPF28InNdG1lSzsxUv95eh5e75AE++crvM2UUp1ADrxXbx2v1WUOZO+LP+r6N1WjqVzE7H1qA0yCYFMyomJlJpY7Dlpx7oDdevinbzgwK1vFOCt6XFo29T7Z+YUufDop8WCaryUAvtO29GnnQJP3RyLhz8q9uv48eZhGsTFhO58/Y6RWizbJKwbeDlpKVJMHx2Dq3qofDbYgUSnZtC6idTrOg6RxNr9NmmPNrynJ10opXpCSFnNf+T7nAwEwLteXrffJjr9f4ATAfGHlklStEyqe+/koRpk5TvxxKKS6gCWKnKKXJj6WiEmDOIkwdxNuAoLi69Wm/DN2gqPQTrfrDWhTzuutt7PTyfhp00mfLvW5LZWX01kEoJJg0O7e9OpGYztp/aoR5gcK8HMG3S4qmdgk6rqQ7fWcnEagL2WVjPH8foCGXDSfn/X/EchFZE6uFh64UKRU3QS4IB/KwBPtEqW4rNHEvDA+0XYf1lZMIeLYul6E37YYEKPNAX6d1CgiUGC+BgGJRUsLpa5sOO4DTuP271Wzd14yIotR2wY0FEBtYJg6pVa3DxMi1V7LHhvebnHjMDMzoqwRNdd08e9AWjbVIYPZ8SHdGXiDT3ayPFzAE5cQk1OkaspyyKXYXhP8TLhrwHILnBlARClAeD7igcCtYLgzXviMOmli7wSWS4W2HXChl0nPItweIJS4IUlpVj2ZFK10IaE4Zx6gzor8fyS0urgID48Kf0Gi04tZDBoGd7fj1RC8Mbdhoib/IB4HYEAcL7QmdUiSSpkAGpR6zdPKZUC6MPX6abDVvGth8CFz+rUwXvB4mIY3D2KL/oy8OSVuPDjxrpfU42S4IVbY90G4XQN09k2IcLPHtpV4TbnIJw0T5AG9b0JJpuOWIUiwPpVzvFqLv8JuwPgPSNatccqugKgALf3DfZx8qjeoXNaCRUMkUoI7rqa3xARErxVkDe0EHh2z7TIFZVascMiSplwAFi9x5oo0KQBN8erudwACFUAMh06a28bgLGFnMJyFz7/O7jRy7FaBjEq378WMglBaryk+ozfGzI7CQfw9O+g4M0OVMoIFGEs2CkklKrXROYX9ki2Ay8urRuPIRb2n7GnUwohx0utOX65aeY1AMUm9piLBV+SgSj4eIURXVrJ0d9Hrb1gIJcSXDdAjWv6qNClpRySyjlQUObCknUmLFlnEnQMThqiwbBuwgZAISNI0Elw8bKTgXBX6xUyPv5UTg42xUYWj31aHJFj8xYXC2mpiT1g0DJ89QEzAbxb9T+Xm2DeaCE3SQaigKXA/C9Lgib0YHNQGL3IHmxikODrOYmYN0mP7q0vTX6Ai/R76Hodvp6TyLtcH9Vb5VUQD99Uu7zqUKgx2/h/N5FWkdfpopj7RfDek1Cy95S9TKCpVmJQ9StIKW0JoBnfHW6SDERDaQWLOQtLglKsMq/E5TFxRS4l+O+9cR7LfqelSPH1nERMGqKBSs5tEZ6YrMcLtxlqGQw+7E7K6223OWhY97MFPNoGACc9frnEWjh5++fygJzYRAIr91iEPNNNK+c6gNorAKEEINfWIzZR7v8v59BZO95cFvjFjDfLxVuHa70uSaZWEDx+ox4b30zB8meTMSFT45WTcdcJ4biCM/nh+9qeyeN/dnaBE9+uqwjxaPj5fZvZY8CSmNjoPjGoeqXP8P1jTax2erLCwop+BVDFjxtN+GN7YPP301JkbotgalUMbvFCF68+OF3Ubb2+PSe9qx0QaOxOioNnhZ/9zq/l+GZtRdBPatxx+JwDL34ntGIWJyYrjbHZqVBZsOqPvccVwPEcp1BygWh56btSwbh7f5AwwPv3xwumkd4zShvUM2W7g+KZr0pxIEt4ov17MDx177Yfs7n1QVSVN5v6WgH+2mUJeWWeYiOLxz4r5hV8FTvHc5x5Ak3Vc10KAJTSGABd+a5cu88SmZEa9cBqp5izsARfzU6A1o/jOz7SU2X4fFYCDp11YP0BK47nOFBuZnFFNyVu4RdrrDcsBdbss+CD34weHWr7z9hx9qIz5PEAy7d6F0577LwD8xeV4F2DBFOGaTBpiCYgSkXucLoo5n5ejPwG4PTjY91+q6Qrf83DrlWJQQQAKKUjAPzDd+X1Cy7mnC90pgZxnGFjcBcl3poeFzEJKN5CKbB2vxUf/VHuU8LKuIFqPHVzbBBHVpuj2Q5Me73Ar+V9l1ZyfPpQfFCPMF/7ocxrnUIx0jxBev6XZ5J4HfsARhJCVlZ9/niX/yxL8xvq5AeADQet+PRPcUkcOl0Uj35ajNmfFfucrfbbVnNAtz6eeOfXcr/39gez7FizL3jblt+2mRv05AeA7EJnM5ZFrkBzJnDJB8DrADxf6DodjIFFEp/9ZcT6A+KpC//7Novf43WxwIJvSkMS5PLHdgu2H6vfkVqRMThL80NnHXipgTn9hLhQ5MwSaOIMAKVUAqAv3xVbhJMKGgwsBZ7+qjTiglKEyKrnOI9kO7Dgm9KgCm4eOmvHCwEIpW0VBH9FsZHF7Abq9ONjs/Ac7k8plTIAugDgDTFbs8+aELSRRRAVFi780+yjHHg4aOajYjEff++y4KM/grP1OV/oxKOfltR7gqkVBBntAhu67XRxsmveiqg0BFbvFZzDWgBdGQhrhjv3n3W0Cc6wIo/TeU48tbgkLFLUvjC0m7JeFY6r+OxvI55YVBLQ7cCeU3bc/mahYHEQXxifqQl4AtMby8qx51R44iHCReUcFlQKlkJg+e9w4bzdTlsFa2CRyLr9VnyxsgJ3jgyuam59SNRLMLKXCn/trH8w09+7LMgpcuG5abH1Oh60Oym+XWvCB7+Xw+UmtLd3WzlG9lIhQc8V4DyR48C6A9Y6QqrJBgnuujqwf4PlW834YUPDdvrxYbdTpcNFs2US0pynuY8UQDe+G602Ki73eID48PdydGgmC5uCjjfMGKvD5sO2OvH9GiWpVghKjZfAZKXYfsyGpf+aBNWKD2bZMfnlAkwaosG0qzQ+VTtmKWdEPvitHBfcSJIp5QTP3hKLEb3qljF/ggV2HrdhzX4rTl5wIDVegvvG6AIaOHXorB0vf984nH582B0wyfj/rJ0JpbQQQPzlLWUmuvfKubk9gj24SESnZvDV7AQ0S4jcGKjD5xx45fsyXChyon0zGUb3UeGqHireslblZhbzvijhLThSE6mEYGBHBa7orkTvtgo0jZfUyUEw2ygOnbVj61Eb/tpp8Zg5J5MQvD8jHr3bhkeRqNjIYuprBY1q3385619POaBVEr5AvwJCKXWCRwXYZKOHhjyW2zn4w4tM0lNl+GJWgmjrxF2O00Ux85NibD7s/dGcUk6QpJdAoyRwuIAyE+vz/n72RD0mDw1PLRmni+Le94qwt5Ht+y9n85spJxRyks7TZGMg4CBQyYmQrFCj4ESOA88F+bgslEglBC/d7psAp9VOca7AiSPZDpy84PB58icbJJg4KLD1B33hjWXljX7yA4BcToROAlgGAO/miCFINGiZouANK/L5Z7cFX6+JjHTVQBCjYnBTCL/GAzoowlbe65ctjdPpdznJemk+AYTKLJUyALIEGskVPVQngjMs8fDe8vJ6R7RFEhltQ+fcDJfm38EsO15txE6/mozIUAqlBAPAaQbAXqHWSYPV4giPCyIuFpi3qMRj4Q2xoAyhTyMcjreichazg6T8JEZuGOB2C3aAAfCvUGvbFFmPGBXT6E1paQWXMy5mocgqzheGzqbvOG5zGxcQaBwuitkLi+uIojZWDDGkuFWy1J2Y72oGwG8AeNe4hED72AT9nqCMTmQcFblUdBVbPBwFViGTEEweqsEXsxLw7+sp2PVeU6x9tQn+d388hnYVViauSVE5i02HQ5do9caP5dh3Our0q2LujbH7AQj9scwA/mEqq4UuE+pkTF9VrwQ9czEYAxQbf2y3iFo3zumiWOtFiq1OzWDhzHjMnqhHt9ZyaJSk+t8HdFTgrelxmD3RuzLj3gqC1JdfNpt5qyY1VpINkrzhPVW8Vb4qWUoIKa/y0rwOgHd9Swh0X85KOCXU3th4++dy7AqTvl592XXSjjKT5zX501Ni0bml+8CdyUM1mJDp+Yhv48G6EYuB5kCWHa/+0Oh3qtUQAvrlo4k54CoB8eEC8BZQqQdACNkL4EuhDpvESQc8NkEn6CtoTIhZRmqDF7qAPdPkuKK7d0v8B8bqoFa4dyo6XLROCfVAUlTOYvZnUadfTZ6crP83Uc/0dnPJQkLIIaC2KOgcQFA9BDcP0w4c2kUV9QdAvEKSJUbPX+IpPugX6jUMJg3xHFcgVBqsvlQ5/QKRfdhQGNFLvXvcQI1Qhi8AZAN4vOp/qv8yhJACANMgnDooe2N6bPNmCZLsgIxU5IhRSnqAhwSnFolSDPPSwVfFtCu1blcB4waq0bapd/UQfCXq9KtNy0Tp+ZfviG0NntD+SpwAphJCqr3ZtUwzIWQ1gLlCD2AISfhuXpJZKSeh8exEOGIrJnFtXzWmj44R1BO482qtz1oDsVoG919bt2xEXAyDeZP0eHJycERIo06/2mgUxLRkbqLFTdQfAMwihNTayvOabkrpFwBuF+rldL5z040vXBSqJNSokEoIPpwRj15hynbzh7MXnVi63oS1+6woKHNBWnnk98g4nd9lzv/ZzWkVqhUEfdopMLSrMmgViQ9k2TH9naLovr8SQkB/ejJpa4sk6QA3l31FCLm1zr18V1JKlQA2AMgQ6m3ZJsu6l5aWDPN1sA2RuBgGX89ORLKh/nJdoabMxEIlJ2GvIOwtheUuTH0tMKpDDYUXbjWsG91HNczNJXsAZBJC6qjI8C74CCFWABMAFAj1OCFTNXh0hnKnj2NtkBQbWcz8pDjsVXj9Qa9hRDP5nS6KeV+URCd/DUb2Vu0a3Uc12M0l+QCu45v8gIABAABCyDkA4wEIeVkkz98Wl9YqSXrO69E2YI6dbxiRgpHMaz+UYbdIYzCCQVqKLOul2wxtIez0cwC4iRByXqgPty4fQshGcMeD/O2A4dvHE61qBRP1xgBYscPS4ItNhIvft5mxbFPU91yFRkFMX81OdBLCr+hdyUOEkPXu+vHo8yWEvANgoVC7Qk7aLZ2XeICQaKQgALy5rKzB1JiPFA5k2fHiUnEduQYTQkC/eTzxgEKGtm4u+5IQ8pGnvrw99JkBYLtQY2q8pP8zUwxuLU1jwcUCsxeWIKcouk8NBMVGFnOi6b21eOWOuPXNE6X93VyyFcC93vTllQGodAqOA3BB6Jqx/VVDxvRV7/Cmv4ZOmYmrPtMQ0ofDidNF8fjn0fTemlw/QL19eE/lEDeX5AGYSAjxahnqddgHISQXwI0QdgoyC6bGprduIs3yts+GTNQpWH+iTr/atE2Rnnnq5tgOEJ63DgCTCCE53vbpU9wXIWQzgEeE2xH77dwkVqNkyn3pt6Hyx/aoU9Bfok6/2mgUpGLx7ESWENQNu7zEA4SQDb7063OWBiHkQwCfCrXLJWjz/bzEI4QghFowkUvUKeg7UadfbRgC9vsnE48oZCTNzWUfEEIE56Vg336O6QFwkYK8NImT9HvxNkM0fRicU3DuFyWiTB8OB1GnX11evyfu3yaxUnfiHpsBzPSnb78MACHEAWASAMG9xtW9VUNuGKja7E//DY2qSMGoU9A9UadfXW7I1Gwb1lU51M0luQBuJIT45SzxO1GbEJIHYCIE9AQBMPMnG7q1byZzJ0vcaIg6BT0TdfrVJj1Vdnr+TfpOEMjZAWAFMI4QIng654l6KTUQQrYCmC7cDu2iWQlMVFmYI+oUFCbq9KuNXi0p/Wp2ooQQxLi5bAYhRDA+xxvqLdVCCFkM4AOhdrmMtP5xftJJhhEUGmlUvLmsTLSagsEi6vSrDUPAfvdEwgmZBC3dXPYOIUQwQtfrZ9W3g0oeASAYCZigZ3q/cofBp+OJhoqLhWg1BYNBUXnU6Xc5b0+P25Col7hz+rnN0fGFgBiASqfgTeD0xni5qodq6OShmi2BeJ7YiToFOaJOv7rcOFizdVAXt5F+5wCM99fpdzkBTQSnlPYEZ5149aIphWna6xdzj2Q73SUxNBrG9lNj1nh3cR0Nm/8tL4/u+2vQpZX8+JePJqRCWM7bCmAwISRgOhwBV4KglE4F8JVQu4tF9tVP5qlLjGx8oJ8dpfEQo2LQqQUnNlpY7sKpXHGXsdRrmJK/X0w2yiSkhZvL7iCELArkcwOu10wI+RrAO0LtEgbNv5ubdDbqFIxSH9o2leKDGfH4YEY87hjpzlEe+TAMXN/PSzzlYfK/EejJDwTBAFTyGIC1Qo3xOqbX29Pjok7BCGPiIA0evE6HB6/TIUYVntLejZH3/xO/MUEvEdTfBLAawLxgPDsof2VCiBNckNBpoWsGdVYOveUKbTRSMIIYnaHC7SO0uH2EFlqVOHQCxc7tw2M29e2gcBfpdxbA5Mo5FXCCZuYJIcXgNAWFIl/IrPG6nj3ayI8EawxRokQy3VrJjz14fUxPN5dYwHn8C4M1hqCu8wgh+wDcBuHCoqpPHo7XGbRMUTDHESVKpGGIYYo/m5mghsCJGbg5cwchZHcwxxH0jR4hZBmAN4TaJQxJ/W5e0jkJA1G7cTVKAkk9fptyGQl4IQ2VvH5jqi9yKfFYPBQAJAyqS5A3BiQMnD88kXROwqC5m8teIYR8F+yxSIP9gErmAugCYDRfY7yO6fne/fHr7v9f0bAQjafepKVIMT5Tg37tFWiWKIFMQkApUFLB4txFJ/49aMXPm81uS2MP6aLE2P5qZKTLoVNzM9Vkpdh72o4VO8z4Z5cFrJtYoeE9VejXnqv3t2yTCUezHWjdRIrbh2uR2VlZXZTz7EUn/tllweLVFTDb6nZ461VaNE+UonnipddhxlhdnWvLzSzeW35J62VoVyUGdeZqCf62zYz9Z+xonijF1Cs0GNJViUS9BIQAr/9YVqeEWlqKFJOHajGgowJNDNx1difFiRwn1u634Lv1Jt6xNgQ+ejB+s0HLuAv2WQngqVCMJSQGgBDCUkpvAScsyhsE1K+9Ytj0a2I2frLC6K6yadiRSwnm3KjH9QPUYC77aBHCVQmKi5GjR5ocqQkSvMQT465RErx8RxwyeYp1apQEmZ0UyOykwKQhGsz6pBilFfxGpFtrGcZncivIrUet6NJKjkfH6yCX1h5YyyQp7hkdgyFdlZj+bhEqLLX7G9JViZ5ptUubjcpQ1XlefomrlgHo1OLS8/efsaNFkhTzJumhlNd+fs3/JwS4b0wM7hxRt0ahXErQuaUMnVvKMHmoBo9+WoKDWQ0rb+KOkdpNvdoq3E3+MwBuJoSE5Jg8VCsAEEJKKKXXgVMs5Q1/u3d0TMbuE7bDO0/YO4VqXL4glRC8/0DtOoD7ztix5YgNhWUuKOUE7VJlGNhJgQQdf62GqlqCnVtyfThcFCt3W3Ewyw6WAl1ayTCylwpyKUH31nJ8/GA8bnuz0GPVoYGdlLi+vxpWB8XyrWYczXbA4aLo1lqOMX3UYBigfTMZHro+po5R+veAFWfynBjaVYl4HTcr/9pp4V0BCNE7nXuOw0Xxx3YLDp/jJm56UxkqrJf6eeh6HW696lIJ8p0nbNhw0AazjUXLJCmu6aNGXAyDBJ0EH86Ix51vF+JEjsPtzy4WurWWH50xVtfLzSUV4Kr4hMwnFjIDAACEkCOU0tsBLAN/FKLywxkJ+lFP5RUWlbMJoRybN9x3TUz15DdZKeYtKsGmQ9Y61xECdGslRxJPrcBpV2mqJ3+xkcUD7xfheI0X/IcNwOJVFXj/gXgk6iVo21SGh6/X4dUf3GfLjRugxpFsB2Z+XFyrdNZPm8xYf8CK1++KAyHAdf3V+PB3I0pqrCoWr64AALRpkoB4HTe2//1Wjtxi7z9CY/upcSrXiUc+KsIFgfu6tpJj6pXc5GdZYMG3pfh9W+1Q4IV/V+DVOw3o214BtYLghVtjcctrhXC6xL0dSNAxBQsfSdADqLu04qAA7iSEHAzhsILvBLwcQsjPAF4WamcYpC6bn5QrkwYm2SFQxGoZTLmCC9F2scDMj4t4Jz8AUMqtDFburl2OTSYhmDLs0tfviUUltSZ/FadynXh8YQlo5Ts/PlON5Fj3hUdNVlpn8lexdp8Vv241V4+hym8QSFgWePzzYsHJDwDTrtJWb5u+XFVRZ/ID3Crjsc+KUVjO9dO2qQwjeioDPt5QIpUwju+eSLrAMEhxc9kLhJAfQjaoSsLlI34KwO9CjTFqpusHD8RFVObgqN6qai/9b9vMfuX09+2gQFwM9yvfdcKGHceFxUKrthYAt20Y20/otIhj1V6L26KZNSdbeqrMl2F7xe5TNpzJEz7IUckJhnblDI/VTvHFSqPgtSYrxVerLzkNxw10/7NHOp89Er8lVsN0d3PJ3wAWhGo8NQmLASCEsACmADgsdE2vtoqh942JiZhw4Z419v1/7uAttOqRri0vTbw1+/hXDzVZs+/Sc3qly91cCRw+636ffCb/0uTUawL/Z99/xv3zO7aQQSrhDOj24zaYrO6X9Gv3X/rZu7WS13FsioW7RsVs7NpK5s7pdxxcpF9YcmPCdkpMCDGCixQU3NzeMyqmT0Y7xaHQjUqY1smXJu/R8/45pWoes3nj2Dqec2nStk52764pc+OgAwBzjQkXjMnkKae/ecKl8fNtey7nQpGr2gkplxE0jXe/BYpE+rZXHLx/TIw7YQ8juEi/sIlFhjXjgxByDMCtgGANAeWHU9z9QAAAE1FJREFUM+ITkg2SvBAOi5eYyth4F4s6x2i+9gEApSbPfZRWXJpUsR6+2qy7gIEQ4OmUIkZ9afxCx5o1oRQoMV66LhirlmCSGCu5+P798QkAhBwuVZF+Yf3Ahf23SghZDuB5oXaGIPm7uYmFCql3tc5CAQnValScq97AUfPnF9EhgFTCOL6bm5jHMGji5rJnKqNkw0rYDUAlCwD8KNQYo2a6fDYzIayZg1Vn4BIGfqfKGi2X3mKD1vOSNq7GNSVerBgimZoxBHExnn92QlAdyQh4t2KKFL6YFb9Vr2G6ubnkVwAvhmo87ogIA0AIoQDuBCC4HOrUQnbFg2N1Yas2VFNxpmML/7zoWRcv9dHJiz5qPufkBVGnSuBsvm8/e8skaXUegcVORVNufeZ4/fpOLWSD3VxyFMBtlY7wsBMRBgCo5RQUdIjcPlI7YEgX5b7QjeoSO2vU97umj1Ash3v2nrp0dDgqQ+VxKzG6Rjju9mPB3wE5agTbBDox6ch5R7UIaka6XDBSsorRNX7Hu0/aRREINKCD8sDUKzQD3FxSDs7pFzEa6BFjAACAEHIcnLqwkLmXvTk9rmmKQZobwmEB4EJjq5ax12So68TOe8Ouk7bqQJn2zWRuz/ZH9lKhW2vuGRY7xW88QTOBpuZJQs3ldyCwOyj+3sUd7UklBDNvEBZDbRonqRUw9b0Iiqkk66X57/7HkARA6MVgAUwhhESU/kVEGQAAIIT8A+AZoXaGIPG7+YmFcinx7zDeT8w2ig9+54JXGAZ45754jM5Q1UkIArhjtuv7q6vDXqtgWeDjFZcCYOZN0mNEr7qriSu7K/HMLbHV///ZX0aUhWAPfKrGNmPyUA2axkkgD+BKYNHKiupVwKgMFWbeoINMUrv/tBQp/vdAfPXyf9sxGzYd9hwzEU7kcmL94anEQoYhyW4ue5IQ8kfIBuUlIc0F8IGXAHQDV4C0DhoF6fr17MSNk16+GNLMwR82mNChuQzjBqihURK8cJsBD4/TYe8pO0oqWKgVBAYtgw7N5YjXMVi2qe6X6/dtZvTvoMDoDBXkMoJX7jDg7qu1OHjWAVCgU0sZ2tWI1Ft/wIrFqypC8vOt2mPBPaO4LL3hPVUY3rO2ccovceGap/P97v/sRSde+6EM82+OBUOAqVdqMSpDhR3H7aiwsGiVLEWvtopqDYOcIheeXlxaHRIdqXz+SMJOjYK4exd/BvBKqMbjCxFpAAghlFJ6F4COALryXZPWVDro0fG69W/+VO5OTy3gvLCkFLlFLtwxUgulnCBRL+H9igNAhYX/zX16MVcufOqVGkglBG2bytC2aW3HGEuBXzab8doPZW41AQLJ6TwnXvyuFA9fr6vWJwg0v2wxw2SjmHujHrFaLutvNE/q8b7Tdsz7oqQ6JyBSefxG3fqOzWXu3sEjAG6vdHRHHBF90kwpbQVgBwChzEDHrE9LDq3fb+kRulFxJOgkGNlbid5tFUiJk0CrZFBqYlFsdOF4jgMbD9mw/4z7fIEWiVKMylChV1vOKUYIUGRkceCMHX/vsniMmOvTToHOleHFa/dZcfai8EkBw6A6DfdUrhMbDgovq6USgk4tZGiRJIVSTqCtVOsxWSl+2HBpVdMzTY7ubbgt78ZDNpy84H2EZIyKweg+nKBJarwESjlBSQWLU7lOrNtvxabDVrdf/uRYSbWj8HQuJ8ASajI7Kfe/+5+4DhDe95cA6EMIidgK2RFtAACAUjocwF8AeN3GFCge/3y+6dxFlzt5pShRAkpqvOTCL88kKxgCoQI3LIBrCSF/hnJcvhLxBgAAKKVzALwq1G6102NXzctrbrVTcaeNCZBskGDSYC4V+eQFB/7cGVL/Z5TLUMiJdeWLTc5olKSjm8tmE0IEtTAjhYg7BeCDEPIagCVC7Uo5af/VnMQ9IRxSSEnUS6r1+od1E3dufENg0ayEnR4m/7dimPyASAxAJXcB2CXU2CZZmjlvkl6wRHmUKIHgqSmGde1SZe48/vsA3BOq8dQX0RgAQogFwAQABULXTBysGTQqQxmwyqlRotTkqu6q3eMGqNxN/mJwkX6iKXksGgMAAISQs+DChYXczZIXbotLa5EkPRfCYUVpBDRPkJ5/5a7YVhA+OncCmEgIESyHF4mIygAAACFkI4A5gu2AYenjSRa1gon8+NEookAhI6al8xKNDCFxbi57jBAiWBA3UonIQCBPEEL+SyntCi6DsA4KOdovnZe49foF+f0ojayTjgSdBG1SuEy33GIXTuQ4ghLokxInQesmUqgVDExWFjmFLpwrqF9GIUOA1k2kaJYgBUuB7AInsvL96zPZIEGzBCkMGgZmO4usPKdbQdFwQQjokrmJ+5Vy4i7J52tCyDshG1QAEaUBqOQBcFGCvJJLqfGS/k9N0a977puyYSEdFQCtisFvzyYB4IJU7vpvIVLjJXh4nB5XdFfWyh/IL3Xhs7+M+HmzuV4hrwk6CUb0UqJHGy44J1FfN2wiv8SFb9eZsHS9yW123YRMNWZcxyXrfPiHEd//a8LwHir859oYtLpMmux0Hhfe607gtAqphOCGgWpMHqqp0w/AyaR98qfRK73EULHgFsP6lknSYW4u2QPg3hANJ+CIbgtQBSHECmAcAMHMwOv7a4aM6afZEbpRcRAAOjUDnZqBRknQu60c3z6eiKt6KOskDyXHSjB/ciwWTDXUqZTjC73T5Xhsgh7De6p4Jz/AfXVn3qDDu/+Jg0ouvDCSy0j1+OVSgkfH6/HqXQbeSdumiRTv3R+H3m3dZ0catAwWPhKPuZP0vP0AnFrx63fHYc6Net4kq1Azopdq15h+Kne5/fkArheT0+9yxLwCACHkAqV0IoC14A/HZBbcok8/fNZ29kyes2WIhweAMwQv3WGASsFgyToT/txpQbHRhSS9BNf2U2PcQK7E2Ji+KlwocuKjFcJy2Z5wuCj2nLRj10k79p22I7/EBZuTIkkvwcBOCkweqoFOzaBfewWenRaLxxeWeOxzZC8lOreU43SeE9+sqcC+M3ZYbBTpqTI8eJ0OaSlSyCQET06JxYTnL/JuZ+RSgv/dH48Ozbmw5TN5Tny/wYS9p+woM7OIUTEY2lWJ20dooVYQ3DREg9xiF75aHZokKD5aJEqzXr7D0BoCEajgHNE3EUKyQzisgCNqAwAAhJDNlNJZAP7H347Yb+cmFQ+fm2s0WWlMiIeHZIPkUiGRw5eWybnFLuw7Y8e2oza8fKcBDAFuH6nF79stOF/o+75632k7rnkqH8XGumnD+SUuHMiy4+fNZrz/QDzaNJFieA8VurcxYd9p9/kKnVvKsfGQFbM/K4HdeWl255W4cDDLjm/mJCLZIEGLRCn6tldg69G6W4G7RmmrJ/+fOy1Y8HVpLfGR/BIXTl5wYOtRGz55KB5KOcH9Y2Lwx3Yz788TbDQKYlo6N9FJAHdOv0cIIaKPOxHtFqAmhJD3AXwq1C6XoM13cxMPExIeacnftpprTf6arNprwa9bLlXtmTDIv2jmvBKXx8lysdSFF5deElziy8K7HLON4qnFpbUmfxUlFSzerVEsNCO9rgBu1RcdAC4Uu/DcN7Unf00OnbVXr4DkMoLrB4Q+spsQ0G8fT9yvkBPeIraVLCaEfBCyQQWRBmEAKnkAgGAhkZR4ab8Xbo1bF7rhXGK5BzWfb9ZeWuoO6RLcUN99p+3Vk7lKccgdmw9b3RYF3XjIVr3sb8mzt+/fQVEtorpso4nXkNTkp02XrunTLvAlzDzx8m2G9c0Spe48/lsBTA/VeIKN6LcAVRBCHJTSSQB2Akjlu2ZUhnLo9mOqzb9utQwM1bicLopDnqr25DmRV+JCE4MELZKk0CiJx8o57ujcUoaeaQq0TJJCpxb2plVVAnbHaTflvgCuRkKFhYVOzdSqe1BFVbowAOw55bmcmslKcey8A11bydGmSWhfz+v6q7eP6K1yV8UnD8CNhESORH19aTAGAAAIIXmVTsF14C/IwDw1xdDt6HnnqWPnHWmhGFNBGeuVoGVWvhNNDBIwhEv+MVl99wP0bivH7Il6r2v/aZWeDcDlJcL5qPpiS3hc901qVEiePznW4woAAJolcPfogyRKwkfb/7d3/rFR1nccf32eu+tdez967fUXFvwBliL+AB2rxAgtThecrNGgUrYYM7cKJgwVZYRBtmwuizE2ZhrjSkbGdErcBom/RrJIII0DRBOJKN3slIJELL/6i7ZH27vv/niux1295+m13i/u7vXv8+R5Ppc+308/38/383l/plmP/upH3jkYR8UjwP0iciJlRqWArHIAACJyQCm1CtgW+zqubevKTn9/U1dv/1CwONn2DE0wMWeM/ogweypzB26fX8jvf1ISltPyDyvavxzhVE+AnoEgQxELuaneiaNA4hpw8m3luCJ/y6xpk/vcbCmaB+i0y/mX15cHRTBWKoU1IpIxsyoTRdY5AAAR+YtSaiGwOtb1Aptc9frG8gPLft313aAyPOZJCNY4nx4pvhnPf8lIvC6NTSuLsWj6luPFt/p5vW0gLMA5nvtC2gKp4ELEb/nltm6Om6gWpQNNCP59c8URu03qTG77o4hsSZlRKSQrHUCIteiagjH12ipLLAuffqh0zy+2nluSTCN8cUzBgehQOZ7ZeZHcPr8wrOH36p4BXjY5P3c6BKcjdVU2fRFqxgN+PSrJJJ75aUlbpdfSYHLLfuCxFJmTcrLpFCAKERlBnzFguGf73nxHQ1O9a38y7XA6hOll5n7WU6SFw+Oe80FO9U6uJr52+sU9f6xz+EhiHdUlk8gJxwsmGHGeau6+pfD9JfMKzQQ9T6J3+GVN0m88WesAAESkC2gEjDS05MnlnhuumWH9XzLtuOMm86O9xoVFWEP6+B98dmHS++4xDX0A2wQBR1N96sJ/IKpH4K66ItMS5FRSU237YnNTyVyMZfH8wN0i8lUKzUo5We0AAETEtFlDBOefnyi3uou0c8my4YHbXEwrjb0yr6iw0rz04gCRnfsmX1YeKZ1967XGzubeRU7qalMdAYyEqw1L3Rob7i+OK/lYYJO4jimnQnGRpeeV9eUWEcwqQ9eIyMGkGJBBZL0DABCRV4Dnja7bLHLljk0VnZpmOJJsyvQNBnE6hC2PlnHLXHu4yUXT9AlArWt9uEKZ8r0f+6c0AzAy7L93kZNVP3BHRQVel8bPGz1suK+Y80NBw+RgsmjZ2Rc+Cv3hzUW0ri1j4Rx7zKlDPo9GU72TnZsruHFW4p2VJgS3b/R12CyY9Ya8ICJbE/7yDCSbk4DjeQK9fThm0s/n0W5qafbtebz1bEKTgl3dAd79yM8jy9y88IiP/qEg3eeD+NyWqGTc5ydH+d12w7mophz4zwU+7LjAghrdwTx8p5vmpW5O9QYIBKHKa0HT9CO9377Ww8YV3oQP/zTj02PDPLW9l00riimw6d2R37nax2hAcbo3yPCowuXQ8DjlG6PCEs1zq0rbKr2m7b3/Bp5MqhEZRE5EAAAiMoqeFDxmdM/i6+wNK+td+xL97q3/6qf1n/0ElX4ufnm5NWrx7z7kZ9XzZ+ieZPZ/DKVg/Z+6o4Z9iOitxpeV6ou/bzDIui3n2H0oPb32b78/yIMtZ9j7sT9cOmy1CNNKLVxRYcXn0cKL/3RvgL+1DXC4c+LKwcmwcolr/63XOsySfsfRNf0S++IMJjMyMilEKTUf3csbdZoMPfrSmY73jgzfMNV3uAs19j5TBegiF01P6zqmlSUW6q93UO2zYLUIX3cH2HfEz+cnzc/GCwsk3EPfN6Sr+xgxu9pGXa0+rUhEb9j57ITeaTcW+s+utmHR9PFj/z3xzWO5UrdGpVfPWXT1TNxkVFNtw6rpVYNm04nGKPNYuPFqvdTXU6Shhezs+GqEI8dH6OpOvDJQXa39k5fW+GZi/Hf3A4tFJOX6Eekk5xwAgFLqx8Bfja/T81jruWPvfeqfN5XnGzmAPOmh4frCj55tLpk1QaXfAyJi+E1kKzmzBYhERF4FWoyv4/3D6tLa1Xe5s670M5cQQa1t9LS1PFwyd4LF/1wuLn7IUQcQYgPwrsl1R/NS96J3flNx8MpKq2HeIE9mMqvKenTXU5UfPniHazGxG8PG2I2JynS2k0unAFGISEAp1QQcBGYa3VdVaq3bsbliuP3L0bZn/9FTfuiLYbORUHnSTN1s+yfrlnt6ai6z3QxcNcHtnUBTKEGck+SsAwAQkbNKqXuAfYBZiVzBNTOsi7c+XsZIQB1vPzbc+UHHsBzuHHF39wcL+4YCUYkld6GmEdIkcNhl5PIKy9fJ+xW5iUWTgNepDVWUaANzphcMLqixy5zptpmaxnVxPmIQuEdEziTTzkwnJ5OA41FKNQI7yHGHmEOMTfF5I92GpJtczgGEEZE3gZ+hfxh5sptR4KH84tfJRwARKKWWAa+BaY14nkuXXmCliOxKtyGZQj4CiEBE3gbmYSIumueSZQ8wL7/4o8k7gHGIyFF0EZEVQHuazcnz7TkMLBeR20LTpfNEkN8CmKCUEqABaALuBGak1aA88XIU2AVsD02TzmNA3gFMAqVUFTAXKAO8aTYnz0VG0ff3XUC7iJxNsz2XDP8HuchUCL8/eqsAAAAASUVORK5CYII=;" parent="1" vertex="1">
          <mxGeometry x="336" y="408" width="256" height="249" as="geometry" />
        </mxCell>
        <mxCell id="X_6x3CovaAltFQVWhzz_-2" value="" style="shape=image;verticalLabelPosition=bottom;labelBackgroundColor=default;verticalAlign=top;aspect=fixed;imageAspect=0;image=data:image/png,iVBORw0KGgoAAAANSUhEUgAAAQAAAAD5CAYAAADImOsDAAAABmJLR0QA/wD/AP+gvaeTAAAgAElEQVR4nOydZ3gUVRfH/3e2l+xmUwmhh9A7oYamAoKIIiAigl30VSygIIgNe/dVX7soYgELFlQsdOm99xYIIQnp2Wzfnft+mCQkZGZbtk2yv+fxg9yZOzfJ3DP3nnvO/xBEaRRQSpMBXAtgEIAeAFIAJAMoB2ABkAXgMIC1AP4hhOSHZ6RRokQJGJTSqyilyymlLuo9DkrpMkrpVeEef5QoUXyEUkoopWMppVt8mPRC7KGU3koplYT754oSJYobKKVM5cTfFYCJfzkHKw2BNNw/Z5QoUWpAKZVXTs5jQZj4l3OGUvowpVQV7p87SpRGDaVUUzkZs0Mw8S8nn1L6LKVUH+7fQxT/IeEeQBTfoZQaAMwA8DCAeN/uhbHcQk8XlDpNNjtcAKBUEEmSntFrVUxLQqD1cTiFAN4F8D9CSImP90YJM1EDICIod5Q3C8B/AMR4e5+LpRc3HLId+Xp1RdK+0/YOLOX/u0sYODPSFcemDdcW9msv78oQEufD8IwAPgDwdvQIUTxEDYAIoJS2BDAbwJ0AvN572xz09Gf/VOQuXmnq63SxMl+eqZAS211Xx+y4dYS2uUyClj7cagHwOYDXCSFnfXlmlNATNQARDKU0DcBDAO4FoPD2PqudHl+4sqJg0T/G/iyLeh3fMQTstf3Uux6boNdqlKSjD7c6ACwF8DIh5Eh9xhAleEQNQARCKe0G4DEAUwDvJ7DRzB546+dy62/bzBlUYJlfH4b3VO1+ckqsPEZJuvhwGwtgBYDnCSHbAz2mKPUjagAiCErpIACPAxgDH/42RjN74LklZc41ey09gza4GgzsqDwwf4re2iRW0sfHWzcBeJYQsioY44riO1EDEAHUmPjX+nAbm1fq2vXM4hLNzhP2TkEamlu6tZIfe3JKbGFairQ/fFipgDMErwL4nRBCgzO6KN4QNQBhglLKgPvSPwmgrw+3Ok7lOrc/+WVxyvEcZ5vgjM43OjSTn3tmauyFdqnSDAC+RAruB/AmgG8IIa7gjC6KO6IGIMRQSmUAbgYwF4AvTjXbqVznzsc/L252Js/pi1c+ZDRPkJ5/cor+dEa6og98OK0AcArAawC+IIQ4gjO6KHxEDUCIoJTKAUwG98VP9/4+mHadtO16enFp+/xSV3LQBhhA4nVM4eyJ+kPDe6h6EgKdD7eeBfA2gE8IIZYgDS9KDaIGIMhQSrUA7gJ3jp/q9X1A8ao9lgMvf1fWrczEGoI2wCCi1zDGOTfq91/dW9WJAL78DBcBfAjgv4SQ0iANLwqiBiBoUErjATxY+Z/XEXUsReHqvZZDLywp7VVhoV5H+0UyGgUxPTA2ZteNgzXtGYb4soopB2cIXieEFAVpeI2aqAEIMJTSJAD3A3gEgNeJMi4W53/cUHH6nV+NfWyOhplpJ5MS+7Th2h3TR8U08zG60ARgIThDcD5Iw2uURA1AgKCUtgIwE8A98ClcFyc/+8eY/+U/xn4u1icPumiRSgg79QrtzunXaBMUMuLLSYYdwHcAXiCEHA/S8BoVUQNQTyilncGd4d8MH47ArHZ6bOHKisJAhOuKleow44l6tUZBOvtwa1V04TOEkN1BGl6jIGoA/IRS2gNcZp6/4bp9aDQEpho/owspgD/ArQi2BWloDZqoAfARf8N1iyrY3U8vLpVvPWL1JY6+0VHDEGTAt/dzE4BXCSG/BWloDZKoAfASSulwAAsADPThNjav1LXrqUUl2t2n7L4E/TR6urSSH396SmyBH2HGuwG8AuDHaJixZ6IGwA01wnWfBpDhw62OU7nO7fO/LEk5keOIiHBdsdIyWZL9xE2xZzLSFf3gQ0o0gAMA3gDwLSHEGZzRiZ+oAeChRrjuPAAdfLjVdijLsX3uopK0C0XOpsEZXeOkWbzkwlO3xJ7MSFdkAFD7cOtpcJJlHxNCrMEZnXiJGoAaUEoVAG4DF67b3Pv7ULHrpG3301+Wtc8vc4oiXFesxMUwRXNu1B8c3kPVgxDv4ywA5AH4L4D3CCHmIA1PdEQNAABKaQw4ua3HwZXM8gqW0uLVe60HXl5a3r3M7IoN2gCj1EGjIBUPjI3ZfeMQbQeGIMmHWwsBvA/gnaiIaSM3AJTSBHDqug/Bh1h1lqLg922mw6/+UN7Haqe+LEejBBi1gjHNGKvddeNgbTrDeG+8wYmYfgHgFUJIbpCGF/E0SgNQqa47E1ycvtcT2MUi+8cNFWf+u9zY126nyqANMIrPVIUZ3zNKmyqXkFY+3GoD8CW4WILsoAwugmlUBoBS2hpcjP50AF5PYJudnvxsZUWjCtcVK1XRhXMm6mNUCuKLA7dKxPRFQsixIA0v4mgUBoBS2hVcOq6v4bpH31tuLPnu34r+wRDZjBI8CAEd20+9c9YNOnWMmvEnzHgBIWRnkIYXMTTol5pS2hPcUd5E+Ciy+dbP5dblW82+il5GiUDqIWK6CsDThJAtwRhXJNAgDYCfIps0r9S1c8HXZartx6Lhug2Rbq3lR5+5Jba8VbK0D6JhxgAakAGglBJwE/4JAP19uJXNK3XtenJRiXZPNFy3UdCxufTkgmlx+Wkp0n7wTcR0LzjJsgYjYip6A1AjXPdZAL18uNV+Kte544kvipuezHW2DsrgokQ0LZIk2fMnx57JSFf0hQ9OYQCHwImYij7MWLQGoIbI5nwA7Xy41bTzhG3Xs1+VpeeWOH05N47SQEnQMQXzb4o9PrirsichPoUZZ4GLLhStiKnoDAClVAPgbnCls5p5fx8Xrvvk4tIOBaUuXyLHojQSDDGk+PEbYw8M76nqTgBfIjvzAXwErjJyWZCGFxREYwBqhOvOBdDE2/tYiqLVey0HX1pa3qPc7PIldjxKI0WrJKb7r/VLxLQIwP8AvEsIKQ7S8AJKxBsASmkigAcAPAwfrLKLpRd+3GA6+e5yY0Y0XDeKPyikxHbn1do9d4yMaSFh4Et2ZwW4EumvEkIuBGl4ASFiDQCltAWAR8Et972ewA4Xzf5po+nMO78a+9kc1Jf88ShReJFKGMetIzTb7xkVkyKXwBd9BxuA7wE8Rwg5GaTh1YuIMwCU0jbgvvb3wgcBCJudnvhsZcXFxiyyGSW41BAx1WgUxJeCrFVhxi8TQo4EaXh+ETEGgFLaDZxjzyeRzQorPfDmsjLrb9vMGdFw3SihYmBH5YFnp8Y643WMLyXZq8KMnyOE7AjS0Hwi7BOGUpoJzrHnk8hmNFw3SiRQTxHTZwghq4M0NK8ImwGglPYFJ954hQ+3sXnFrm3PfF0Ws/NENFw3SuTQM01+4ulbYstbJEp7AmB8uHUNgMfDlXgUcgNQeY7/JriUXG+f7zyT59jy5OLSpkezHWnBG12UKPWjXaose8E0Q067VGkGvA8zpgA+ADA71AFFITUAlfn4fwDwNubedvicY9NTi0taZ+VHw3UDSVwMg5G9VDh8zoH9Z+zhHk6Do3mSNGfBLYas7m1kveF9mPFBAGMIIeeCOLRahMwAUEo7AVgNL4J4KKWmHcft25/9prRjfonL66CfKO5hCJDZWYnxmWpkdlJCUrlQPZrtwNL1Jvy10wKHKyqlH0iSYiWFT0zWHx/USdmdEGi8uCUHwJWhqn0YEgNAKU0FsAWelXbN6w5Yd7ywpLRriZH1uqR2FPfIJARX91bh1uFapKUIr0qLjSx+3GjCt2tNMFrYEI6w4aPXMCVP3xK7f1hXZR94jms5AyAzFFqFQTcAlFIpgLUABrm7Lq/YuePOt4ta5Je6orLaAUKjJLiuvxq3XqVFUqz3oRFmG8XyrWZ8uaoCF0sbRNZrxNDEIMn/fFbCuWTP4iRrAQwnhATVEofCAMwD8JKbS1zf/2va+OoPZUODPZbGQhODBFOv1OL6AWqoFf7/ie1Oij+2W7B4VQXOFYg66zWiIAT0icn6DeMHagbB/YnBTELIf4M6lmB2TiltAuA4gBiBS5yvfF+284cNJl8EPKIIkBovwZQrtBg/UA25LHB/WpYCmw5Z8elfRhw66whYv42dqVdqt8y8QdcXwoFvpQDSCSGFwRpDsA3Aa+DEOHn55E/jxo9XGN1uDaJ4Ji1FituGx2BUhqrasRcs9p224+MVRmw7ZgvugxoJj4zTbZh2lXawm0ueJ4Q8HaznB80AUEqVAM4DiOdrP5Dl2HD7mwXufvAoHmiXKsPUK7UY3UcFJsQRHftO27FoZQU2HLKCRg8O6sWSuYmb2qXKMgWa8wC0IIQEZekVTANwDbgz/zq4WJwfMjs33mqnqmA9vyHTI02O24drMaizEiTMwdwnchz4eo0Jf+40wxU9OPALjYJUrH2tiVnCECGhmqsIIWuC8exgLhhHCTW8u7z8XHTy+06PNDk+nBGPhY8kYHCX8E9+AEhPlWHBtFj8/FQybh6mCajvobFgslHt539XnHBzyehgPTuYK4B9ALpd/u8ulub0n5nbJJqy6x2EAIM7K3HX1Vp0aSUP93A8UhVL8PWaCpis0b2Bt0gYOLe+3bSQYXgD5XYQQvoG47lBKXNFKdUB4K3G8tcu6wmWRWowntuQYAgwqLMS914Tgw7NZeEejtfExTCYPjoGkwZr8P0GE5asM6HcHN0beMLFQrr+oOXYFd1UfAagB6VUHYyy5sGqc9cfAkcbS9ZWeC3k2RiRSghG9Vbhzqu1aJkk3jKEsVrOEEy9UhsNKvKSb9eYk67oxrszlgHoC2BdoJ8ZrDdsIN8/sizNO5LtaBukZ4oahYzghoFc1F6yoeHsjtQKgslDNRg/UI3lW81YvLoCOUVRQ8DHntO2DiylxQwhfGHwmRCRAeA92z9f6DoNHxR9GwNyKcG1/VSYPjoGifqGM/EvRy4jmDhYg/GDNFiz14KPVhhxJi8aXVgTSkEKytiTybESvv0+70e1vgTcAFBKJeCWK3XYfNQWDSOrRCYhGNu/4U/8y2EIMLynClf2UGHTISs+XmHEkezoa1HFtqNWy3X9eZMGB1JKmUDnBgRjBdAdAqG/q3ZbGn1BjsY68S+HIcDgLkoM7qLEtmM2fPC7EQezoroEq/bYDAIGIBacjsahQD4vGAZAKKLJtP+MPT0IzxMFVRP/nlExPmXmNQb6tVegX3tFNMwYwM7jtvbg5MT5FLEzIQIDwLtXKalgj7tY+KKg2iCITnzv6d5Gjg9mxDfqMGObkyqMZvZgjJrh07zMBPBJIJ8XshXA3lM2UdVMqy/Rie8/3dvI8fa9cTh23oHP/6nA6r2WRmUIDp61Fw3oyKsiJrS69puAGoBK5R9e1Z9Vey3aQD4rUolO/MDRvpkMr95pwKncGCxeVYEVO81gG0FM0ep9NqWAAUijlKYEUikooKHAlNLJAJbwNLHD5uSWGy3Ul4qroqJq4t89KgbJ0YkfFHIKXVi0yohftzTsxCNDDCle9VKKAfzzcwIh5KdAPSvQWwDeJYrNTk8ZLbRBOgCjEz90pCZIMH9yLO4cGYNv1lZg2SYz7I6GtzcoMdI4hwtZMgla8TRnAohYA8DrADx+wZkLoEEZAJmEYNxANe4YqY1O/BCTEifBYxP0mHalFgv/NuLXrRY4G5ia8Zk8x/l2qbJWPE0B9QMEzABUFvyok/0HAOv2WxrMDGEIcGUPFWaMjUHzRPHG6jcEkg0SPDE5FndeHcMZgga0Ndhw0Ip2qbxJYL0CmRgUSD2A/hAwKKv3WTzJgYuCfu0V+HpOIl690xCd/BFEEwO3NfjlmWSMz1QHXRYtFKzea2kq0CQDkBGo5wTyLeZdmrAUF7MvuloE8Dkhp1trOWZcp0PvtpGfj9+YaRrHGYLbR8Rg0Uojftki3lOD4znO1hQoIYCBp3kggH8D8ZxA2kpeA3Ch2HUqgM8IKS0SpXj73jh8MSshOvlFRGo8ZwiWzk1CjzRx/t0oBblY6jop0BwwP0BADACllAHQj69t62GrKAO8J2Sq8f38RAzp4m1ZN/FSWsHi34NWrD9ghd3ZcJxpaSlS3H21kCJ95LPzhN0k0JRZOefqTaC2AF0B6PkaVu61JQToGSGDYYD7r9VBJmnY+nalFSy+WFmBZRtNsNi5iZ+WIsV798f7fbJhtVMo5ZHze+udLodaQWC2ic+wrdptMYzpwysQYgDQHsCR+j4jUFsAoVxly77TNtEd//VsI0estgF4ktyw66Qdk18pwNdrKqonPwCcynXinncKcaHYN9GOA1l23PpGAQY9lotRT+bjl80BV6/yC7mUoG97vryayGfbMVs7AEIr6IBsAwL1lvMOpsxEjzmcVHSbsKHdGvayf91+K+57rxAFZfyTPKfQhTveLMTuk553b04XxWd/GXHX24U4dNYBSoGCMheeX1KKmR8XR4QwaEa6OA2AzUFVFVYqpBYc+QZg72lbaYD6DymDOjdsA/DWT2UeveOF5S5Mf7cQc78owbajtlqrBAAoqWDxyxYzbnq5AB/+YeQ9f//3oBUPflgU9uV3RrrovkHVHM6yC5UFC4gBqLcPgFLaFOANWcTqvVZv6qFHFIl6iajFOD1BKXCx1LuzMUqBlbstWLnbAkKA5FgJDFoGJRUsLpa5vDpi23fajqe/KsEbd4ev2ntaUxn0GgZlJvGdCa7Zb1X07cC7gkmnlDYhhOTVp/9ArACELBHdeMgqOgHQhn7cRwjQqaXvMuOUAnklLhzJdiCvxLvJX8XafVbkl4RPCJQh4v27rt1nSXPTXO+iuoEwALwOQJuDni4zsXxBDBFNLxEvF71lWBh8HM4wf3x7i9QPUFjOJjpc9JxAc723AUFbAZzKdV4IQN8hR6wOI1/wxccRF8OgSys5+rVXoH0zGXRq31+Ztk1lSI0PbzqImP0AZ/Od2QJN9TYA9drsUkpV4ERA67BuvzVyDoO9JEHXsPf/VbROlkKrYlBh4f8sx+sY3DBAgzH9VGhxWc4DS7mCoCt2WPDLFrNgHzW5Y0T4tWDSUsTrB9hw0Mq2bSqYGKQkhFj97bu+K4B+AHhN65p9FtFVAOot4q+ELxACqHiCdRgCTL1Si9+fTcZ/ro2pM/mrrmnfTIaZN+jw69NJGNPXfY3XpnESjOwd/jqwhAA92ojz77t6rzVFoEkBoHd9+q6vARBKACo8k+dsWc++Q04vkTqK/OHy/Hm5jOC/98Vj5g06ryv8xmoZPDfNgMdv1IMReJOu6asGEyFrQbHmBRw970ijQIlAc722AUExAHklrpMIYuXhYNG9tThfEF8pNrIoqbi0FGYY4I2745DZyT//x6QhGsy6gTcSHB0jqLCpWFcAlIIUlgUnMchvA0ApJRBIANp21Co6YXeNkiCNf5/V4Pj3QO0t47QrtX5P/ipuHqbB8J51l/pNw+z8q0nHFjIovFzdRBo7jtuFYqsHVs5Fv6jPCqATAN7ojpW7rfH16DcsdGklj5ilajChFPh+w6Uks+RYCe67JjAZc7Nu0NWZYI4Iyi6USQi6+BEDEQms2mMREtRNANDO337rYwCElh62vafEVwGosSz/V+yw4Nj5S7X4JgxSe73n90SyQYIRvWqvAs7kR1YB0B5p4jzm3Xo0OIlBATcARjN7zOakovstdxfp/tAXDp9z4LUfa9dnGdNXHdBnjM6obQB2n4gsOQix+gFsDqoy2WjA/QABNwD7z9iL69FnWGAIRLs09JZtR2144P2iWuf28ToGTQyB3aN3alH797jugBVWe+RsA7q1lgmeWEQ6R87ZCwSaQmsAKKXJAHhjlFfvswb2kxIC2qTIoFWJ9K3wQHaBE/O/LMH97xeh3Fw7CKZ1cuCNnk7NIEF3yaiUmVh8vbYi4M/xF62KQbpInb1r9liFVtbtKKWJ/vTp71svmAC04aDVXfJCRNKttThfCHdQCnz4uxETXyzAXzstvNdIg+Sgl1zW76d/VmD/mcjZCoh1G7DmgLWNQBMBMMCfPv01ALwJQHYXzSo2sqI7AWiIDsCfN5vx2d9GtwUzguWhv7xfp4viwQ+LsT1Cyn6L1d9TUOpKcrEQygsQUuVyS0BXAKcuOHP87C+sdG2ABmDdfv6vfk1OXHAGvOpusZFFsbFuvH2FhcUDHxTh4xVGsGF2CfQUaUQgAGTlOwOaGeizAaCUKgD05GvbeCgC9J98xKBleGPexY5M6vlor9zMIrswsMd07pb6LAt88qcR8z4vCasRSIqVhD070V82HbYJCSv0qZybPuHPCqAvuCSEOqzeY0n1o7+w0rWVHKQBBgB5m9X465bAinf+ts1zf6v2WrDtaHi3A2LNC1i52+IuMaiXr/35YwB4lxoUKD6Z62ztR39hRaz7QU94G4P/6xZzwDT7sguc+Pegd5mpeWFUCALE+3c/mm1PoxRlAs0+bwP8MQC8zoaLpa6TlIovAahbA9z/A8DgLkqoFZ7/HCUVLN7+Weh98h6WAs9/W+q1VFjbpuHddvVoI7pYNQAAS8EUlbsCphTskwGoTDrg1SHbdtTq2esUYUglpE7gSkNBKSd1ovKE+HmzGX8KHBV6y4e/l2OXFzLiAKcy1LlleA1vmyZS6DXijP3YecIhFFgxyNfEIF/NcHsAvAEHq/bYRKf/176ZNGxVbFbssODPnWbY7BTpqTIM6qxEv/aKgEapPTxOj/xSFpsOW916+ykFnv6qBC6W4lofQ4MpBT76w4jP//E+2GdMBGgEVAmErD/gt5hO2Fi1xxw7KoNX1i0BQFsAQiuEOvhqAISWGPadJ8RXAahrq/B8hf7aZcFTiy/pO+w6acfS9SY0T5TiqSmxAVOw1SgJ3rkvDmYbRUnl0ZzVQZFX7MSGQzas3mupPrJjWeCZr0qx7agNsyfqvdL+yyl0YcG3pdh1wnuHnkZJIkIiDOD8AGI0ANuO2dMBOME/fzMRagNgNLPHbQ7axce+wk44HEFOF8V7v5bztmUXOPHIR0X45elkxOsCtxRQKwjUikvHXmkpUmR2VuLhcTp8vMKIr9dUVK8QVuywYN1+K67po8boDFWdHHqjhcXBLAd+2WLGuv1Wt4FGl8MQYPZEfcQsvcV6EmC2sRqzjR5RK0hHnuZMAIu87SsgBuDQOYdQ9ZKIJhwOwF82m916wM02ioNn7RjaNfjS3So5wSPjdOjWWo75i0qqKwObbRQ/bjThx40mSBhwCUMEcDqB/FLhsfdMk2NkLxXSU2VI0ktQYWWRU+RCTqETDhcwsKMCHSJIIahjc8642RyiC1/B4XP2gox0hZAB8BqvDQClNAEA7zJ/zV5z+FUffSQ5VuJ3Jtxfuyz4ZIURF4pcGNFLiccmePdVyy124YM/jB6v88Z7H0iu7K7Ec9NiMW9RSR1fgYsFcorcH9m1SJRi3k16niKcErRvFjkT/nLkUs4JvOdU5OQpeMu6AzaZgIR9B0ppHCHEq6xcX9ZiAyGg8/fvIbvozv/9Df9966dyzF9UgrMXnXC4KFbssGDyKwXY5yHZJSvfiYc/KvJKljolLvRRaiN6qXglvTwxpIsS385NFG0FXrHGA6zZYwlIYpAvBoB3aeFw4WxBqSvJh34igs5+5P9//k8FvuFJbb1Y6sLd/y3ES0tLkVN46WvJUuBglh2v/1iGqa8V4FSud2G3SfrwhKn+Z0yMT1GRHZvL8OpdBl6JcbEgVgOQX+pKdrFUKPfG622ALz4A3k6zuKolopMA7+zj+f++M3Z88Du/8w7gvOjLNpmxbJMZcTEMVAqCwjLWr/1luHakLZOkaNtUhhM5Do/XSiUEL91hgFxKkFPkwtFsBwxaBl1aygImMRYKulWGggc6KSoUnM13nW2TIuULvw+sAahMMuAtQLDhoFV0pVYYAnRs4Zvl33zY5vVLUmxkAc9bfUHOF7qQlhKcSDmrneL37Was3G3F6TwHmsZL8fD1uuqaCN3byL0yAMN7KtEiUYrft5vx3Del1eXB1QqCURkq3DEyBk3DsJXxldjKZLCzFyNLu9AbNh+xOtuk8B6p9qGUygkhHp0b3m4BegPgdUuv3mNp6mUfEUOrZKnPjrZWyaELXV2xI7AJOlWs2mPBdQvy8fJ3Zdh5woZiI4uDWXY8/FFRtaOvTRPvfs6x/dQorWDx2g9l1ZMf4E4Qftpkxk0vXcSmQ+I4YxfrNmDlHmsTgSYVBDJ2L8dbA8CfAERRdjzHIeSMiFg6+RGGenUvVcg82kvXmwL+RVq1x4LHPy9BUXndBZvZRvHJCm7J4o04SqyWQe90OZasM8EkkAFutlE89VVp9dFiJCNWQZjDZ+1tKYXQvtSrbYC3BoA3Aaiw3HWcpQGpMBxSfN3/A1z1nGduiYVU4v3KgWG4cmP/uTYGC6bF4t3/xOP5Ww148Dod+ndQQCbQl9VO8einxbzCGv6ydL3JbfuKnWacvehEh+YyDPRQJOSmIRpQCvy8xX2fZSZ+cZBIQ6wrAJaCKTay9UoM8nZdy5sAtPO43f0bEKH4cwIAcEUxr+uvwk+b3C/RZRKC8Zlq3HV1jGBE3+0jtCg3s1i8ugJL1pnqKOeeyXPizrcL8eJtBr/HWxNPAhwsCyz824jnphnw9vQ4/LrVjO3H7DiV60BROQsJA8TrJBjRS4k7R8Rg2SYT72qiJmoFCWhEY7BolSyFTs3UEU0VA7tP2Y0jevLuzgNjACil6QB49xord1tElwAkkxCkp/o/oaZeqXVrAJrGSfDW9DivnqFTM5gxVocbBmgw69NinLxQ2/mWXeDE7W8WYEAnJfq2k8OglYBSCqudwuqg6NNO4fW2ZGAnBfaddu8TWrHDgiu7qzCsmxITMjWYkKnhve5CsQsfr/Ds5RzYSSm4yokkCOGiQjeKxGdRk392W/QCBiCZUppGCDnl7n5vVgBClsSx7bj4EoDSU6WQeyGXJUTLJOGvRVqKFB8/lACD1revXmqCBF/MSsBDHxbViUpjKbDpkJXXocYwwMu3G7wK4BnTR42P/3Cvx0cpsOCbUsSo4wQTki4Uu/DIR0W1iosKMbxH8MOZA0X3NuI0AFuP2NrBfXhPejIAACAASURBVGKQWwPgzZvKawBMNnrcaqeiqwHgjwPwclQ8JwgGLYO37433efJXoVYQvHF3nE9adSzLRSa6vFi5psRJ0MeLaL1yM4t73y3Eo58W45ctZmw/ZsPeU3b8udOC574pxcQXLnoV0KSUEwzuIiIDIFJpeLON1VjqUTHImxUArwPwcJZdlAlA/jgAa2J3UhTz7H0fuUFXb6HJWC2D+ZNjcf/7RV7fk1/qwt5TNvTmjwuvxZg+aq+0+CgF1u23Yt1+/7+IrZPDp7XgD51byiGVEJ+yGyOFI9n2i73aKjrwNHmUCnf7uaKUGgDwdYy1+wSrlEQ09VWiOZDlgOOyl6RtUxmu6ROYxVC/Dgr06+Dbr3avh719FaFMf02NF5fSslJO0C5VXGOuYv1+m9BXrTOllLeCdxWe1qsDha5Zf8jayvPQIgu1gqB1PQN6lvOo6F7XXxVQhZtxA3wzJrnF3gls6tWh+yKXepH0FGmI9Thw1T6LUDIeAdDP3b2eDADvHsLFIjuv2CUUhRSxdGhev8KQR7IdWLGzrgEY1jWw2dCZPnrP1QrvfqgLXhqKQLD/jB2lXjgKIwmxBgTlFbuasCwuCDS79QP4ZQDcVCeJaDr5GP9fk9N5Tjz6SXEd1VulnCA1IbAx7xolQRMv4+jlMoIxfb0zQH/vCp1uq91J8d5y4eSpSKSbSFcAAHCuwHlWoMmtARBcD1NKZQAy+NrcVCeJaPwJqCk2svh2XQW+WWuCnSezr2Yl3ECSqGeQLVQMGtwR4LCuSkwfHeNVzMHZi0585yEasPbzJWiTIkWKQQKFjMDhojBZKc5edOLUBWcdPwgfv2wxIy1FhilX8McT1CS/1AWbg4a1SlOVSEy4axb4w+bDVkerZN7EoH7uEoPc/bZ7AeDdjK7eaxHd8h8AOvuwAjhX4MRnfxnxzy6rVy97oBHaAEgYYOIgDW4boUWiTuLVlqagzIWZHxfDYnf/c7RuIsX1/dUY1k2J5m4motVOseuEDSt2WrBmr9VtvP+bP5XhQrETD4zV1dENKDezWLHDguVbzTh2nguC6t5ajremxyHWz+PU+tK9jRx5IVwpBYqVe6xJU67gNQAqAN0B7OBrdGcAeI8QKIXx8Dm76EqA6zUMmnp5TJdb7MK01wtRYfG8hy0sD87X4mJZ3WfrNQzevS8ObVJkeO7bUqzeY4FKQTCgoxJX9VBicBdlnUm2/ZgNC74pdftVa5kkxUPX6zC0q9IrQRClnCCzsxKZnZW4eL0LC/+uwE+bTIJBRkvWmfDPbguG91ChZbIUZivFgSw7thyx1TEe+87Y8czXpXjnPrfO66DRrbU8pFulQHHwrD2dUhgJQQxPcyb8MAC8e4eicvY4y/JrA0QynVvKvFa7WbnH4tXkB7ivYU6hK6B+AJOVIo/HYff8rQZ0aSXHE4tKsHK3pfraVXssWLXHAqWcoHe6Ai2TJGBZ7njwaLb73P6bhmjwyA06v6Mjk2IlmHeTHmP6qjBnYQkKyvgNTVE5i+/+9W4LsvGQFTtP2CCgeRdUxHoSwLKQFJvYE/Fahq8+YCaA//Ld526dxbsC2HXSXg+pi/DhiwPQ4mOtvHUHAvvF2HS47rajX3sFMjspcOy8Q/ALZbVTbDpkxbdrTVi63uR28kslBPMnx2LOjfp6hUZX0a21HF/NTghI4hIA/LgxOJoInmiXKhOtxNmek3Yhr+sgoXt4DQCltA0A3iqkK/dY9L4PLfx08CGX39eIvt+2WQJa7pqvYu+1/Th3zE+b6z8xGAK8dpcB4zMDG8mdqJfg04cTAiK3vuWI9wpMgUTCAF3CVDCmvqzcY9EJNDWhlPLGCgitAISODpzbj1rb+TyyCKCdDxmAfdopfArsOZHjwJ87ArMK2HbMhq084boZ6dxLueVw/RNWZlynC1rdAYWMy2lI9lNyvQqTlYUrkFbVB8QaD7DlkLUdACFnD++cFjIAvMt/s42eMNmo5zOdCEOjJF47AAEg2SDxOWz27Z/LPOrne6K0gsWLS0rr/LuE4b6uAHCxtH7BNVf3VuG24cEtzRWvY/DWPXE+iadcTo828nrdXx/EGg9gslGt1S6YGMQ7p31aARzNtrs5mY5c2jb13gFYxX1jdD6p25ZUsJj1SbHf0W9mG8WchcW8RoSlqPYJpNWjrLZOzeCxCaHZwXVoLsOUYf59K7q0kuPF28InNdG1lSzsxUv95eh5e75AE++crvM2UUp1ADrxXbx2v1WUOZO+LP+r6N1WjqVzE7H1qA0yCYFMyomJlJpY7Dlpx7oDdevinbzgwK1vFOCt6XFo29T7Z+YUufDop8WCaryUAvtO29GnnQJP3RyLhz8q9uv48eZhGsTFhO58/Y6RWizbJKwbeDlpKVJMHx2Dq3qofDbYgUSnZtC6idTrOg6RxNr9NmmPNrynJ10opXpCSFnNf+T7nAwEwLteXrffJjr9f4ATAfGHlklStEyqe+/koRpk5TvxxKKS6gCWKnKKXJj6WiEmDOIkwdxNuAoLi69Wm/DN2gqPQTrfrDWhTzuutt7PTyfhp00mfLvW5LZWX01kEoJJg0O7e9OpGYztp/aoR5gcK8HMG3S4qmdgk6rqQ7fWcnEagL2WVjPH8foCGXDSfn/X/EchFZE6uFh64UKRU3QS4IB/KwBPtEqW4rNHEvDA+0XYf1lZMIeLYul6E37YYEKPNAX6d1CgiUGC+BgGJRUsLpa5sOO4DTuP271Wzd14yIotR2wY0FEBtYJg6pVa3DxMi1V7LHhvebnHjMDMzoqwRNdd08e9AWjbVIYPZ8SHdGXiDT3ayPFzAE5cQk1OkaspyyKXYXhP8TLhrwHILnBlARClAeD7igcCtYLgzXviMOmli7wSWS4W2HXChl0nPItweIJS4IUlpVj2ZFK10IaE4Zx6gzor8fyS0urgID48Kf0Gi04tZDBoGd7fj1RC8Mbdhoib/IB4HYEAcL7QmdUiSSpkAGpR6zdPKZUC6MPX6abDVvGth8CFz+rUwXvB4mIY3D2KL/oy8OSVuPDjxrpfU42S4IVbY90G4XQN09k2IcLPHtpV4TbnIJw0T5AG9b0JJpuOWIUiwPpVzvFqLv8JuwPgPSNatccqugKgALf3DfZx8qjeoXNaCRUMkUoI7rqa3xARErxVkDe0EHh2z7TIFZVascMiSplwAFi9x5oo0KQBN8erudwACFUAMh06a28bgLGFnMJyFz7/O7jRy7FaBjEq378WMglBaryk+ozfGzI7CQfw9O+g4M0OVMoIFGEs2CkklKrXROYX9ki2Ay8urRuPIRb2n7GnUwohx0utOX65aeY1AMUm9piLBV+SgSj4eIURXVrJ0d9Hrb1gIJcSXDdAjWv6qNClpRySyjlQUObCknUmLFlnEnQMThqiwbBuwgZAISNI0Elw8bKTgXBX6xUyPv5UTg42xUYWj31aHJFj8xYXC2mpiT1g0DJ89QEzAbxb9T+Xm2DeaCE3SQaigKXA/C9Lgib0YHNQGL3IHmxikODrOYmYN0mP7q0vTX6Ai/R76Hodvp6TyLtcH9Vb5VUQD99Uu7zqUKgx2/h/N5FWkdfpopj7RfDek1Cy95S9TKCpVmJQ9StIKW0JoBnfHW6SDERDaQWLOQtLglKsMq/E5TFxRS4l+O+9cR7LfqelSPH1nERMGqKBSs5tEZ6YrMcLtxlqGQw+7E7K6223OWhY97MFPNoGACc9frnEWjh5++fygJzYRAIr91iEPNNNK+c6gNorAKEEINfWIzZR7v8v59BZO95cFvjFjDfLxVuHa70uSaZWEDx+ox4b30zB8meTMSFT45WTcdcJ4biCM/nh+9qeyeN/dnaBE9+uqwjxaPj5fZvZY8CSmNjoPjGoeqXP8P1jTax2erLCwop+BVDFjxtN+GN7YPP301JkbotgalUMbvFCF68+OF3Ubb2+PSe9qx0QaOxOioNnhZ/9zq/l+GZtRdBPatxx+JwDL34ntGIWJyYrjbHZqVBZsOqPvccVwPEcp1BygWh56btSwbh7f5AwwPv3xwumkd4zShvUM2W7g+KZr0pxIEt4ov17MDx177Yfs7n1QVSVN5v6WgH+2mUJeWWeYiOLxz4r5hV8FTvHc5x5Ak3Vc10KAJTSGABd+a5cu88SmZEa9cBqp5izsARfzU6A1o/jOz7SU2X4fFYCDp11YP0BK47nOFBuZnFFNyVu4RdrrDcsBdbss+CD34weHWr7z9hx9qIz5PEAy7d6F0577LwD8xeV4F2DBFOGaTBpiCYgSkXucLoo5n5ejPwG4PTjY91+q6Qrf83DrlWJQQQAKKUjAPzDd+X1Cy7mnC90pgZxnGFjcBcl3poeFzEJKN5CKbB2vxUf/VHuU8LKuIFqPHVzbBBHVpuj2Q5Me73Ar+V9l1ZyfPpQfFCPMF/7ocxrnUIx0jxBev6XZ5J4HfsARhJCVlZ9/niX/yxL8xvq5AeADQet+PRPcUkcOl0Uj35ajNmfFfucrfbbVnNAtz6eeOfXcr/39gez7FizL3jblt+2mRv05AeA7EJnM5ZFrkBzJnDJB8DrADxf6DodjIFFEp/9ZcT6A+KpC//7Novf43WxwIJvSkMS5PLHdgu2H6vfkVqRMThL80NnHXipgTn9hLhQ5MwSaOIMAKVUAqAv3xVbhJMKGgwsBZ7+qjTiglKEyKrnOI9kO7Dgm9KgCm4eOmvHCwEIpW0VBH9FsZHF7Abq9ONjs/Ac7k8plTIAugDgDTFbs8+aELSRRRAVFi780+yjHHg4aOajYjEff++y4KM/grP1OV/oxKOfltR7gqkVBBntAhu67XRxsmveiqg0BFbvFZzDWgBdGQhrhjv3n3W0Cc6wIo/TeU48tbgkLFLUvjC0m7JeFY6r+OxvI55YVBLQ7cCeU3bc/mahYHEQXxifqQl4AtMby8qx51R44iHCReUcFlQKlkJg+e9w4bzdTlsFa2CRyLr9VnyxsgJ3jgyuam59SNRLMLKXCn/trH8w09+7LMgpcuG5abH1Oh60Oym+XWvCB7+Xw+UmtLd3WzlG9lIhQc8V4DyR48C6A9Y6QqrJBgnuujqwf4PlW834YUPDdvrxYbdTpcNFs2US0pynuY8UQDe+G602Ki73eID48PdydGgmC5uCjjfMGKvD5sO2OvH9GiWpVghKjZfAZKXYfsyGpf+aBNWKD2bZMfnlAkwaosG0qzQ+VTtmKWdEPvitHBfcSJIp5QTP3hKLEb3qljF/ggV2HrdhzX4rTl5wIDVegvvG6AIaOHXorB0vf984nH582B0wyfj/rJ0JpbQQQPzlLWUmuvfKubk9gj24SESnZvDV7AQ0S4jcGKjD5xx45fsyXChyon0zGUb3UeGqHireslblZhbzvijhLThSE6mEYGBHBa7orkTvtgo0jZfUyUEw2ygOnbVj61Eb/tpp8Zg5J5MQvD8jHr3bhkeRqNjIYuprBY1q3385619POaBVEr5AvwJCKXWCRwXYZKOHhjyW2zn4w4tM0lNl+GJWgmjrxF2O00Ux85NibD7s/dGcUk6QpJdAoyRwuIAyE+vz/n72RD0mDw1PLRmni+Le94qwt5Ht+y9n85spJxRyks7TZGMg4CBQyYmQrFCj4ESOA88F+bgslEglBC/d7psAp9VOca7AiSPZDpy84PB58icbJJg4KLD1B33hjWXljX7yA4BcToROAlgGAO/miCFINGiZouANK/L5Z7cFX6+JjHTVQBCjYnBTCL/GAzoowlbe65ctjdPpdznJemk+AYTKLJUyALIEGskVPVQngjMs8fDe8vJ6R7RFEhltQ+fcDJfm38EsO15txE6/mozIUAqlBAPAaQbAXqHWSYPV4giPCyIuFpi3qMRj4Q2xoAyhTyMcjreichazg6T8JEZuGOB2C3aAAfCvUGvbFFmPGBXT6E1paQWXMy5mocgqzheGzqbvOG5zGxcQaBwuitkLi+uIojZWDDGkuFWy1J2Y72oGwG8AeNe4hED72AT9nqCMTmQcFblUdBVbPBwFViGTEEweqsEXsxLw7+sp2PVeU6x9tQn+d388hnYVViauSVE5i02HQ5do9caP5dh3Our0q2LujbH7AQj9scwA/mEqq4UuE+pkTF9VrwQ9czEYAxQbf2y3iFo3zumiWOtFiq1OzWDhzHjMnqhHt9ZyaJSk+t8HdFTgrelxmD3RuzLj3gqC1JdfNpt5qyY1VpINkrzhPVW8Vb4qWUoIKa/y0rwOgHd9Swh0X85KOCXU3th4++dy7AqTvl592XXSjjKT5zX501Ni0bml+8CdyUM1mJDp+Yhv48G6EYuB5kCWHa/+0Oh3qtUQAvrlo4k54CoB8eEC8BZQqQdACNkL4EuhDpvESQc8NkEn6CtoTIhZRmqDF7qAPdPkuKK7d0v8B8bqoFa4dyo6XLROCfVAUlTOYvZnUadfTZ6crP83Uc/0dnPJQkLIIaC2KOgcQFA9BDcP0w4c2kUV9QdAvEKSJUbPX+IpPugX6jUMJg3xHFcgVBqsvlQ5/QKRfdhQGNFLvXvcQI1Qhi8AZAN4vOp/qv8yhJACANMgnDooe2N6bPNmCZLsgIxU5IhRSnqAhwSnFolSDPPSwVfFtCu1blcB4waq0bapd/UQfCXq9KtNy0Tp+ZfviG0NntD+SpwAphJCqr3ZtUwzIWQ1gLlCD2AISfhuXpJZKSeh8exEOGIrJnFtXzWmj44R1BO482qtz1oDsVoG919bt2xEXAyDeZP0eHJycERIo06/2mgUxLRkbqLFTdQfAMwihNTayvOabkrpFwBuF+rldL5z040vXBSqJNSokEoIPpwRj15hynbzh7MXnVi63oS1+6woKHNBWnnk98g4nd9lzv/ZzWkVqhUEfdopMLSrMmgViQ9k2TH9naLovr8SQkB/ejJpa4sk6QA3l31FCLm1zr18V1JKlQA2AMgQ6m3ZJsu6l5aWDPN1sA2RuBgGX89ORLKh/nJdoabMxEIlJ2GvIOwtheUuTH0tMKpDDYUXbjWsG91HNczNJXsAZBJC6qjI8C74CCFWABMAFAj1OCFTNXh0hnKnj2NtkBQbWcz8pDjsVXj9Qa9hRDP5nS6KeV+URCd/DUb2Vu0a3Uc12M0l+QCu45v8gIABAABCyDkA4wEIeVkkz98Wl9YqSXrO69E2YI6dbxiRgpHMaz+UYbdIYzCCQVqKLOul2wxtIez0cwC4iRByXqgPty4fQshGcMeD/O2A4dvHE61qBRP1xgBYscPS4ItNhIvft5mxbFPU91yFRkFMX81OdBLCr+hdyUOEkPXu+vHo8yWEvANgoVC7Qk7aLZ2XeICQaKQgALy5rKzB1JiPFA5k2fHiUnEduQYTQkC/eTzxgEKGtm4u+5IQ8pGnvrw99JkBYLtQY2q8pP8zUwxuLU1jwcUCsxeWIKcouk8NBMVGFnOi6b21eOWOuPXNE6X93VyyFcC93vTllQGodAqOA3BB6Jqx/VVDxvRV7/Cmv4ZOmYmrPtMQ0ofDidNF8fjn0fTemlw/QL19eE/lEDeX5AGYSAjxahnqddgHISQXwI0QdgoyC6bGprduIs3yts+GTNQpWH+iTr/atE2Rnnnq5tgOEJ63DgCTCCE53vbpU9wXIWQzgEeE2xH77dwkVqNkyn3pt6Hyx/aoU9Bfok6/2mgUpGLx7ESWENQNu7zEA4SQDb7063OWBiHkQwCfCrXLJWjz/bzEI4QghFowkUvUKeg7UadfbRgC9vsnE48oZCTNzWUfEEIE56Vg336O6QFwkYK8NImT9HvxNkM0fRicU3DuFyWiTB8OB1GnX11evyfu3yaxUnfiHpsBzPSnb78MACHEAWASAMG9xtW9VUNuGKja7E//DY2qSMGoU9A9UadfXW7I1Gwb1lU51M0luQBuJIT45SzxO1GbEJIHYCIE9AQBMPMnG7q1byZzJ0vcaIg6BT0TdfrVJj1Vdnr+TfpOEMjZAWAFMI4QIng654l6KTUQQrYCmC7cDu2iWQlMVFmYI+oUFCbq9KuNXi0p/Wp2ooQQxLi5bAYhRDA+xxvqLdVCCFkM4AOhdrmMtP5xftJJhhEUGmlUvLmsTLSagsEi6vSrDUPAfvdEwgmZBC3dXPYOIUQwQtfrZ9W3g0oeASAYCZigZ3q/cofBp+OJhoqLhWg1BYNBUXnU6Xc5b0+P25Col7hz+rnN0fGFgBiASqfgTeD0xni5qodq6OShmi2BeJ7YiToFOaJOv7rcOFizdVAXt5F+5wCM99fpdzkBTQSnlPYEZ5149aIphWna6xdzj2Q73SUxNBrG9lNj1nh3cR0Nm/8tL4/u+2vQpZX8+JePJqRCWM7bCmAwISRgOhwBV4KglE4F8JVQu4tF9tVP5qlLjGx8oJ8dpfEQo2LQqQUnNlpY7sKpXHGXsdRrmJK/X0w2yiSkhZvL7iCELArkcwOu10wI+RrAO0LtEgbNv5ubdDbqFIxSH9o2leKDGfH4YEY87hjpzlEe+TAMXN/PSzzlYfK/EejJDwTBAFTyGIC1Qo3xOqbX29Pjok7BCGPiIA0evE6HB6/TIUYVntLejZH3/xO/MUEvEdTfBLAawLxgPDsof2VCiBNckNBpoWsGdVYOveUKbTRSMIIYnaHC7SO0uH2EFlqVOHQCxc7tw2M29e2gcBfpdxbA5Mo5FXCCZuYJIcXgNAWFIl/IrPG6nj3ayI8EawxRokQy3VrJjz14fUxPN5dYwHn8C4M1hqCu8wgh+wDcBuHCoqpPHo7XGbRMUTDHESVKpGGIYYo/m5mghsCJGbg5cwchZHcwxxH0jR4hZBmAN4TaJQxJ/W5e0jkJA1G7cTVKAkk9fptyGQl4IQ2VvH5jqi9yKfFYPBQAJAyqS5A3BiQMnD88kXROwqC5m8teIYR8F+yxSIP9gErmAugCYDRfY7yO6fne/fHr7v9f0bAQjafepKVIMT5Tg37tFWiWKIFMQkApUFLB4txFJ/49aMXPm81uS2MP6aLE2P5qZKTLoVNzM9Vkpdh72o4VO8z4Z5cFrJtYoeE9VejXnqv3t2yTCUezHWjdRIrbh2uR2VlZXZTz7EUn/tllweLVFTDb6nZ461VaNE+UonnipddhxlhdnWvLzSzeW35J62VoVyUGdeZqCf62zYz9Z+xonijF1Cs0GNJViUS9BIQAr/9YVqeEWlqKFJOHajGgowJNDNx1difFiRwn1u634Lv1Jt6xNgQ+ejB+s0HLuAv2WQngqVCMJSQGgBDCUkpvAScsyhsE1K+9Ytj0a2I2frLC6K6yadiRSwnm3KjH9QPUYC77aBHCVQmKi5GjR5ocqQkSvMQT465RErx8RxwyeYp1apQEmZ0UyOykwKQhGsz6pBilFfxGpFtrGcZncivIrUet6NJKjkfH6yCX1h5YyyQp7hkdgyFdlZj+bhEqLLX7G9JViZ5ptUubjcpQ1XlefomrlgHo1OLS8/efsaNFkhTzJumhlNd+fs3/JwS4b0wM7hxRt0ahXErQuaUMnVvKMHmoBo9+WoKDWQ0rb+KOkdpNvdoq3E3+MwBuJoSE5Jg8VCsAEEJKKKXXgVMs5Q1/u3d0TMbuE7bDO0/YO4VqXL4glRC8/0DtOoD7ztix5YgNhWUuKOUE7VJlGNhJgQQdf62GqlqCnVtyfThcFCt3W3Ewyw6WAl1ayTCylwpyKUH31nJ8/GA8bnuz0GPVoYGdlLi+vxpWB8XyrWYczXbA4aLo1lqOMX3UYBigfTMZHro+po5R+veAFWfynBjaVYl4HTcr/9pp4V0BCNE7nXuOw0Xxx3YLDp/jJm56UxkqrJf6eeh6HW696lIJ8p0nbNhw0AazjUXLJCmu6aNGXAyDBJ0EH86Ix51vF+JEjsPtzy4WurWWH50xVtfLzSUV4Kr4hMwnFjIDAACEkCOU0tsBLAN/FKLywxkJ+lFP5RUWlbMJoRybN9x3TUz15DdZKeYtKsGmQ9Y61xECdGslRxJPrcBpV2mqJ3+xkcUD7xfheI0X/IcNwOJVFXj/gXgk6iVo21SGh6/X4dUf3GfLjRugxpFsB2Z+XFyrdNZPm8xYf8CK1++KAyHAdf3V+PB3I0pqrCoWr64AALRpkoB4HTe2//1Wjtxi7z9CY/upcSrXiUc+KsIFgfu6tpJj6pXc5GdZYMG3pfh9W+1Q4IV/V+DVOw3o214BtYLghVtjcctrhXC6xL0dSNAxBQsfSdADqLu04qAA7iSEHAzhsILvBLwcQsjPAF4WamcYpC6bn5QrkwYm2SFQxGoZTLmCC9F2scDMj4t4Jz8AUMqtDFburl2OTSYhmDLs0tfviUUltSZ/FadynXh8YQlo5Ts/PlON5Fj3hUdNVlpn8lexdp8Vv241V4+hym8QSFgWePzzYsHJDwDTrtJWb5u+XFVRZ/ID3Crjsc+KUVjO9dO2qQwjeioDPt5QIpUwju+eSLrAMEhxc9kLhJAfQjaoSsLlI34KwO9CjTFqpusHD8RFVObgqN6qai/9b9vMfuX09+2gQFwM9yvfdcKGHceFxUKrthYAt20Y20/otIhj1V6L26KZNSdbeqrMl2F7xe5TNpzJEz7IUckJhnblDI/VTvHFSqPgtSYrxVerLzkNxw10/7NHOp89Er8lVsN0d3PJ3wAWhGo8NQmLASCEsACmADgsdE2vtoqh942JiZhw4Z419v1/7uAttOqRri0vTbw1+/hXDzVZs+/Sc3qly91cCRw+636ffCb/0uTUawL/Z99/xv3zO7aQQSrhDOj24zaYrO6X9Gv3X/rZu7WS13FsioW7RsVs7NpK5s7pdxxcpF9YcmPCdkpMCDGCixQU3NzeMyqmT0Y7xaHQjUqY1smXJu/R8/45pWoes3nj2Dqec2nStk52764pc+OgAwBzjQkXjMnkKae/ecKl8fNtey7nQpGr2gkplxE0jXe/BYpE+rZXHLx/TIw7YQ8juEi/sIlFhjXjgxByDMCtgGANAeWHU9z9QAAAE1FJREFUM+ITkg2SvBAOi5eYyth4F4s6x2i+9gEApSbPfZRWXJpUsR6+2qy7gIEQ4OmUIkZ9afxCx5o1oRQoMV66LhirlmCSGCu5+P798QkAhBwuVZF+Yf3Ahf23SghZDuB5oXaGIPm7uYmFCql3tc5CAQnValScq97AUfPnF9EhgFTCOL6bm5jHMGji5rJnKqNkw0rYDUAlCwD8KNQYo2a6fDYzIayZg1Vn4BIGfqfKGi2X3mKD1vOSNq7GNSVerBgimZoxBHExnn92QlAdyQh4t2KKFL6YFb9Vr2G6ubnkVwAvhmo87ogIA0AIoQDuBCC4HOrUQnbFg2N1Yas2VFNxpmML/7zoWRcv9dHJiz5qPufkBVGnSuBsvm8/e8skaXUegcVORVNufeZ4/fpOLWSD3VxyFMBtlY7wsBMRBgCo5RQUdIjcPlI7YEgX5b7QjeoSO2vU97umj1Ash3v2nrp0dDgqQ+VxKzG6Rjju9mPB3wE5agTbBDox6ch5R7UIaka6XDBSsorRNX7Hu0/aRREINKCD8sDUKzQD3FxSDs7pFzEa6BFjAACAEHIcnLqwkLmXvTk9rmmKQZobwmEB4EJjq5ax12So68TOe8Ouk7bqQJn2zWRuz/ZH9lKhW2vuGRY7xW88QTOBpuZJQs3ldyCwOyj+3sUd7UklBDNvEBZDbRonqRUw9b0Iiqkk66X57/7HkARA6MVgAUwhhESU/kVEGQAAIIT8A+AZoXaGIPG7+YmFcinx7zDeT8w2ig9+54JXGAZ45754jM5Q1UkIArhjtuv7q6vDXqtgWeDjFZcCYOZN0mNEr7qriSu7K/HMLbHV///ZX0aUhWAPfKrGNmPyUA2axkkgD+BKYNHKiupVwKgMFWbeoINMUrv/tBQp/vdAfPXyf9sxGzYd9hwzEU7kcmL94anEQoYhyW4ue5IQ8kfIBuUlIc0F8IGXAHQDV4C0DhoF6fr17MSNk16+GNLMwR82mNChuQzjBqihURK8cJsBD4/TYe8pO0oqWKgVBAYtgw7N5YjXMVi2qe6X6/dtZvTvoMDoDBXkMoJX7jDg7qu1OHjWAVCgU0sZ2tWI1Ft/wIrFqypC8vOt2mPBPaO4LL3hPVUY3rO2ccovceGap/P97v/sRSde+6EM82+OBUOAqVdqMSpDhR3H7aiwsGiVLEWvtopqDYOcIheeXlxaHRIdqXz+SMJOjYK4exd/BvBKqMbjCxFpAAghlFJ6F4COALryXZPWVDro0fG69W/+VO5OTy3gvLCkFLlFLtwxUgulnCBRL+H9igNAhYX/zX16MVcufOqVGkglBG2bytC2aW3HGEuBXzab8doPZW41AQLJ6TwnXvyuFA9fr6vWJwg0v2wxw2SjmHujHrFaLutvNE/q8b7Tdsz7oqQ6JyBSefxG3fqOzWXu3sEjAG6vdHRHHBF90kwpbQVgBwChzEDHrE9LDq3fb+kRulFxJOgkGNlbid5tFUiJk0CrZFBqYlFsdOF4jgMbD9mw/4z7fIEWiVKMylChV1vOKUYIUGRkceCMHX/vsniMmOvTToHOleHFa/dZcfai8EkBw6A6DfdUrhMbDgovq6USgk4tZGiRJIVSTqCtVOsxWSl+2HBpVdMzTY7ubbgt78ZDNpy84H2EZIyKweg+nKBJarwESjlBSQWLU7lOrNtvxabDVrdf/uRYSbWj8HQuJ8ASajI7Kfe/+5+4DhDe95cA6EMIidgK2RFtAACAUjocwF8AeN3GFCge/3y+6dxFlzt5pShRAkpqvOTCL88kKxgCoQI3LIBrCSF/hnJcvhLxBgAAKKVzALwq1G6102NXzctrbrVTcaeNCZBskGDSYC4V+eQFB/7cGVL/Z5TLUMiJdeWLTc5olKSjm8tmE0IEtTAjhYg7BeCDEPIagCVC7Uo5af/VnMQ9IRxSSEnUS6r1+od1E3dufENg0ayEnR4m/7dimPyASAxAJXcB2CXU2CZZmjlvkl6wRHmUKIHgqSmGde1SZe48/vsA3BOq8dQX0RgAQogFwAQABULXTBysGTQqQxmwyqlRotTkqu6q3eMGqNxN/mJwkX6iKXksGgMAAISQs+DChYXczZIXbotLa5EkPRfCYUVpBDRPkJ5/5a7YVhA+OncCmEgIESyHF4mIygAAACFkI4A5gu2AYenjSRa1gon8+NEookAhI6al8xKNDCFxbi57jBAiWBA3UonIQCBPEEL+SyntCi6DsA4KOdovnZe49foF+f0ojayTjgSdBG1SuEy33GIXTuQ4ghLokxInQesmUqgVDExWFjmFLpwrqF9GIUOA1k2kaJYgBUuB7AInsvL96zPZIEGzBCkMGgZmO4usPKdbQdFwQQjokrmJ+5Vy4i7J52tCyDshG1QAEaUBqOQBcFGCvJJLqfGS/k9N0a977puyYSEdFQCtisFvzyYB4IJU7vpvIVLjJXh4nB5XdFfWyh/IL3Xhs7+M+HmzuV4hrwk6CUb0UqJHGy44J1FfN2wiv8SFb9eZsHS9yW123YRMNWZcxyXrfPiHEd//a8LwHir859oYtLpMmux0Hhfe607gtAqphOCGgWpMHqqp0w/AyaR98qfRK73EULHgFsP6lknSYW4u2QPg3hANJ+CIbgtQBSHECmAcAMHMwOv7a4aM6afZEbpRcRAAOjUDnZqBRknQu60c3z6eiKt6KOskDyXHSjB/ciwWTDXUqZTjC73T5Xhsgh7De6p4Jz/AfXVn3qDDu/+Jg0ouvDCSy0j1+OVSgkfH6/HqXQbeSdumiRTv3R+H3m3dZ0catAwWPhKPuZP0vP0AnFrx63fHYc6Net4kq1Azopdq15h+Kne5/fkArheT0+9yxLwCACHkAqV0IoC14A/HZBbcok8/fNZ29kyes2WIhweAMwQv3WGASsFgyToT/txpQbHRhSS9BNf2U2PcQK7E2Ji+KlwocuKjFcJy2Z5wuCj2nLRj10k79p22I7/EBZuTIkkvwcBOCkweqoFOzaBfewWenRaLxxeWeOxzZC8lOreU43SeE9+sqcC+M3ZYbBTpqTI8eJ0OaSlSyCQET06JxYTnL/JuZ+RSgv/dH48Ozbmw5TN5Tny/wYS9p+woM7OIUTEY2lWJ20dooVYQ3DREg9xiF75aHZokKD5aJEqzXr7D0BoCEajgHNE3EUKyQzisgCNqAwAAhJDNlNJZAP7H347Yb+cmFQ+fm2s0WWlMiIeHZIPkUiGRw5eWybnFLuw7Y8e2oza8fKcBDAFuH6nF79stOF/o+75632k7rnkqH8XGumnD+SUuHMiy4+fNZrz/QDzaNJFieA8VurcxYd9p9/kKnVvKsfGQFbM/K4HdeWl255W4cDDLjm/mJCLZIEGLRCn6tldg69G6W4G7RmmrJ/+fOy1Y8HVpLfGR/BIXTl5wYOtRGz55KB5KOcH9Y2Lwx3Yz788TbDQKYlo6N9FJAHdOv0cIIaKPOxHtFqAmhJD3AXwq1C6XoM13cxMPExIeacnftpprTf6arNprwa9bLlXtmTDIv2jmvBKXx8lysdSFF5deElziy8K7HLON4qnFpbUmfxUlFSzerVEsNCO9rgBu1RcdAC4Uu/DcN7Unf00OnbVXr4DkMoLrB4Q+spsQ0G8fT9yvkBPeIraVLCaEfBCyQQWRBmEAKnkAgGAhkZR4ab8Xbo1bF7rhXGK5BzWfb9ZeWuoO6RLcUN99p+3Vk7lKccgdmw9b3RYF3XjIVr3sb8mzt+/fQVEtorpso4nXkNTkp02XrunTLvAlzDzx8m2G9c0Spe48/lsBTA/VeIKN6LcAVRBCHJTSSQB2Akjlu2ZUhnLo9mOqzb9utQwM1bicLopDnqr25DmRV+JCE4MELZKk0CiJx8o57ujcUoaeaQq0TJJCpxb2plVVAnbHaTflvgCuRkKFhYVOzdSqe1BFVbowAOw55bmcmslKcey8A11bydGmSWhfz+v6q7eP6K1yV8UnD8CNhESORH19aTAGAAAIIXmVTsF14C/IwDw1xdDt6HnnqWPnHWmhGFNBGeuVoGVWvhNNDBIwhEv+MVl99wP0bivH7Il6r2v/aZWeDcDlJcL5qPpiS3hc901qVEiePznW4woAAJolcPfogyRKwkfb/7d3/rFR1nccf32eu+tdez967fUXFvwBliL+AB2rxAgtThecrNGgUrYYM7cKJgwVZYRBtmwuizE2ZhrjSkbGdErcBom/RrJIII0DRBOJKN3slIJELL/6i7ZH27vv/niux1295+m13i/u7vXv8+R5Ppc+308/38/383l/plmP/upH3jkYR8UjwP0iciJlRqWArHIAACJyQCm1CtgW+zqubevKTn9/U1dv/1CwONn2DE0wMWeM/ogweypzB26fX8jvf1ISltPyDyvavxzhVE+AnoEgQxELuaneiaNA4hpw8m3luCJ/y6xpk/vcbCmaB+i0y/mX15cHRTBWKoU1IpIxsyoTRdY5AAAR+YtSaiGwOtb1Aptc9frG8gPLft313aAyPOZJCNY4nx4pvhnPf8lIvC6NTSuLsWj6luPFt/p5vW0gLMA5nvtC2gKp4ELEb/nltm6Om6gWpQNNCP59c8URu03qTG77o4hsSZlRKSQrHUCIteiagjH12ipLLAuffqh0zy+2nluSTCN8cUzBgehQOZ7ZeZHcPr8wrOH36p4BXjY5P3c6BKcjdVU2fRFqxgN+PSrJJJ75aUlbpdfSYHLLfuCxFJmTcrLpFCAKERlBnzFguGf73nxHQ1O9a38y7XA6hOll5n7WU6SFw+Oe80FO9U6uJr52+sU9f6xz+EhiHdUlk8gJxwsmGHGeau6+pfD9JfMKzQQ9T6J3+GVN0m88WesAAESkC2gEjDS05MnlnhuumWH9XzLtuOMm86O9xoVFWEP6+B98dmHS++4xDX0A2wQBR1N96sJ/IKpH4K66ItMS5FRSU237YnNTyVyMZfH8wN0i8lUKzUo5We0AAETEtFlDBOefnyi3uou0c8my4YHbXEwrjb0yr6iw0rz04gCRnfsmX1YeKZ1967XGzubeRU7qalMdAYyEqw1L3Rob7i+OK/lYYJO4jimnQnGRpeeV9eUWEcwqQ9eIyMGkGJBBZL0DABCRV4Dnja7bLHLljk0VnZpmOJJsyvQNBnE6hC2PlnHLXHu4yUXT9AlArWt9uEKZ8r0f+6c0AzAy7L93kZNVP3BHRQVel8bPGz1suK+Y80NBw+RgsmjZ2Rc+Cv3hzUW0ri1j4Rx7zKlDPo9GU72TnZsruHFW4p2VJgS3b/R12CyY9Ya8ICJbE/7yDCSbk4DjeQK9fThm0s/n0W5qafbtebz1bEKTgl3dAd79yM8jy9y88IiP/qEg3eeD+NyWqGTc5ydH+d12w7mophz4zwU+7LjAghrdwTx8p5vmpW5O9QYIBKHKa0HT9CO9377Ww8YV3oQP/zTj02PDPLW9l00riimw6d2R37nax2hAcbo3yPCowuXQ8DjlG6PCEs1zq0rbKr2m7b3/Bp5MqhEZRE5EAAAiMoqeFDxmdM/i6+wNK+td+xL97q3/6qf1n/0ElX4ufnm5NWrx7z7kZ9XzZ+ieZPZ/DKVg/Z+6o4Z9iOitxpeV6ou/bzDIui3n2H0oPb32b78/yIMtZ9j7sT9cOmy1CNNKLVxRYcXn0cKL/3RvgL+1DXC4c+LKwcmwcolr/63XOsySfsfRNf0S++IMJjMyMilEKTUf3csbdZoMPfrSmY73jgzfMNV3uAs19j5TBegiF01P6zqmlSUW6q93UO2zYLUIX3cH2HfEz+cnzc/GCwsk3EPfN6Sr+xgxu9pGXa0+rUhEb9j57ITeaTcW+s+utmHR9PFj/z3xzWO5UrdGpVfPWXT1TNxkVFNtw6rpVYNm04nGKPNYuPFqvdTXU6Shhezs+GqEI8dH6OpOvDJQXa39k5fW+GZi/Hf3A4tFJOX6Eekk5xwAgFLqx8Bfja/T81jruWPvfeqfN5XnGzmAPOmh4frCj55tLpk1QaXfAyJi+E1kKzmzBYhERF4FWoyv4/3D6tLa1Xe5s670M5cQQa1t9LS1PFwyd4LF/1wuLn7IUQcQYgPwrsl1R/NS96J3flNx8MpKq2HeIE9mMqvKenTXU5UfPniHazGxG8PG2I2JynS2k0unAFGISEAp1QQcBGYa3VdVaq3bsbliuP3L0bZn/9FTfuiLYbORUHnSTN1s+yfrlnt6ai6z3QxcNcHtnUBTKEGck+SsAwAQkbNKqXuAfYBZiVzBNTOsi7c+XsZIQB1vPzbc+UHHsBzuHHF39wcL+4YCUYkld6GmEdIkcNhl5PIKy9fJ+xW5iUWTgNepDVWUaANzphcMLqixy5zptpmaxnVxPmIQuEdEziTTzkwnJ5OA41FKNQI7yHGHmEOMTfF5I92GpJtczgGEEZE3gZ+hfxh5sptR4KH84tfJRwARKKWWAa+BaY14nkuXXmCliOxKtyGZQj4CiEBE3gbmYSIumueSZQ8wL7/4o8k7gHGIyFF0EZEVQHuazcnz7TkMLBeR20LTpfNEkN8CmKCUEqABaALuBGak1aA88XIU2AVsD02TzmNA3gFMAqVUFTAXKAO8aTYnz0VG0ff3XUC7iJxNsz2XDP8HuchUCL8/eqsAAAAASUVORK5CYII=;" parent="1" vertex="1">
          <mxGeometry x="336" y="698" width="256" height="249" as="geometry" />
        </mxCell>
        <mxCell id="X_6x3CovaAltFQVWhzz_-4" value="" style="shape=image;verticalLabelPosition=bottom;labelBackgroundColor=default;verticalAlign=top;aspect=fixed;imageAspect=0;image=https://www.clipartbest.com/cliparts/acq/L8y/acqL8yyRi.png;" parent="1" vertex="1">
          <mxGeometry x="-156" y="308" width="470" height="470" as="geometry" />
        </mxCell>
        <mxCell id="X_6x3CovaAltFQVWhzz_-5" value="" style="edgeStyle=none;orthogonalLoop=1;jettySize=auto;html=1;rounded=0;fontFamily=Architects Daughter;fontSource=https%3A%2F%2Ffonts.googleapis.com%2Fcss%3Ffamily%3DArchitects%2BDaughter;fontSize=16;startSize=14;endArrow=open;endSize=44.09440000000001;sourcePerimeterSpacing=8;targetPerimeterSpacing=8;curved=0;exitX=0.645;exitY=0.349;exitDx=0;exitDy=0;exitPerimeter=0;sketch=1;curveFitting=1;jiggle=2;" parent="1" source="X_6x3CovaAltFQVWhzz_-4" target="et1fOOYHSfHHCLRn4kue-8" edge="1">
          <mxGeometry width="140" relative="1" as="geometry">
            <mxPoint x="322" y="-20.574324324324152" as="sourcePoint" />
            <mxPoint x="375" y="-46" as="targetPoint" />
            <Array as="points" />
          </mxGeometry>
        </mxCell>
        <mxCell id="X_6x3CovaAltFQVWhzz_-6" value="" style="edgeStyle=none;orthogonalLoop=1;jettySize=auto;html=1;rounded=0;fontFamily=Architects Daughter;fontSource=https%3A%2F%2Ffonts.googleapis.com%2Fcss%3Ffamily%3DArchitects%2BDaughter;fontSize=16;startSize=14;endArrow=open;endSize=44.09440000000001;sourcePerimeterSpacing=8;targetPerimeterSpacing=8;curved=0;sketch=1;curveFitting=1;jiggle=2;" parent="1" target="X_6x3CovaAltFQVWhzz_-1" edge="1">
          <mxGeometry width="140" relative="1" as="geometry">
            <mxPoint x="142.96250877387956" y="538.0000000000002" as="sourcePoint" />
            <mxPoint x="328.00000000000045" y="531.3717051520271" as="targetPoint" />
            <Array as="points" />
          </mxGeometry>
        </mxCell>
        <mxCell id="X_6x3CovaAltFQVWhzz_-7" value="" style="edgeStyle=none;orthogonalLoop=1;jettySize=auto;html=1;rounded=0;fontFamily=Architects Daughter;fontSource=https%3A%2F%2Ffonts.googleapis.com%2Fcss%3Ffamily%3DArchitects%2BDaughter;fontSize=16;startSize=14;endArrow=open;endSize=44.09440000000001;sourcePerimeterSpacing=8;targetPerimeterSpacing=8;curved=0;sketch=1;curveFitting=1;jiggle=2;" parent="1" target="X_6x3CovaAltFQVWhzz_-2" edge="1">
          <mxGeometry width="140" relative="1" as="geometry">
            <mxPoint x="142.96250877387956" y="605.0000000000002" as="sourcePoint" />
            <mxPoint x="328" y="602" as="targetPoint" />
            <Array as="points" />
          </mxGeometry>
        </mxCell>
        <mxCell id="X_6x3CovaAltFQVWhzz_-10" value="" style="edgeStyle=none;orthogonalLoop=1;jettySize=auto;html=1;rounded=0;fontFamily=Architects Daughter;fontSource=https%3A%2F%2Ffonts.googleapis.com%2Fcss%3Ffamily%3DArchitects%2BDaughter;fontSize=16;startSize=14;endArrow=open;endSize=44.09440000000001;sourcePerimeterSpacing=8;targetPerimeterSpacing=8;curved=0;sketch=1;curveFitting=1;jiggle=2;" parent="1" source="et1fOOYHSfHHCLRn4kue-8" target="et1fOOYHSfHHCLRn4kue-9" edge="1">
          <mxGeometry width="140" relative="1" as="geometry">
            <mxPoint x="537" y="392" as="sourcePoint" />
            <mxPoint x="718" y="261" as="targetPoint" />
            <Array as="points" />
          </mxGeometry>
        </mxCell>
        <mxCell id="X_6x3CovaAltFQVWhzz_-11" value="" style="edgeStyle=none;orthogonalLoop=1;jettySize=auto;html=1;rounded=0;fontFamily=Architects Daughter;fontSource=https%3A%2F%2Ffonts.googleapis.com%2Fcss%3Ffamily%3DArchitects%2BDaughter;fontSize=16;startSize=14;endArrow=open;endSize=44.09440000000001;sourcePerimeterSpacing=8;targetPerimeterSpacing=8;curved=0;sketch=1;curveFitting=1;jiggle=2;" parent="1" source="X_6x3CovaAltFQVWhzz_-1" target="et1fOOYHSfHHCLRn4kue-10" edge="1">
          <mxGeometry width="140" relative="1" as="geometry">
            <mxPoint x="610" y="406" as="sourcePoint" />
            <mxPoint x="748" y="449" as="targetPoint" />
            <Array as="points" />
          </mxGeometry>
        </mxCell>
        <mxCell id="X_6x3CovaAltFQVWhzz_-12" value="" style="edgeStyle=none;orthogonalLoop=1;jettySize=auto;html=1;rounded=0;fontFamily=Architects Daughter;fontSource=https%3A%2F%2Ffonts.googleapis.com%2Fcss%3Ffamily%3DArchitects%2BDaughter;fontSize=16;startSize=14;endArrow=open;endSize=44.09440000000001;sourcePerimeterSpacing=8;targetPerimeterSpacing=8;curved=0;sketch=1;curveFitting=1;jiggle=2;" parent="1" source="X_6x3CovaAltFQVWhzz_-2" target="et1fOOYHSfHHCLRn4kue-10" edge="1">
          <mxGeometry width="140" relative="1" as="geometry">
            <mxPoint x="610" y="699" as="sourcePoint" />
            <mxPoint x="748" y="756" as="targetPoint" />
            <Array as="points" />
          </mxGeometry>
        </mxCell>
        <mxCell id="X_6x3CovaAltFQVWhzz_-13" value="" style="edgeStyle=none;orthogonalLoop=1;jettySize=auto;html=1;rounded=0;fontFamily=Architects Daughter;fontSource=https%3A%2F%2Ffonts.googleapis.com%2Fcss%3Ffamily%3DArchitects%2BDaughter;fontSize=16;startSize=14;endArrow=open;endSize=44.09440000000001;sourcePerimeterSpacing=8;targetPerimeterSpacing=8;curved=0;sketch=1;curveFitting=1;jiggle=2;entryX=0;entryY=1;entryDx=0;entryDy=0;" parent="1" source="X_6x3CovaAltFQVWhzz_-2" target="et1fOOYHSfHHCLRn4kue-9" edge="1">
          <mxGeometry width="140" relative="1" as="geometry">
            <mxPoint x="610" y="913" as="sourcePoint" />
            <mxPoint x="748" y="872" as="targetPoint" />
            <Array as="points" />
          </mxGeometry>
        </mxCell>
        <mxCell id="X_6x3CovaAltFQVWhzz_-14" value="" style="edgeStyle=none;orthogonalLoop=1;jettySize=auto;html=1;rounded=0;fontFamily=Architects Daughter;fontSource=https%3A%2F%2Ffonts.googleapis.com%2Fcss%3Ffamily%3DArchitects%2BDaughter;fontSize=16;startSize=14;endArrow=open;endSize=44.09440000000001;sourcePerimeterSpacing=8;targetPerimeterSpacing=8;curved=0;sketch=1;curveFitting=1;jiggle=2;" parent="1" source="X_6x3CovaAltFQVWhzz_-1" target="et1fOOYHSfHHCLRn4kue-9" edge="1">
          <mxGeometry width="140" relative="1" as="geometry">
            <mxPoint x="595" y="560" as="sourcePoint" />
            <mxPoint x="763" y="375" as="targetPoint" />
            <Array as="points" />
          </mxGeometry>
        </mxCell>
        <mxCell id="X_6x3CovaAltFQVWhzz_-15" value="" style="edgeStyle=none;orthogonalLoop=1;jettySize=auto;html=1;rounded=0;fontFamily=Architects Daughter;fontSource=https%3A%2F%2Ffonts.googleapis.com%2Fcss%3Ffamily%3DArchitects%2BDaughter;fontSize=16;startSize=14;endArrow=open;endSize=44.09440000000001;sourcePerimeterSpacing=8;targetPerimeterSpacing=8;curved=0;sketch=1;curveFitting=1;jiggle=2;entryX=0;entryY=0;entryDx=0;entryDy=0;" parent="1" source="et1fOOYHSfHHCLRn4kue-8" target="et1fOOYHSfHHCLRn4kue-10" edge="1">
          <mxGeometry width="140" relative="1" as="geometry">
            <mxPoint x="610" y="216" as="sourcePoint" />
            <mxPoint x="748" y="259" as="targetPoint" />
            <Array as="points" />
          </mxGeometry>
        </mxCell>
        <mxCell id="Bkq2MKA8wU17ckq1CraC-1" value="" style="shape=image;verticalLabelPosition=bottom;labelBackgroundColor=default;verticalAlign=top;aspect=fixed;imageAspect=0;image=data:image/png,iVBORw0KGgoAAAANSUhEUgAAAQAAAAD5CAYAAADImOsDAAAABmJLR0QA/wD/AP+gvaeTAAAgAElEQVR4nOydd3wUZRrHf+9s3+ymF0LoEHrvEEA4ULErYEMUD9spWI+mKOqdZ/dQ7+yCgnqIYMdGkRJaaKGFQOg9gfTN9t15749JSDaZmewmW2aS+X4+fvyw75Rns/M+87zP+xQChWYBpTQFwPUARgDoCyAVQAqAcgB2ACcBHASwDsAqQkhBZCRVUFAIGpTSsZTSnyilXuo/bkrpt5TSsZGWX0FBIUAopYRSegOldGsAk16IbErpPZRSVaS/l4KCggiUUqZy4u8KwsSvzYFKRaCO9PdUUFCoAaVUWzk5D4dg4tfmBKX0cUqpIdLfW0GhWUMpjaqcjGfCMPFrU0ApfYFSGhPpv4NCwyGRFkAhcCilcQBmAHgcQEJg58JSbqfHL5V6rE4XvACg1xFVcgwTYzIwbQmBKUBxCgG8C+C/hJCSAM9ViDCKApARlNvKewrAwwDM/p7nZenFzBxn7pdrK5L3Hnd1ZSn/765i4BmYrjt89zhT4ZAu2l4MIfEBiGcB8D6ABcoWonxQFIAMoJS2BTALwDQAfq+9nW56/NNVFReWrLYO9nhZTSD31KmJ876rzTvuudLUWqNC2wBOtQNYBOANQsipQO6pEH4UBSBhKKUdATwG4CEAOn/Pc7ho3sLVFZc+X2UZyrJo1PYdQ8BeP8S4a+bEGFOUnnQL4FQ3gK8BvEIIyW2MDAqhQ1EAEoRS2hvATACTAf8nsMXG7v/39+WOn7NsA6mAmd8YxvUz7H52cqzWrCc9AziNBfArgH8SQrYHWyaFxqEoAAlBKR0BYA6A6xDAb2Oxsfv/sbTM8+cee7+QCVeD4d30++dNjnG0iFUNCvDUzQBeIISsCYVcCoGjKAAJUGPiXx/AaWx+qXfX80tKonYecXUPkWii9G6nPfzs5NjCjqnqoQjAUgGnCF4DsJIQQkMjnYI/KAogQlBKGXBv+mcBDA7gVPexC57tzy4uTs075+kQGukCo2sr7ennp8Se75ymHgggkEjBfQDeAvAVIcQbGukUxFAUQJihlGoA3AlgLoBAnGrOYxc8O+csKm51It8TiFc+bLROVJ99dnLM8YHpukEIYLcCwDEArwP4jBDiDo10CnwoCiBMUEq1AO4A98ZP9/88WHcdde6av6S0S0GpNyVkAgaRhGimcNakmJxxfQ39CEF0AKeeArAAwMeEEHuIxFOogaIAQgyl1ATgPnD7+Gl+nwcUr8m2739lWVnvMisbFzIBQ0hMFGOZfWvMvqsHGLoTIJDvcBHABwDeJoSUhkg8BSgKIGRQShMAPFr5n98RdSxF4do99pyXlpb2r7BTv6P9pEyUjlin32DedevIqC4MQwKxYsrBKYI3CCFFIRKvWaMogCBDKU0G8AiAJwD4nSjjZXF2RWbF8Xd+tAxyuptmpp1GTVx3jzPteHC8uVWA0YVWAAvBKYKzIRKvWaIogCBBKW0H4EkADyCgcF0c/XSVpWDxKssQLxuQB122qFWEnTLGtPPBa02JOg0JZCfDBWAZgJcIIXkhEq9ZoSiARkIp7QFuD/9OBLAF5nDRwwtXVxQGI1xXrlwOM54UY4zSkR4BnFoVXfg8IWR3iMRrFigKoIFQSvuCy8xraLjuIKqEwFymgdGFFMAv4CyCrBCJ1qRRFECANDRct6iC3T1/Sal2W64jkDj6ZkcNRTAQgT2fmwG8Rgj5OUSiNUkUBeAnlNJxAF4EMDyA09j8Uu+u5z4vMe0+5gok6KfZ07OdNm/+5NhLDQgz3g3gVQArlDDj+lEUgAg1wnXnAxgYwKnuYxc82+ctLkk9cs4tiXBdudI2RXXmmdtjTwxM1w1BACnRAPYDeBPA/wghntBIJ38UBcBDjXDdpwF0DeBUZ85J9/a5n5d0PF/kaRka6ZonrRJU55+7K/bowHTdQADGAE49Dq5k2UeEEEdopJMvigKoAaVUB2AquHDd1v6fh4pdR5275y8u61JQ5pFFuK5ciTczRbNvjTkwrq+hLyH+x1kAyAfwNoD/EEJsIRJPdigKAACl1Ayu3NYccC2z/IKltHjtHsf+V74u71Nm88aGTECFOkTpSMX0G8y7bx1l6soQJAdwaiGA9wC8oxQxbeYKgFKaCK667mMIIFadpbi0Mst68LXl5YMcLhqIOaoQZIw6xjrjBtOuW0ea0hnGf+UNrojpZwBeJYRcCJF4kqdZKoDK6rpPgovT93sCe1mcWZFZceLtnyyDXS6qD5mACgFTFWb8wHhTmlZF2gVwqhPAYnCxBGdCIpyEaVYKgFLaHlyM/oMA/J7AThc9+unqimYVritXqqILZ0+KMRt0JBAHblUR038RQg6HSDzJ0SwUAKW0F7h03EDDdQ/95ydLybKNFUNDUWRTIXQQAnrDEOPOp26JNpqNTEPCjF8khOwMkXiSoUk/1JTSfuC28iYhwCKb//6+3PHTNlugRS8VJEgjipiuATCfELI1FHJJgSapABpYZJPml3p3vvhlmWH7YSVctynSu7320PN3xZa3S1EPghJmDKAJKQBKKQE34Z8BMDSAU9n8Uu+uZz8vMWUr4brNgm6t1UdfvDu+oGOqeggCK2K6B1zJsiZTxFT2CqBGuO4LAPoHcKrr2AXPjmc+K2559IKnfUiEU5A0bZJVZ+bdEXtiYLpuMAJwCgPIAVfEVPZhxrJVADWKbM4D0DmAU607jzh3vfBFWfqFEk8g+8YKTZTEaObSvNtj80b20vcjJKAw45PgogtlW8RUdgqAUhoF4H5wrbNa+X8eF6777JLSrpdKvYFEjik0E+LMpHjOrbH7x/Uz9CFAIJGdBQA+BNcZuSxE4oUE2SiAGuG6cwG08Pc8lqJo7R77gZe/Lu9bbvMGEjuu0Ewx6Yn1kesbVMS0CMB/AbxLCCkOkXhBRfIKgFKaBGA6gMcRgFb2svT8ikzr0Xd/sgxUwnUVGoJOTZzTrjZl//UqcxsVg0CyOyvAtUh/jRByPkTiBQXJKgBKaRsAfwdn7vs9gd1eeua7TdYT7/xoGeJ000DyxxUUeFGrGPc9V0Ztf2C8OVWrQiD1HZwAvgHwD0LI0RCJ1ygkpwAopR3Ave0fQgAFIJwueuTT1RUXm3ORzUBIjFZhXD89cs+4sfe4K9LiyIIaRUyjonQkkIasVWHGrxBCckMkXoOQjAKglPYG59gLqMhmhYPuf+vbMsfPWbaBSriuOAwBRvbUY0KGEcO66aFiuM8Pn3Vj2QYrfttph8ujVNHyh+Hd9PtfmBLrSYhmAmnJXhVm/A9CyI4QiRYQEZ8wlNIMcI69gIpsKuG6/qNREVw9wICpV5rQoYVw3EuxhcWKTVYsXW9FuY0No4TypZFFTJ8nhKwNkWh+ETEFQCkdDK5445gATmPzi71Zz39ZZt55RAnXrQ+TgcENQwy4Z6wJybH+r4psToqfttmwZE0FCkqbRMBbyOnXUXtk/l2x5W2S1P0AMAGc+ieAOZFKPAq7Aqjcx38LXEquv/f3nMh3b312SWnLQ2fcHUMnXdMgNV6FKX8x4aZhRhi0Df+JXR6KX3fYsWRNBU5dlHXAW9jonKY58+Ldcec6p6kHwv8wYwrgfQCzwh1QFFYFUJmP/wsAf2PunQdPuzc/t6Sk/ckCJVy3PtISVZg82oQJGUZo1cH7aVkKbM5x4JPfK5BzSnEY+kPrZPW5F++KO9mng2YA/A8zPgDgOkLI6RCK5kPYFACltDuAtfAjiIdSat2R59r+wlel3QpKvH4H/TRXOqaqMXWcGeMHGi479kLF3uMufL66AhsPKAV2/SE5VlX4zB0xeSO66/sQgig/TjkH4C/h6n0YFgVAKU0DsBX1V9q1rd/v2PHS0tJeJRbW75bazZUurTSYdpUJY/saQMK8mKtSBJk5DigtzuonJoopmX9X7L7RvfSDUH9cywkAGeGoVRjyx4ZSqgawDsAIsePyiz07pi0oalNQ6lXKatdD345a3DvOhJE9I1+W8Oh5N75Ya8VvO23wKhsH9dIiTlWw6KnE0yn1FydZB2AcISSkf9VwKICnAbwscoj3m43WTa8tL7si1LLInb4dtXjoGjMGd5FegOO5Ii+Wrq/At5ttcLkVk0AMQkCfuSMmc8LwqBEQ3zF4khDydkhlCeXFKaUtAOQBMAsc4nn1m7KdyzOtgRTwaFYQAozsocf9403o0VYbaXHqpSqW4Kt1VlTYFZNAjCl/MW198pbowRAOfCsFkE4IKQyVDKFWAK+DK8bJy8e/WTZ99KtFdGnQXGEIMKKHHn+7zowurTSRFidgyqwslm1Ugorq44mbozPvHmsaKXLIPwkh80N1/5ApAEqpHsBZAAl84/tPujPvfeuS2BdvlqhVBOMHGDDtahPaJsu/ArkSVFQ/S+cmbe6cpskQGM4H0IYQ4g7FvUOpAK4Ft+dfBy+Ls6NmXUhwuKghVPeXGzoNwS3DjbhnrAkpceHPZXK5KbSa0BmELg/Fz1k2LF5TgXOFiiKoSZSOVKx7vYVNxRChQjVjCSF/huLeoXzFjBcaePen8tMOF/W7mk9TRqsmuH6IAQ9eY0ZSTPgmPku5JKCsQ05k5jiw77gLqQkqjOqpx8ieegzopIVaFTyFoFUTTMyIwi3Do/DnHjs+/NWCE/lKdCEAWJ3UtOiPir0PXGMWUgDXgAsZDjqhtAD2Auhd+3MvS88NffJCi+aeshuJiV9uY7H9sBNZh53YuN+JwnLhN7FRRzAwXYeRPfUY2VMXdBmrogs//s2Cg6dDYt3KChUDz7YFLQsZhjdQbgchZHAo7hsSBUApjQZQDB7v5i877OvnLykZHYr7ygGNiuCGoeGb+MfzPdi434Hth53YddQFjzfwLTqGcEFHQ7rqMKqnHr3aa8EE8cnJOuzEByst2H+yeYcZv/lA3IYxvQ182+FuALGhaGseKgVwFYA/+MamvH7paO4Zd6dQ3FfK6DQEEzKMuPdKExKjQzvx7S6KJWsq8P0WGy6VBX+9HW9mcONQI6ZdZUaUPniPUNYhJxb+YcGuo81TEfTvqMv95IkEoTyZMYSQ9cG+Z6gUwAsAnq/9OcvS/EGPX2hWsf1Vb/wHxpsDSskNBucKvcjMcWDjfkeD3/5VhNoKqElzDTMmBHT7O6klDCF8YfDPEkL+Fex7hsoJyLu3f7bQexwBVPSVM1oNwYTh3Bs/nM49AFi7x4FVu+0Y2VOH8QMMuOOKKJTbWGzNdWLzQQe2HHSipKL+vfloI4Nh3XQY0UOPYd10iDMxKLex2JLrxDcbSzCsuw7XDw5+vdU+HbRY8FA8ck65sWiVBRv2Nw9FQCnIpTL2aEqsim+9PzwU9wy6AqCUqgDwOiy2HHI2eW9PJN/4VdicLNZk27Em2375zT2qF+fdv6p/HCjq7gCwlROsY6oaI3vqMbiL7vJOwLlCL/7YZa9jSfRqH9rIxB5tNXjrgXgcu+DBkjUVzSLfIOuQw37jUN6kweGUUibYuQGhsAD6QCD0d81ue5NtyKHVENwyjHvjR2ri88FSIPeMG7ln3PjoVwtS41UY0YNTBpNHR+HeK00otrDYd8KFHm01SIpRwe2l2H3Ehbd/KEfmASfOFkZ2u65jqhov3h2LaVebsGhVBX7faW/UckbKrMl2xgkogFhwdTRygnm/UCgAoYgm674TrvQQ3C+iaNVcAI/UJr4QF4q9WJ5pxfJMKwxagiFddbhhiBGje+uxNdeJN1aUYWuuEzan9CZY22Q1XpwSi4euNWPx6gr8tM3W5IqY7sxzdgFXTpwv4ysDQVYAoSgfwbtWKalg87xsSAOPwopGRXDryCj88HwyZt8aI4vJXxu7i2L9Pgd+2MrtLq3cbsPaPQ5JTv6atIxX4enbY/DD88m4fVRUSCMYw43TQ3UWG3tEYFjo5dpgwmYB7DnmlFXPNCEYAvylrwEzbjCjdVLT0Gek1v/lQkqsCrNvjcH94834al0Flq63wtkEUpEPnHIVDevGW+tB2gqgsvIPb9WfNXvspmDeKxIM6aLD4zdHyzI7T4yqakLhrioULOLNDB69MRp3jTE1CUWwdq9TL6AAOlJKU4NZKSjYSwCh7D52c45TtsE/Azpp8dlTiXh/RoIsJn9D57FcFUAVVYrgpxeSMWlEVFBzGcLJ+n22dHCVgvkYFsx7BVsB8JooThc9ZrHTQNotS4K2yWoseCgeHz+eiN4h3vKKJJctANktAvhJjOZ8BN88k4R+HeX3u5VYaLzbi1MCw0FdBgRbAfA6APPOe0Je3DDYTMwwYtkzSRglgbp7YaNpzP/LtE1WY9pVQsWopM2JfPdZgSFpKoDKhh91sv8AYP0+u6xc5AwDPHJ9NDQyNSEDXf3K3fQXY2BnLYw6+X3BTOGy6/0pDV67+2BaAEMh4FRcu9deXzlwSdGvgxaxphAX2A8hgT7uVceHKrY/kmjVBIM6S6+Ian2s3WNvKTCkATAwWPcJ5lPOa5qwFBfPXPS2CeJ9Qs7o3vIuVKRYAL4MSJefHyDvnKc9BUoEhoOWFxByBXC+2HssiPcICxk95PfGqIm+gYExgZ6lk0kAzsB0+f2elIJcLPUeFRgOmh8gKAqAUsoAGMI3tu2gQ1bJ3YnRKtkX47yyvwHvz0hA5zT/tixJpQngryXQJkmN16bF4eZhwc8EDAXpaRpZLul2HnFZBYYyKudcownWX6UXgBi+gdV7nIlBukdYGNhZfuYiH0O66PDVnCT84+64eguQED9DAaON3D77smeSMK5f+NuRNRSGQJbbgWt22+MEhuIAdAnGPYL1qhNak9j3HnfKKgFoQCf5mYtCMAS4brABY/vq8fUGKxb+YeGN869v/mtUBJNGGvHQtWaYDfJ7kwLcMmDdXnk1NM067OwMwAWAT3tlAMht7D2C9WvyrknKrPSw20NlpXrl6DCqD72W4N4rTfjuuWRMyDCC8fNXJwQY18+Ab59NxsyJMbKd/AAXzSk3nG5qqHDQkCYGhVQB7DnuLA3S9cNCU1j/i5EUo8K8O2KxdE4ShnWrtnSqTPma24ADOmmxZGYSXpsWh7REWYVx8NKppQYxUfJTYAdPuoTagklDAVBKWwJoxze2do/Dn37okmFgE3z789GppQb/fSThcm5DTdO/bTLn4Pv48UR0byP9vAd/IQToI8Nw7j/3OYTWpOmVvTcbRTBUopAmoptyHLJKAOonQzOxMQzposOXs5Mw9UouUfO2UVFYPi8Z4/rJOw5CiL4ydASu22vvKDLc6Ka6wVAAvA5Ap5seL7OyQl5MSdK3g/wekMbCEFzeLuzUUgOV/Kxkv5GjAigsZ5PcXnpaYLjRy4CQWQDHLnjOB+HaYSNKT9ChRdMxeRXq0r2NBnqtTPYua3CqwHNGYKjRCqBRHi9KqQFcEdA6rN/nkNVfund7rd/e8UhT1e0nM8eBUwUeDEjXYUgXHa7opUdCdGi/RLGFKy++8QDXbahDqhoje+gxpKsO3VpLW4FqVATd22iwW2aNRzIPONhOLXn/tv0ppXpCSIP3Nxvr8h4C/j1K/LnXLqvmn1LO97c5KXYd4SZd5gFnnW4/VSXAX/kG6JJW3byjd3tto4N1WBY4fM6NzANcg5FDZ90+Nfr3HHNhzzEX/vMTV6tvaDdOGQ3vrpdkFl7fDlrZKYC1exypf+VPa9YBGABgc0Ov3VgFIJQAVHgi39O2kdcOK1LzEDekqw/LVpcA/3x1BeLNDIZ345p7Du2qg8nPffzSChY7jziReYBTOuU2/0rRny/24rvNNny32QathqBfBy0GV1om7VtIY3u1b0cdgIpIixEQh866O1KghHARgLXJgNQUQH6J9ygA2YQAM4RrQhFpzhV5sWRNBTIPOFBQ2viefsUWFiu327Byuw0aFUHfjlrcMMSIawfVDeN1eSi+2WjFqt125J52X24U0lBcboqsyk7E//mpHO1S1BjTR497xpoQbYzcWqtPew0YgkZ/v3BCKUhhmfdoUoxqEM9wo/wADVYAlFICgQSgrEMOZ4MligAdW2r8fjuGkrQEFR653oxBnbXIOuzEhv0OFJU3vhFMVbefqp5+fMsCrZpg8mgTerXTYuMBB7IOOZF7pvGNnBpqhYQKk4FBp5Ya5J2TV5OqHXku27WDeLdnh1NKCSGkQSqtMRZAdwB8TQyxercjoRHXDTu92kX+7Q8An/5hAQCM7KHHuH4GPH0bsP+kC5tyHNh80Im8c26/euRFGxkM7apDRg8dhnfTI97MXO4NuDyzBI/eFI2UWn0Mdh914Y9dXD/BB68x49Ebo3GuyIvNOQ5sOujEzjynX5V2VQznTxnRQ4/h3XXonKYBywJ7jruwaFUFOqSqQ9JPMBD6dtTKTgGsybbHCiiARACdARxuyHUbowCETA/nnmPy6gDURyL7/0fPe7B6tx0frLT4vDn/epUZ02+I9vHAbzvkRIW92jpIS1RhVE+u5Vf/TlpoKnv6rdrN9fTbfdQFd6Uf4W/X1XUoldtYrNhkxYpNVug0BH07aDGqlx5jeutx26goON0Ue467sP2wE+v3OXCyoLpdWKyJwcB0XeX9dYg2cgpn+2EnlmdasX6fA8UWTtaHee4dbvp00OKbjUKZttJk26F6E4OkoQAsNvaw00N5awNKlV7tpKEAalJz/a7TEAzuosPInlyn3usGG+D2UmQfdeFCiRdDu+iQEqe6/Nm7P3I9/c5calhPP2eN9fub35ahc5qmcgmhw/QbovHojdE4ke/B7mNOdG2lQbc2XKvwE/ke/LDVhk0HHNhz3CXZRp5yTA12uqnB6qQHo3SkO89wBoBFDblu0BXAvhOu4kZcM+zEmRi0kXiHH6ebIvOAo7JQZBm6tNJgRA89bh5uxOAuOvy20471ex3YesgBqyO43i1KuU7Ch8+68envnGUysoceVw0wYGJGFA6fdePf35VJoomov6TEqtAyXoXzxY13tIaT3NOuSwLVjRrsCGzQk08pTQHAG6O8dq9DHmViKunTofF75eGmakImxzCYNDIKr31TBos9PK/bYguLH7fZcPqSB0O76vD9FhuWZ8rLnAY4P8D5YnukxQiIP7MdOgEF0JlSmkQIuRToNRvqkhVMAMo84BBLXpAcUjT//SaCLb3k3k5MKn6fQPhzv6ODwBBBAzsGNVQB8CYAubz0ZLGFldUOgBwfBIXG06+j/Co/XSr1JntZCOUFNKhScFAtgGPnPecaeL2IoFYRycevixHJt69cOwpX0aGFOqIBSQ3lZIEnqJmBAf8FKKU6AP34xjblBNkDFWK6tJJndlgVVb38IqIIAqwkLDUIkaf1t/mgU8hzOahybgZEQ1TgYHBJCHVYm21Pa8D1IkafDvJ9+wORXYfLdN77IMf6D6t321MFhnQA+gd6vYYoAF5TgwLFRy942jfgehGjt5wdgIisGS53JyAgz3iAQ2dcHSlFmcBwwMuAhigAXmfDxVLvUUrl9WKQcgqwXyi7AI2iWxsNtDLpblQFS8EUlXuDVik4IAVQmQDEW4cs65BDVpuqKbEqpMRJq9qtvB5FDiJLqTm0aoIeMix8uvOIWyifeUTlHPWbQC2ALgCS+AbWZDtlVf+vlwTf/oF2523oW5jwnBBoLcDLy48A781IrAWxHB2Ba7JtsQJDiQACKsQbqAIQMjFcO4/IqwNQTwnk/9dm3p2xeOhas99maaBzqVtrDT56LAFpCXUtnxE99HhtWhxaJfoZHBrgvavaik0ZI61K8XJcBmYddqUDEIq7DmgZEGgosFACUJ7TTXsGeK2I0r2t9H54o47gwWvMuGmoEZ/+YcEPW2x+Fa6ozwxPiVXh/vFm3DzcKKg0qroAje6tx0/b7Hh/ZTlKKoTDi/2d/2oVwY1DDXjk+mjESbBBZ5/K+gj+pFlLBZuTjbI5aa5RR7rxDGcA+NzfawVFAeScdgt1L5EkDIGkA4BS4rgOPrcMj8LbP5Rj1xH++ir1meFGHcHdY02YOs7kdytvtYpgQoYR4/rpsXhNBf63zgqXh6efoB/Lj1E99fj7xGj/rYoIEFuZDHbqojwSmao4yCUGCSkAv/H7l6GUJgLgNfP/3GOTVSeJ9i3UkixYWZvubTT4+LEEZB124q1vy3DsQq2HVGASVr11H74uGvHmhr11q0z2W0dG4YOVFvyyw+bzlrysAHjO7dlOiydvjpZNHf4+HbSyUwDr9zs1AolBXSml8YQQv7JyA3k6hkPA8tuY45LV/n/3NvJ4MKsY0kWHpXOTMe+OWJ8JzWf6D+miw//mJNU5tqG0iFPhxbtjsfjvifXum7dJ4tqKff5UomwmPyC9grD+8Ge2PSiJQYHYZrymhduLU5dKvbKqACyFAqCBomKACRlGXDPIgC/WVuDz1RU+b+EebTV4/OaYkHXB7dFWi0+fSETmAQfe+q7cZ/kRbWQwdZwJk8dEQauWvmVVm94y3AkoKPWmeFl6TsUQvujbDAC/+HOdRiuAk1zXElkpADk3vTRoqx2FVidnk8+/KxZDuujCEpQzsqceQ7vpsPc4V1v/L330+OtVJlm3Dm+for5cxkxOnCrwnuqQqhZSAH7h169WmWQwgG8s84BDVn81jYogPU1eCqC0gkVWZS2+qio2KXEqdKistT+0a3gmfxUaFUHV+rNnO62sJz/AWTFSjAupjy25DiHHxSBKqV9fyF8LYAAAPd/A2mx7Sz+vIQnS09SyMlP/81M5Fq+puOyAYxjgn3fHYfxAWfldJU/fDlpszmlwh62IsDrb0WLKX0x8QwZwGbtZ9V3DX9XNnwBEUZZ3zi3kjJAkUtz/F6KonPWZ/ADX/WfxGnl1tpEDfdrLyyoEgIOnXJ0oRbnAsF/LAH8VAG8CUGG5N4+lQekwHDbkFPt9vtjDG6By5LxbNEhHIXC6t9VCrZKPZQhwiUHFFrZRiUH+Tl7eBKCdeS7ZVYPsISML4HwRf+0HSoHfdsgq90ryGLQEndOkG7AkxO5jLovAUHAUAKU0HUALvrHVu+2ySgAy6gjap5E2/80AACAASURBVMjnR96SK9xh7aPfLDieH97glYulXpzI96CwXF7ltP1FjnkBq3bbYwSGUiil9Rbo9Wc2CGkSd1aevBKAurbWgJHJgmXvcRd+3WETHK+ws5j65iVMvyEaNw41Xo5sLLNyHX5+3Mqd+/TtsRjWrXEFMI9d8GDWp8U+0XKtEtWYd0cMBneRX3FNIfp20OLrDfIyarflOjuDSwzim8sZAI6Jnd9gBWB10jyHi/bw43zJILUIQIudhUnP+GzhUQqs3WPHC1+Wgq1nmW9zUryxogzv/FCOzq00cHsojp53+3TkmfVpMT57KrFRW59vfVdWJ1T2bKEHzy4pwe8vtQg4K1GqyDEgyOZko+xOesigI115hjMALBE73x8FwOsAPHjSJasEIEA6EYAsC8xZVIw/9zoQE8VgUGcd0luqYXdRbDvkxKEAu/K6PBQHTrp4x+wuire+K8eHjza8WvsRgUaaReUsii1eJEZLq7BKQ0mJVaFFnAr5JfJa4uSecV3s30nHpwDqLRUuqgAopXEA+C6MdXsdsrP9ekjEAvgm04o/93J7zmVWFmuy7ViTLXx8p5YaDOqsRXKsCk4XxdnKrr3+7gTsyHPCYmcbFLDDUqDUKnwfJ7/ekS19OmiRv0teDtYN+5ya/p14p2OP+hKD6rMAhkPAUbghx9HObwklQEwUg5Y8hTDCDaXAV3/6t4/fo60WMydG8zqnPF6KH7bY8N+fLfW2BWuVqIZR1zDnR4WdFV2KeOWUSO8Hvdtr8YfMFMCavfb2T06I5hsiAIYA+E3o3PqeCt71v5fFmfxiL+/OgFTp0VYjiQKWZwo9fjWlvGagAQufTBD0TKtVBJNGRmHxzES0jBdWbPFmBv9+MB4qBigs92LhHxZ8vroCZSJv9ZrkCZj/VRSXN614BDmWCs8v9rZgWZwXGBbdDmyQAhDpTiJZpOIATDCrEBMl/mcf0EmLF6bEQuNHYErbZDXe/lsCb4MTg5bggxkJ6JiqxrZDTkx86RLeX2nBf34qx5TXL/nVPnz9PvHw2AOn/FsD5J5x44UvS/Ha8jJJd+VNT9PIolZEbU5f8pwSGGqYAqCUagAM5BsT6U4iWbq2koYDMEpP8N70BMEqOQwDzL09NqCotI6pavDFhE8Za0KnlhpkH3PhyY+LUVFjqXC+2Iv73y7CCZFYgh15TqzIFN6KBICvN1jrXYKszLJh2r8L8XOWDd9stOLOVy9dziaUGipGXsFiVWw56BAy1YaIJQaJvYr6A+Bt9b12j11W5j8AdJZQBmC31hosnZuEjB5186uGdNFdzvILhNtHRdWJcRjTm7v+P/9XCpe77lq9sNyLaQsK8ct2u0/IcbGFxXs/l2PG+8Vwe8XX+BeKvZj+XhHO8UQterwU7/1cjue/LPUpK1ZhZ/HER8W850gBORYIWZ3tSBYYMgDoI3Se2JPGu4VAKSwHT7tk1QI8Sk8k4QCsiVFH8MZ9cZj00kUfk7ihQTvxZgZdW2lw8HT1iyDayMDppjgtYuqX21jM/6IE7/1cjjbJapTbWBw55/arGGkVOafcmPTSRVw9wIARPXVINKtw+pIHX/5ZUbeMWY37fvhLOf55j/SCSeUYD3DglCudUlgIgZlnOAPADr7zxBQA79qhqJzNY1n+2gBSpVNLaTgAa6PTENw6Kgrv/FCd0NUiruGhyqnxKh8FUFjuRWq8CsO76+tNdS0o9aKg1PeNHG9mMLizDl1aa5CWoIbJUB1teK7Qi4OnXdh5xIVyGwuXh+LnLBt+zhJfMtRESDlEmt7tNWAIAlKCkYZloSq2skcSTAxff8AMAG/znRewBbDrqGDygWSRkvlfm5611pu0EdtqtR/YnXku9GqnxQt3xeKeNy/hgp/Ot0Gddbj3ShMGd9HVG+Xn8VJsynFi0aoK5PjpEKziqv7SrGlgNjBo30ItWQUlRPZRV/m4vrxlO0YIncPrA6CUdgDA24V0dbZg8oFkSZdwlpeq1sqkMR7y2tmDS9ZW4GKpF/FmBu/8LQGmegKBOqaq8Z+HE/DhowkY2rX+yQ9w25Gje+ux+O+JeG1aHNIS/VtqjR9gwD3jeItZSAI5dgxanW3nDQYA0IJSylu4V+iJENo68Gw/5OgcsGQRRsoWwIVak3ZzjnAGoBgXS7119uzLbSzuf6cQh8+60TFVjVkThZ4P4OoBBnwxKwnDuzfMB1HVWOSr2fVfY0wfPV68O1bSOQRydARuzXF0BiD0BuGd00IKgNf8tznpEauTSqu3kx+0TZamBUAp8O1m3+yzXUedyA0wFwAAvlpn5S0ecq7Qi6lvFuKnbTZcN9jIu8Pw4DVm/GtqnN/NQ8QwGxi881ACbhvF/5i0TVbjX1PjJF98Q46OQKuTmhwuelRgmHdOB2QBHDrjutQQwSJJTBSDaKM0c4A//MWC3Ud9182UAi9/XQonz7adEAdOuvDNRuE0VreX4pVlZXB7aJ3IwokZRjx0rTmoTlKGAWZPisFf+tRdjz41ITooiibUtE5US/a5EePQWVeBwJB/FgClNBpAd76D1+1zSNeWFkCjIpL05n76uwWf/sHvTz142o25i0pgc9Yv+KEzbjz1STFv+y4fCEABn+MGpOsw+9bQuHQIAf5xT5zP8osQzsEoB37ZbpNdmXAAWLfPKWTu9qSU1vmx+VTccAC8npz1+5yyqv8PVMa//y6tjYv8Ei8++lVcpo0HHLjnzUvYnOPgNe3tLoqFf1hw39uFKPIjHn9Edx20aoLsY5zFoVERzJ8cE1JT3KAlePbOmMvWhVzyhg6eduNfy8oiLUaDWLfH3k5giAFPaT+hKiJ18LL0/Pkij6xKgFfx8W8W9GynbXRlnGDBVL6N6+NEvgePfViMlDgVBqXr0CJeBbuT4myhB1mHnXC4/JtRGhXBw9dHY+MBx+WtwAkZxrA07ezRVotx/QxYvZvLsMs55Ub/EHUvCgbFFhYzPy3mjZyUA+eKvC1ZFhcYhncXLwPAHzU/8FsBnLnkPQlAlgqApcC8xSX4anYSUkUy58JFcqzKZ1LUR0GJFyu3iwfYJEarMHWcCQPSueq2h8+6kXXIiUtlXkweE4U4E4PHP+Dealo1wf3j+QLGQsPD15mxJpsLN/45yyZZBeDxUsxdVIwCmRUEqc3ZQs/JNslqIQXgg48CoJSqAQziu+jmg4JdSGRBmZXFnEXF+PSJREk0Bpk1MQYHTrouv5FVDDCihx692mnBUopdR13Ymef0Ke8lxKDOOrz1QDyi9NXfq2OqGtcOMsDuoth+2Il73yq8HGMwsqcuKI1D/aVtshq922sr6xzaMSHDiF7tpKcEFnxfjl1HpZmkFAibcx3uNsm8MRZDKKVqQsjluVzbAugDgPfMNcLJBrIh55Qbb64owzN3xEZaFCREM/jk8UR8ta4CRh2Dm4YZkVYjX+G+q7lc/Be+LMXhs8Lbgm2S1Hj34Xho1QSbcxz4cp0VReVeONwULMuF+NYu6DGCJwkp1Izsocfe4y54vBSPfVCMZ26PwV/6GqCSiKP95yyb7AqCCrE225F05xW80zgK3BzfVfVBbQUg1AHImnPK1SloEkaQbzfb0Lu9FtcP4U10DCup8SrMnCjshe+cpsEHMxJw1+vCYbxTxnIdec8VefHUJyXw1JO9B0Qmyq3mPcttLOZ+VgKjrhQ92moRb2YQZ2KQGq/CdYONiDOFVyvknHLjZZk6/fjYd8KVTimshIAvGCMDNRRA7b80rwIotrKHvWxAnYQlzcvLyuqtdCMVYqIY/PUq4ZDZqlyCzTkOvya/WkXC4vyrTTuefgw2J8WOPCf+2GXH1xusWPB9Oe554xLsfjo3g0GxhcWshfJ1+vHhZaEutbJ5AsM+c7y2AuCNFso+6hLqPyZLnG6KWZ+W1FvIQiqM7mUQDNSpqsh7qcw/x5XJQCJidseaGL+Cjc4Xe7HlYMPCoQPF46WY0wScfnzsOeYSMml8EoMuPwqU0rYAWvGdIZJkIFvOFnowb3GpJIOEapMQzfDmM6TEqS4781R+7udHygHKEEDtZ/B/uCbkv78rrxOJ2VRYnW0X2uZpWTnXAfhaAEIJQN5tuc4msf6vzeYcBz76RVpBQkLMvS0GnVpy9eqijQyGddPhzfvjL79Vu/iZ8ORPdGEocHtpvdWFqtCEYYXy0zYblomET8udTeKJQZctfTXfhzVxuOjRCjvbJYiySYqFqyzo1kaD0b3D7xkPhN7ttVj2dJLg+Kheeoztq8faPeKFPyrsLKwO6rNlGA7yA0hzbt+AkmiBkHPKhVe+aTpOPz6sDmp2umieTkv4snczACwFfBUArwWQd85TAKDJKgBKgflflGDJzCReR5VcUDHA6/fFo7Dci3NFXpRWsCixsMg+7sL6fQ6fgqBHL7jDnu7qb3GNHm216N8xdBGbxRYWsz4taVJOPyHyznnye7XXCCkAAJUKgFJqBtCL7yLr9trlOyv8xOqg+PsnxVgyMynsb8Zgkxit8mnVdfNwI4otXBHOqoo9u464wq4AduT5OvZSYlXo11GLFvEqqBkCg44gOVaFv/TRh6yBq8dLMXthcZ3SZ02V9fscql7teZeGvSilMYSQsqrJPRQCCUB/7nXILgGoIZws8GD+FyU+6+qmQryZwVsPxGHiSxdhdVCsybZjmsjWYrBhKbBub/XS5P7xZjww3hT2mgBvfVd+ORmqObB2j73tozfx+gJVAAYDWF2la3nNf5alBWcLPWkhkk9yrN/nwMJV8nAKBkpSjAoTMri4kMNn3dgTxomwfp/j8lv35uFGPHydOeyT/8dtNtGaCU2RM4WeViyLCwLDGUD1LgCvA/Bsofd4KASTMh/9Yqm3gq5cGVOjQMe7P4YntMPLAu/9zN1LqyGYfn34d5RzTrnwahN3+glxvshzUmCIUwCU0ipzoA5bcwW7jTRZuMzBUr/aZsmNVgnV7py9J1z17hgEg+82W3GygPtbDu8W3iQkgGth3lycfnxsEZ7DQymlagZATwC8Ael/7nUkhkwyCWOxs/j7J8UR2zMPFUUWX+fXS0tDq+gOnXHj7Ro9DzqmhreglMdLMXtR83H68bF2j+AcNgHoxUC4Zrhn3yl3h9CIJX2OXfDgH/8rlU0VG39YmeVbf6DcxuLJj4thdQT/SxaVs3jqk2KfoiVWR3hDr9/8tjysvg4pUjmHBSsFMxAw/91enHW5qLSjY0LM6t12LFlbEWkxgkL2MReWbqj7XU7ke/Dgu4VBDb89ddGDB96pe831+xwBFTttDD9stWF5ZvNy+vHhclG920uFWocPYgD05htxOGnTdIcHyH9/LkfWofAkp4SKQ2fcePKj4jp1AWqO3/1mcDr2bspx4J43C3HqYt2lRX6JFwv/CL1CPXDShdeaqdOPD5cbQpqwBwOgNd8ISwXNhmYFywJPf14i6Z72Ypws8GD6+0X1Zj4WlbO4/+1CzFtc0qCuvcfzPXjyo2I8/qFvG/LaLFplwSo/S6E1hKJyFrMWltRfJbkZQQEhR2AbNQDe8jhqNWRXAjxUlFlZzPykGJ89lSiLmvY1eXlZGUor/Ft7sxT4facda7MduGqAHlcPMGJAJy30Wv7vbHNy5cZ+22HHn/vsghZGTSgFnv+yFGkJKvRoG9xoRLeXYtbCYlxsxk4/PjQMhJby0WpwDoI6UYAGLRHOPGmGHD7rxktLSyXZzlqMs354+Q1agvhoBoVlLJxuLmvvl+12/LLdDo2KoH0LNVomqBBtZEApt0ty5pIHJws8ftUsrI3LTfHa8jIsmRncR+zNb8uDsoxpami1RGgngFUDKANQ55dgCJLiTExRSQWbEFLpZMSvO+zo3kaLO0fLpzva2H56/G8d/xLQZGDwt2vNmJhhhFZD4GWBrbkOLPyjAvtOcBPJ7aXIO+cWraCkYoCM7noM7qKD2Uhw5JwHP2y1iS4FzlwK7lv6hy02rFCcfnVIiVEXECBFYLhUDeAkeBQAADKmr+HId5usigKowYLvy9A5TY0B6dLoMVAfj1wfjV1HXHUKi7ZK5IqJ1uybWFWZeHh3PRZ8XyaoOGrSr6MWL0yJrVNm7M7RUZi3uERwG+6agcFrDb7/pAuvLVecfnxcOVB/DMIK4DgDYI/QybeNNDa9cLhG4mWBOYtKkC+TMlIGLcEHMxJ8avEP6qzDkpmJgk1TGQI8eUtMvWv0zmkavDc9gbfGYIs4Fd57JAFDutZVlH3aa/HYTcEJCS4s93KRforTj5dbhokWv93PANgoNNopVdPXbGAU1VqLkgrOKRiuPe3GEhPF4KPHEvHx49x/H8xIQEyUeEguQ4DxA8Tf0vdeaRJ1iuq1BG8/FI/xlW97QoAbhxrx/owEQcdiILi9FLMXlvhdD7G5EWcmxe1S1P1FDllLKhsGFgDgtWlXZtnXP/9lyehQCCh3rh9sxIt3R77HQKjIOuzEI/8tEhxf80oLv0t4ny30QKvmcv6DxSvLyrBik7LuF+K1aXHrx/UzjBYYtgFIZQghZQC+FbrIdYMN/RNjmIuhEFDurNzedJpJ8GEQeUvrtSSg+v2tEtVBnfwrs2zK5BchJU6VP66fgbfLVyVfE0LKq37BNyDQr5IQRC9+KvGY0HhzZ8H35dh1RN6RgkJoRCoIxxgj19Jn/0kX/vW1sjIVghDQxX9POgfwNgYBuK3/fwOV9QAIIXsALBa6YIt49bCZE6MFfQXNGY+XYu5n8nEKBoJYebTEmMg0WVWcfvXz7B0xG5NimAEihywkhOQAvmXBZwOC1UNw52jT8Ct6GrKDJGOTgis02bS6ywCc2Z4uUG58VK/wb4O6vRSzP1WcfmJc2d+4++bhUUIZvgBwBsCcqn/4qHhK6Vhw/cN51TtLaeEt/7hoP1vo5c0faO40RadgsYXFV+sqsP+kGzYHiyg9g5E9dZg82hSy4p1CvPx1Kb7dLN4mvTnTNkl99tv5yVEEEApX9QAYSwi5bM3XsfEopTPB+QR4cbjo4bFP57d2uGjku2tKkFmTYnDHFfKJFJQLK7NseP7L0kiLIVmidMS6+uUW53Vaki5y2GOEkP/U/KCODieEvAngc6Er6LWkyxezk5SlgAD//q6syToFI4Xi9BOHENAvZyftq2fyf1F78gM8CqCShwHsFLpShxR1xjN3xK0PTMzmgZcFZi1sWEqtQl2KylnMVtJ7Rfnn3XEb2iSrh4kckg3gIb4BXgVACHEAmAjgktAVJ2YYRl4zUC+oJJozZVbOKegIY5vrpkhV914lvVeYqwYYdl0zyDBS5JACADcSQniLMAi6cQghpwFMACCUX6n659T4ju2S1af9lrYZcfisG//6WlmzNobXlpc1q0YegdIxVXPy5alxnSDgtAdXCOR2QshZoWuI+nEJIZvAbQ/yjwNx/5uT5DDqGCUki4dfd9ibdKRgKPl2sxXfKR5/QaJ0xPrFrCQPIfwVvSt5jBCyQew69W7kEELeAbBQaFynJZ2/fjppPyFKpCAfilMwcPafdOHNFeFpXCJHCAH9ak7Sfp0GnUQOW0wI+bC+a/m7kzsDwHahwbQE1dDnJ8eJaprmiuIUDAzF6Vc/r/41fkPrJPVQkUO2QcDpVxu/FEClU/BmAELlhXHDUMOo6wYbd/hzveaG4hT0D8XpVz83DTNuH9dPP0rkkHwAkwghfpmdfsdyEUIuALgVwk5B5sUpsentW6hP+nvN5oTiFKwfxeknTqdU9Ynn7oztCuF56wZwGyHknL/XDCiYkxCyBcATwuOI/d/cZDZKzygLOB4Up6AwitNPnCgdqVgyK4klBGKllKYTQjIDuW7A0dyEkA8AfCI0rlWhwzdPJ+USgvD2gZIJilOwLvtOKE4/MRgC9ptnk3J1GtJR5LD3CSGC81Lw2g2UaToAQU3TIl415F9T45T0YR4Up6AvReUs5ixSnH5ivPFA/MYWsWqx4h5bADzZkGs3SAEQQtwAbgMguNa4eoBh1C3DDVsacv2mjuIU5FCcfvVzS0ZU1uhe+itEDrkA4FZCSIOcJ42qzEgpHQpgPQTqCVKKirtev1Rw+KxbzHRpttwwxIinJgSnOq4ceffHcny/RVn3C5Gepjm+dE5SEiEwCxziAHAFIURwi74+Gl2alVJ6D0SqCbnc9MRV8wriLXZWLGJJQUGhBjFGVekfL6eUaVRoK3LY/YQQwSA9f2h0SQdCyBIA7wuNazWk/Yp5yUcZRmk2qqDgDwwBu+yZxCP1TP53Gjv5gSAogEqeACAYCZgYwwx49a9xAW1PKCg0VxY8GJ+ZFKMSc/qJ5ugEQlAUQKVT8HZw9cZ4GdvXcMUdV0RtDcb9FBSaKreOjNo2oqdopN9pABMa6vSrTdCquhFCCgDcBK7hAO8hMyfG9O7WWn00WPdUUGhK9GynzZt7W0wvCPvmHAAmEkIE63QESlDLOhJCBCuPcOOIWjwzWRdnZoTbzSgoNENiopiST59I0EO4lj8APEwICWoRnqDXdSWEfAngHaFxFYPWy+Ymn1KcggoKHAwD7zdPJx3TqEgbkcPeJIR8HvR7B/uClcwEsE5oMCGa6b/gwXjFKaigAOC9hxM2JcaoBoocshbA06G4d0gUACHEA2ASgONCx4zoob/irjEmJVJQoVlz7zjz5sFddWKRfqcA3FE5p4JOyFo7EEKKwdUUFEp/I09NiO7Xt4M2N1QyKChImd7ttIcfvcncT+QQOziPf2GoZGh8k/Z6oJROBLBc6F5elp67el6BvqSCTQi1LAqhoX8nLa4ZWN0n5oNfylFsUZJBxYgzM8V/vNTCqmIg1GWLAriTELIslHKEvLkTIeRbAG8KjasYkrbs6eTTKgYhMXEUQk/7FDUmZBgv/2fSR65zsBxQMfAsfyb5tMjkB4BXQz35gTAogErmAvhNaDAhmun3n0cSNoVJFgWFiPLhowlb4kxMX5FDVgN4LhyyhEUBEEJYAHcBEAwCGtJFN/rBa82KElBo0vz1KtPm/p10YpF+J8CZ/mHZJg+brUYIKQFwIwDB0i8PXWMeODBdezBcMikohJPe7bWHZtwQ3V/kkApwXXzCFigX1sUaISQXwL2AYA8B/QczEmMSopmQeT0VFCJBYjRzaeETiTEADAKHUADTCCEHwihWeBUAABBCvgfwitA4wyDt23nJFzTq4CQ7KChEGrWKcS97Jvk8wyBV5LCXCCHLwyZUJZFy1z4HYKXQoNnI9Hp/erySOajQJPj0iYStsVFMH5FD/gDwYrjkqYk6EjclhLCU0sngOph05zumfyfdFX+7zpz54S8Wsc6nsiAtQYV2KWrEm1WgAIrKvdh73AWbs/E1AVvEqdCxpQZxJgZqBiipYJFf4kXeOTdoEEoOdmihRtsUNeJMDEoqWFwsZXHojAveIG/zq1UE3dtoEG9mEGti4PEARRYvck65UW6Tb0zBfePNm3q104g5/fLARfpFJDcmIgoAAAghFkrpBABZAH+DwwfGmwftPOLK2Znn7BFe6QJjw+stYDJwxtSxCx7c9vJFAMA1Aw24e6wJXVpp6pzjclP8utOO//5UjpKKwB5whgFuGmrErSOjeK8NcNV2V2fbsfAPS4OCcsb1M+CB8SZ0aln3+mVWFmv3OPDJ75ZGF/Ts1U6LqeNMGNJVB6OubqyYlwV2H3Xik98rZFdOfXAX3YFHrjOLFfawgIv0i1jHmJBHAtYHpfRGAN9DYDnCUhRc/3wBLSjxtgivZP5TWwHc/spFzL0tBpNGiGV2cpwt9OCBd4r8nkgpcSoseDBecOLXxuakePWbUvyynbc9fB20aoJ/3hOLcf2EfFXVlFawmPF+Ebq30eCZO2Ivf37LPy7i9CXxuC6DlmD+XbG4qn/996liZZYNLy0tg9sr/WrKSbGqi7++mMIyDISeWwqumu+34ZSrNhFXAABAKX0BwPNC4xYbe+DqeQXpTg/lrT4caWorgNXZdvzt2upCrucKvTh9yQOWAp1S1UiJ823nnnPKhb/+u7BeszotQYWPHktEanz1+R4vxdZcJ46c98DjpWiXosbInnoYtNU/LaXAm9+W1duVSMUACx5KQEZ33z/zqYsebM11otjCIjmWwRW99EiK4WTIL/FixSYrZtxQXd24PgUQbWTw3vQEdG/jq8Ryz7ix97gLJRYWahXQIVWD4d11Pt9l+2EnHvugWNJKQK1i3Kv+lZwbE8X0FjlsPiHkn2ETSgCpKAAC4BtwGYS8HDztXnf3G5fGhE8q/6mpABwuCq2GgCHA5oNOvPNDGY5d8J0Mo3vr8cKUWJgN1UbP68vLsGyj8ARVqwgWPZmIHm2rJ82uoy7MX1KC/BJf6yHayGDOrTEYP7D67cqywIPvFor23rt7rAlP3Fw9kZ1uiteXl+HHbTYff4KKAe4fb8YD480ghLMyaprvYgqAEODth+Ixoof+8meHzrjx0tJS5J5x1zk+3sxg3h2xGN27+vgVmVa88k2Z4PeINF/MSsrs3kYj5rv6EZzpH3HnhiSCtgkhFMA0ADlCx3Rvoxnz6A3Rku82pNdyk395phWPf1hUZ/IDwPp9Dsz8pMRnUt06Uny5MHl0lM/k33PMhRnvF9WZ/ABQbmPx7JIS/FCj5j7DAC9MiQUj8IvHmxkfq4WlwDOfl+CHrbY6zkQvC3z0qwWf/m4BAN61uxAThht9Jn/2MRemLSjknfwAUGxhMWthMbYcrF7/TxoZha6t/VsChZsnJ8RsqGfyHwIwVQqTH5CIAgA4pyC49GFBh8i9V5mGjeqp3xs+qRpG7hk33lhRJuqF33nEiQ37HZf/3b6FGimxKt5jVQxwxxXVCsLloZj/ZQlcbuEbUMp12z1ZUK2AWiWqcUUvPe/x1w4yQl/D1P5pqw3r9zl4j63i498tyDnFP3H5YBhg6rhqJVNhZzF7YTGcIt8D4KyXV5eXgq0xZaaOM/l933AxrKt+/5QxUcNEDikH9+aXjPkiGQUAAISQPHDVhYU8Ypq3EP0eWwAADJ5JREFUHoxvmRqnvhBGsQJm8ZoKv7bJ1u7xdcwJvdUGput8/AardtlxrrB+p6HLQ/HBLxafz64fbOQ99uoBvs64RastvMfVhGWB91b639RzWFcd0hKrv8fXG6x+71CcK/RiR161FZDRXS9ozUSClBh1wbsPxyUD0AocwgKYXBkNKxkk9CfkIISsgohDkCFIWjYvqVCrJv65tcMMS4Gtuf5tVx0577s8iDPz/xy9O/g+U3/uFX8z12TDPgcs9upJ1rt93edTqyHonFa9I3z4rNsvBQMAOw47UeDnDsbAzr7ORX93JqrIPl7tv4jSE3ROk8YyQKsljuXPJRUyDEkROexZQsgvYRPKTySnACp5GZxTkJcoHen15aykXWGUx2+Kyr2osPv3Viuz+h4nlEffrZZlcEhgvcyH20tx8HT18fFmps5So0MLNdSqavP/0Fn/r89SYP8J/6K2e7erVj7FFrbercLaXKqlaFrE8S+Zws2iJxJ3RumIWKzK9wBeDZc8gRCxQCAxCCGUUnofgG4AevEd07GlesTfJ0RveOu7crF6amGnwu7/9pS7VktstcDzHGeqVgwuD/X7jVvFiXwPhnSpfvvGmRmfa9S8PgC/3/41r+8PiTHV9zEZCH56XuyFWRdDLWdjbFTk319zbo3e0K21RuwZzAVwb6WjW3JIUgEAACGkojJIaAeARL5jJo8xDd951L1nwz67WHGFsMKG4GeONlY/6DZH4Dew1AqlrXk9AJe3MKuwOgJzUFv8VHoxNSasVk18/AENoabTMhJkdNfvu22USczpVwLgBkKI/46SMCNZBQAAhJCTlNI7AfwOgO9p0bz1QFybCf90nTl90StWXknWkBrPeUMUTO2YGVWtF6eq1jwK9B5eP09QMdU3crgoThQ0rgpcJOsOpiWozr/9t/g0iDv97iKEHAujWAEjaQUAAISQNZTSZwC8xjsOxC+dk3xp7NP5NoeL8ru4ZU5Nn0KUPvC3ntnge065zXfCWmpZFYHs6wN1LQghSq0sjDpOjxdXsJjyetA6XIUVnZY4ls5NLmMIuokcNocQIlgGTypEfhHlB4SQ1wEsFRrXa0mXL2YnZYdRpLBSaq2eoDoNQbzAboEQbZN99Xxphe8av7YzMlkgHkGItAT/ji+p8cZOjmGgVUsiEDVgPn8qcWeUnohN/v8RQgQL4UoJWSiASu4DIOj575Ciznj6thjBFuVyJq+WVz6Q7S+GAbq3qbZSLXYWF4p9FcDxC26fIJt0ngxAMXq0FbKCfdl/snq3QK0i6NfRv/OkxHOT49Z3TtOMEDlkL4AHwiVPY5GNAiCE2AFMBCBoN04aGTVi/EB9UJsnSoF9tbbZhKL5+BjSRedjMRw46a6zxrc5fdfjvdtrfBx2YnRqqUHHVP9WkjUDeQDg+iHyWrGN7WPYffMwg9jkLwYX6SfUIVtyyEYBAAAh5BS4cGGhjWrVS1PjO7ZJVp8Oo1ghJ+uw08dMv2aQoY4nnw9CgPuuNvt89vsu/uCbmlGJahXxK5UZAO6/2v+Q3C0HfYOGxg8w+OQ3SJnWieqzr94X2w7CfjMPgEmEEMF2eFJEVgoAAAghmwDMFhwH4r6ek2w36hjx3FcZ4XRTfF8jscdsYDBzYozP7gAfk0ebfMzsYguLVbv5FcDP22w+y4B7r+QvZFKT8QMNuDKAfH6Xh+Lz1RWX/80wwBv3x6NVYmC+6DgT43c9hGCg0xDr108nWRhC4kUOm0kIEWyIK1VkpwAAgBDyNoBFQuM6Lbp8/XTSfkIEqw/Ljs9WV/is3a8bbMDL98Yh1lT3J9RpCB6/ORpP3hLt8/lb35UJJhCdL/bim8xqnWnUEbw/PQGjetZdbhACTBoRhRemcEVA7C7//8wrMq3YlFMdypwSq8IXsxJxy3AjNLX3I2vAEGBYNx1emxaH315KqZO7ECoIAV06N2mfXivq9PuSEPJOWAQKMpLfBhRhOrgoQd6SS2kJqqHPTY5Z/4+vykaHVaoQUWFn8dySErw3PQE6DTdRrupvwKieemw75MTxfK4gSOskNTK66+osEX7OsuH3neKx9++vLMfw7jq0SeIei1gTgwUPxSPvnBu7jrhQamWRFM1gWDf95SCeS2VeLM+04ZHrzWKXvgxLgXmLS/HhowmXQ5yjjQyevTMWj90Ujd1HXThb6EGplYVeS2DQEnRooUGXVpqAdz+CwYt3xW1om6weLXJINoCHwiRO0JGtAiCEOCilNwPYCfCXW75paNSoXUc9O37JsorVZZMN2cdcePSDYix4MP5yPIBeSzC6tx6jRWrPrMi04rXl9WegWh0UD71bhA8fTfDZOuycpuHdebDYWcxZVIJOfjoBq6iws7j/7UK8cFeszxIi2sj4FP4QwxOGikBX9jfsum6IQSy3vwDATXJy+tVGlkuAKggh58FVERLKRmFevCsmvX0L9akwihVSdh1xYuJLF/Fzlq3eSXDojBvT3yvCK9+U+R3dd7HUiymvX8LXG6yi1z90xo173yrE3uMNa9/gcFHM/awEj/y3CNnHXH5VMC63sfhjlx0z3i/Ch7/Un67cGNokqU++8te49uCPQAU4R/TthJAzIRUkxMgzEqMWlNLpAP4rNO7y4vi4uReSrA7qn50qE0wGBkO76tAxlSvbrVETFJV7kV/iRdZhZ8BJPbWpeiO3S1Ejxsig1MqioNSLrENOnLoY3GbO8WYGgzvr0CZZjZgoBgYdgcNFUW7lsgaPXfDgyHnfeIVQEaUj1tUvt7ig05JOIodNJ4S8H3ppQkuTUAAAQCn9GCIBGBeKPFk3vHhxMKVN5zsrBB9CQH94LnlbqyS1WJLPEkLI1LAJFUJkvQSoxXQAmUKDqQnqIS/dE78+fOIoyJFXpsZtqGfybwPwYLjkCTVNRgEQQtwAbgNwTuiY8QP1V9w01LAlfFIpyIkbhxq3XznAINbFJx9cLX95dSgRockoAAAghOSDcwoK/UDMc5PjendppZF0iqZC+OmUqj4xf3JsVwjPCTeA2wghZ8MoVshpUgoAAAgh2yCyL0sITJ8/lciYDYxkKrMqRJYoHalYMiuJJQTRIofNIIQILjHlSpNTAABACFkM4EOhca2GtF/2dFIuQwSrDys0ExgCdvmzyQd1GtJR5LAPCSEfh02oMNIkFUAljwEQTA9OiVMNfXVavOQbjSiEltfvi9uYEqsaLHLIVgBPhEuecNNkFUClU/B2AIJrtrF99aPvuMK0NXxSKUiJm4cbssb0MYgV9LwALsOvyTj9atNkFQAAEEIKANwIQCgInsycGN27W2v10TCKpSAB0tM0x5+9I647hGNhHABurow2bbI0aQUAAIQQ0WQNQhD12d+T1GYjUxxGsRQiSIxRVfrFrCQVIRCLDJ1BCNkeNqEiRJNXAABACPkCwLtC4xoVafftvOSTDKM4BZs6DAG79OmEIxoV2ooc9h9CyMKwCRVBmoUCqOTvAAQLNiREM/3feiBBcQo2cRY8FL8xJVYtlh26GcDMcMkTaZqNAiCEeMA5BQUzA0f11I2+8wqTEinYRLlzjGnriB56MaffaXA1/RqW4ihDmo0CAABCyCUANwMQyt8mMydF9xvRXbsvjGIphIHBXXQHZk6I7gNxp98kQsjFMIoVcZqVAgAAQsgeiCdzGN7+W2KbET30e8Mlk0JoGd3LkP3+9IQ2AMTKED9ACNkRLpmkQrNNjaWUvgnOLyCE45PfLTs+/MUiVhFGQcIQAvroDdGZU680DQGgEzl0ASHkqXDJJSWaswJQges5OE7suPxiz/bp7xennCzwiHmNFSRGxxbqE+/NSChMilHVVw5uLYDxlT6iZkezVQAAQClNALAdQId6DnXlnvFse3NFadKe4y6x6rAKEWZwZ92BpyZGl6a31AwBUF/t8JMABhFCCkMvmTRp1goAACilvQFsAeBXJwy3l57OPeU6ueOIi+w/6TaXWFhDud0rrxY3TQAVQ7yxUYw9OY6xdm2ltQ1M15GurTQdGAZpfl7CBiCj0ifUbGn2CgAAKKU3AvgWMq6SrBAQVV18foy0IJGm2e0C8EEI+QnA/eAeDIWmjQfANGXycygWQA0opdcD+B8gGiOuIF/KANxJCPkt0oJIBcUCqAEhZCWAPhApLqogW9YB6KNMfl8UBfD/9u7YBIEoCALo2w4MDExswCYUM2MTO7QEC7ngwosN7EBYgztQBEUx+Aj7KphoYWBhnkTEgLXxbbhvHKf8rsM+IrbTunR5UBXgjcwMbHDADsumgcqnBpxwnNakywt1AL6QmQusMMescZxydzX2+zP6iLg0zvM3buqr2TW3XavzAAAAAElFTkSuQmCC;" vertex="1" parent="1">
          <mxGeometry x="746" y="408" width="256" height="249" as="geometry" />
        </mxCell>
        <mxCell id="Bkq2MKA8wU17ckq1CraC-2" value="" style="edgeStyle=none;orthogonalLoop=1;jettySize=auto;html=1;rounded=0;fontFamily=Architects Daughter;fontSource=https%3A%2F%2Ffonts.googleapis.com%2Fcss%3Ffamily%3DArchitects%2BDaughter;fontSize=16;startSize=14;endArrow=open;endSize=44.09440000000001;sourcePerimeterSpacing=8;targetPerimeterSpacing=8;curved=0;sketch=1;curveFitting=1;jiggle=2;" edge="1" parent="1" source="X_6x3CovaAltFQVWhzz_-1" target="Bkq2MKA8wU17ckq1CraC-1">
          <mxGeometry width="140" relative="1" as="geometry">
            <mxPoint x="610" y="446" as="sourcePoint" />
            <mxPoint x="748" y="349" as="targetPoint" />
            <Array as="points" />
          </mxGeometry>
        </mxCell>
        <mxCell id="Bkq2MKA8wU17ckq1CraC-3" value="" style="edgeStyle=none;orthogonalLoop=1;jettySize=auto;html=1;rounded=0;fontFamily=Architects Daughter;fontSource=https%3A%2F%2Ffonts.googleapis.com%2Fcss%3Ffamily%3DArchitects%2BDaughter;fontSize=16;startSize=14;endArrow=open;endSize=44.09440000000001;sourcePerimeterSpacing=8;targetPerimeterSpacing=8;curved=0;sketch=1;curveFitting=1;jiggle=2;" edge="1" parent="1" source="X_6x3CovaAltFQVWhzz_-2" target="Bkq2MKA8wU17ckq1CraC-1">
          <mxGeometry width="140" relative="1" as="geometry">
            <mxPoint x="610" y="1043" as="sourcePoint" />
            <mxPoint x="748" y="1043" as="targetPoint" />
            <Array as="points" />
          </mxGeometry>
        </mxCell>
        <mxCell id="Bkq2MKA8wU17ckq1CraC-4" value="" style="edgeStyle=none;orthogonalLoop=1;jettySize=auto;html=1;rounded=0;fontFamily=Architects Daughter;fontSource=https%3A%2F%2Ffonts.googleapis.com%2Fcss%3Ffamily%3DArchitects%2BDaughter;fontSize=16;startSize=14;endArrow=open;endSize=44.09440000000001;sourcePerimeterSpacing=8;targetPerimeterSpacing=8;curved=0;sketch=1;curveFitting=1;jiggle=2;" edge="1" parent="1" source="et1fOOYHSfHHCLRn4kue-8" target="Bkq2MKA8wU17ckq1CraC-1">
          <mxGeometry width="140" relative="1" as="geometry">
            <mxPoint x="610" y="253" as="sourcePoint" />
            <mxPoint x="748" y="253" as="targetPoint" />
            <Array as="points" />
          </mxGeometry>
        </mxCell>
      </root>
    </mxGraphModel>
  </diagram>
</mxfile>
